<mxfile host="Electron" agent="Mozilla/5.0 (Windows NT 10.0; Win64; x64) AppleWebKit/537.36 (KHTML, like Gecko) draw.io/26.1.1 Chrome/132.0.6834.210 Electron/34.3.3 Safari/537.36" version="26.1.1">
  <diagram name="Page-1" id="I4i3gkp-Xbud8QhXzI8V">
    <mxGraphModel dx="2423" dy="881" grid="1" gridSize="10" guides="1" tooltips="1" connect="1" arrows="1" fold="1" page="1" pageScale="1" pageWidth="827" pageHeight="1169" math="0" shadow="0">
      <root>
        <mxCell id="0" />
        <mxCell id="1" parent="0" />
        <mxCell id="WYwA7jNrKrz1sVTGzyhb-333" style="edgeStyle=orthogonalEdgeStyle;rounded=0;orthogonalLoop=1;jettySize=auto;html=1;exitX=1;exitY=0.5;exitDx=0;exitDy=0;entryX=0;entryY=0.5;entryDx=0;entryDy=0;strokeWidth=2;strokeColor=#3399FF;" parent="1" source="WYwA7jNrKrz1sVTGzyhb-2" target="WYwA7jNrKrz1sVTGzyhb-11" edge="1">
          <mxGeometry relative="1" as="geometry" />
        </mxCell>
        <mxCell id="WYwA7jNrKrz1sVTGzyhb-2" value="" style="rounded=0;whiteSpace=wrap;html=1;" parent="1" vertex="1">
          <mxGeometry x="-670" y="358.5" width="130" height="96.5" as="geometry" />
        </mxCell>
        <mxCell id="WYwA7jNrKrz1sVTGzyhb-3" value="Shaquille" style="rounded=0;whiteSpace=wrap;html=1;" parent="1" vertex="1">
          <mxGeometry x="-670" y="425" width="130" height="30" as="geometry" />
        </mxCell>
        <mxCell id="WYwA7jNrKrz1sVTGzyhb-6" value="" style="rounded=0;whiteSpace=wrap;html=1;" parent="1" vertex="1">
          <mxGeometry x="-570" y="425" width="30" height="30" as="geometry" />
        </mxCell>
        <mxCell id="WYwA7jNrKrz1sVTGzyhb-7" value="" style="rounded=0;whiteSpace=wrap;html=1;" parent="1" vertex="1">
          <mxGeometry x="-670" y="425" width="30" height="30" as="geometry" />
        </mxCell>
        <mxCell id="WYwA7jNrKrz1sVTGzyhb-8" value="Wireframes &amp;amp; Prototypes" style="text;html=1;align=center;verticalAlign=middle;whiteSpace=wrap;rounded=0;" parent="1" vertex="1">
          <mxGeometry x="-660" y="365" width="110" height="50" as="geometry" />
        </mxCell>
        <mxCell id="WYwA7jNrKrz1sVTGzyhb-9" value="1" style="text;html=1;align=center;verticalAlign=middle;whiteSpace=wrap;rounded=0;" parent="1" vertex="1">
          <mxGeometry x="-670" y="430" width="30" height="20" as="geometry" />
        </mxCell>
        <mxCell id="WYwA7jNrKrz1sVTGzyhb-10" value="&lt;font color=&quot;#3399ff&quot;&gt;&lt;b&gt;2&lt;/b&gt;&lt;/font&gt;" style="text;html=1;align=center;verticalAlign=middle;whiteSpace=wrap;rounded=0;strokeWidth=4;" parent="1" vertex="1">
          <mxGeometry x="-570" y="430" width="30" height="20" as="geometry" />
        </mxCell>
        <mxCell id="WYwA7jNrKrz1sVTGzyhb-334" style="edgeStyle=orthogonalEdgeStyle;rounded=0;orthogonalLoop=1;jettySize=auto;html=1;exitX=1;exitY=0.5;exitDx=0;exitDy=0;entryX=0;entryY=0.5;entryDx=0;entryDy=0;strokeWidth=2;strokeColor=#3399FF;" parent="1" source="WYwA7jNrKrz1sVTGzyhb-11" target="WYwA7jNrKrz1sVTGzyhb-18" edge="1">
          <mxGeometry relative="1" as="geometry" />
        </mxCell>
        <mxCell id="WYwA7jNrKrz1sVTGzyhb-11" value="" style="rounded=0;whiteSpace=wrap;html=1;" parent="1" vertex="1">
          <mxGeometry x="-380" y="358.5" width="130" height="96.5" as="geometry" />
        </mxCell>
        <mxCell id="WYwA7jNrKrz1sVTGzyhb-12" value="Yusuf" style="rounded=0;whiteSpace=wrap;html=1;" parent="1" vertex="1">
          <mxGeometry x="-380" y="425" width="130" height="30" as="geometry" />
        </mxCell>
        <mxCell id="WYwA7jNrKrz1sVTGzyhb-13" value="" style="rounded=0;whiteSpace=wrap;html=1;" parent="1" vertex="1">
          <mxGeometry x="-280" y="425" width="30" height="30" as="geometry" />
        </mxCell>
        <mxCell id="WYwA7jNrKrz1sVTGzyhb-14" value="" style="rounded=0;whiteSpace=wrap;html=1;" parent="1" vertex="1">
          <mxGeometry x="-380" y="425" width="30" height="30" as="geometry" />
        </mxCell>
        <mxCell id="WYwA7jNrKrz1sVTGzyhb-15" value="UI Components&amp;nbsp;" style="text;html=1;align=center;verticalAlign=middle;whiteSpace=wrap;rounded=0;" parent="1" vertex="1">
          <mxGeometry x="-370" y="365" width="110" height="50" as="geometry" />
        </mxCell>
        <mxCell id="WYwA7jNrKrz1sVTGzyhb-16" value="2" style="text;html=1;align=center;verticalAlign=middle;whiteSpace=wrap;rounded=0;" parent="1" vertex="1">
          <mxGeometry x="-380" y="430" width="30" height="20" as="geometry" />
        </mxCell>
        <mxCell id="WYwA7jNrKrz1sVTGzyhb-17" value="&lt;font style=&quot;color: rgb(51, 153, 255);&quot;&gt;&lt;b style=&quot;&quot;&gt;2&lt;/b&gt;&lt;/font&gt;" style="text;html=1;align=center;verticalAlign=middle;whiteSpace=wrap;rounded=0;strokeWidth=4;" parent="1" vertex="1">
          <mxGeometry x="-280" y="430" width="30" height="20" as="geometry" />
        </mxCell>
        <mxCell id="WYwA7jNrKrz1sVTGzyhb-335" style="edgeStyle=orthogonalEdgeStyle;rounded=0;orthogonalLoop=1;jettySize=auto;html=1;exitX=1;exitY=0.5;exitDx=0;exitDy=0;entryX=0;entryY=0.5;entryDx=0;entryDy=0;strokeWidth=2;strokeColor=#3399FF;" parent="1" source="WYwA7jNrKrz1sVTGzyhb-18" target="WYwA7jNrKrz1sVTGzyhb-25" edge="1">
          <mxGeometry relative="1" as="geometry" />
        </mxCell>
        <mxCell id="WYwA7jNrKrz1sVTGzyhb-18" value="" style="rounded=0;whiteSpace=wrap;html=1;" parent="1" vertex="1">
          <mxGeometry x="-100" y="358.5" width="130" height="96.5" as="geometry" />
        </mxCell>
        <mxCell id="WYwA7jNrKrz1sVTGzyhb-19" value="Liam" style="rounded=0;whiteSpace=wrap;html=1;" parent="1" vertex="1">
          <mxGeometry x="-100" y="425" width="130" height="30" as="geometry" />
        </mxCell>
        <mxCell id="WYwA7jNrKrz1sVTGzyhb-20" value="" style="rounded=0;whiteSpace=wrap;html=1;" parent="1" vertex="1">
          <mxGeometry y="425" width="30" height="30" as="geometry" />
        </mxCell>
        <mxCell id="WYwA7jNrKrz1sVTGzyhb-21" value="" style="rounded=0;whiteSpace=wrap;html=1;" parent="1" vertex="1">
          <mxGeometry x="-100" y="425" width="30" height="30" as="geometry" />
        </mxCell>
        <mxCell id="WYwA7jNrKrz1sVTGzyhb-22" value="User Testing Sessions" style="text;html=1;align=center;verticalAlign=middle;whiteSpace=wrap;rounded=0;" parent="1" vertex="1">
          <mxGeometry x="-90" y="365" width="110" height="50" as="geometry" />
        </mxCell>
        <mxCell id="WYwA7jNrKrz1sVTGzyhb-23" value="3" style="text;html=1;align=center;verticalAlign=middle;whiteSpace=wrap;rounded=0;" parent="1" vertex="1">
          <mxGeometry x="-100" y="430" width="30" height="20" as="geometry" />
        </mxCell>
        <mxCell id="WYwA7jNrKrz1sVTGzyhb-24" value="&lt;font color=&quot;#3399ff&quot;&gt;&lt;b&gt;2&lt;/b&gt;&lt;/font&gt;" style="text;html=1;align=center;verticalAlign=middle;whiteSpace=wrap;rounded=0;strokeWidth=4;" parent="1" vertex="1">
          <mxGeometry y="430" width="30" height="20" as="geometry" />
        </mxCell>
        <mxCell id="WYwA7jNrKrz1sVTGzyhb-337" style="edgeStyle=orthogonalEdgeStyle;rounded=0;orthogonalLoop=1;jettySize=auto;html=1;exitX=1;exitY=0.25;exitDx=0;exitDy=0;entryX=0;entryY=0.5;entryDx=0;entryDy=0;strokeWidth=2;strokeColor=#3399FF;" parent="1" source="WYwA7jNrKrz1sVTGzyhb-25" target="WYwA7jNrKrz1sVTGzyhb-32" edge="1">
          <mxGeometry relative="1" as="geometry" />
        </mxCell>
        <mxCell id="WYwA7jNrKrz1sVTGzyhb-339" style="edgeStyle=orthogonalEdgeStyle;rounded=0;orthogonalLoop=1;jettySize=auto;html=1;exitX=1;exitY=0.5;exitDx=0;exitDy=0;entryX=0;entryY=0.5;entryDx=0;entryDy=0;strokeWidth=2;strokeColor=#3399FF;" parent="1" source="WYwA7jNrKrz1sVTGzyhb-25" target="WYwA7jNrKrz1sVTGzyhb-67" edge="1">
          <mxGeometry relative="1" as="geometry" />
        </mxCell>
        <mxCell id="WYwA7jNrKrz1sVTGzyhb-25" value="" style="rounded=0;whiteSpace=wrap;html=1;" parent="1" vertex="1">
          <mxGeometry x="200" y="358.5" width="130" height="96.5" as="geometry" />
        </mxCell>
        <mxCell id="WYwA7jNrKrz1sVTGzyhb-26" value="Shaquille" style="rounded=0;whiteSpace=wrap;html=1;" parent="1" vertex="1">
          <mxGeometry x="200" y="425" width="130" height="30" as="geometry" />
        </mxCell>
        <mxCell id="WYwA7jNrKrz1sVTGzyhb-27" value="" style="rounded=0;whiteSpace=wrap;html=1;" parent="1" vertex="1">
          <mxGeometry x="300" y="425" width="30" height="30" as="geometry" />
        </mxCell>
        <mxCell id="WYwA7jNrKrz1sVTGzyhb-28" value="" style="rounded=0;whiteSpace=wrap;html=1;" parent="1" vertex="1">
          <mxGeometry x="200" y="425" width="30" height="30" as="geometry" />
        </mxCell>
        <mxCell id="WYwA7jNrKrz1sVTGzyhb-29" value="Backend API Integration" style="text;html=1;align=center;verticalAlign=middle;whiteSpace=wrap;rounded=0;" parent="1" vertex="1">
          <mxGeometry x="210" y="365" width="110" height="50" as="geometry" />
        </mxCell>
        <mxCell id="WYwA7jNrKrz1sVTGzyhb-30" value="4" style="text;html=1;align=center;verticalAlign=middle;whiteSpace=wrap;rounded=0;" parent="1" vertex="1">
          <mxGeometry x="200" y="430" width="30" height="20" as="geometry" />
        </mxCell>
        <mxCell id="WYwA7jNrKrz1sVTGzyhb-31" value="&lt;font color=&quot;#3399ff&quot;&gt;&lt;b&gt;3&lt;/b&gt;&lt;/font&gt;" style="text;html=1;align=center;verticalAlign=middle;whiteSpace=wrap;rounded=0;strokeWidth=4;" parent="1" vertex="1">
          <mxGeometry x="300" y="430" width="30" height="20" as="geometry" />
        </mxCell>
        <mxCell id="WYwA7jNrKrz1sVTGzyhb-338" style="edgeStyle=orthogonalEdgeStyle;rounded=0;orthogonalLoop=1;jettySize=auto;html=1;exitX=1;exitY=0.5;exitDx=0;exitDy=0;entryX=0;entryY=0.5;entryDx=0;entryDy=0;strokeWidth=2;strokeColor=#3399FF;" parent="1" source="WYwA7jNrKrz1sVTGzyhb-32" target="WYwA7jNrKrz1sVTGzyhb-39" edge="1">
          <mxGeometry relative="1" as="geometry" />
        </mxCell>
        <mxCell id="WYwA7jNrKrz1sVTGzyhb-32" value="" style="rounded=0;whiteSpace=wrap;html=1;" parent="1" vertex="1">
          <mxGeometry x="420" y="262" width="130" height="96.5" as="geometry" />
        </mxCell>
        <mxCell id="WYwA7jNrKrz1sVTGzyhb-33" value="Josh" style="rounded=0;whiteSpace=wrap;html=1;" parent="1" vertex="1">
          <mxGeometry x="420" y="328.5" width="130" height="30" as="geometry" />
        </mxCell>
        <mxCell id="WYwA7jNrKrz1sVTGzyhb-34" value="" style="rounded=0;whiteSpace=wrap;html=1;" parent="1" vertex="1">
          <mxGeometry x="520" y="328.5" width="30" height="30" as="geometry" />
        </mxCell>
        <mxCell id="WYwA7jNrKrz1sVTGzyhb-35" value="" style="rounded=0;whiteSpace=wrap;html=1;" parent="1" vertex="1">
          <mxGeometry x="420" y="328.5" width="30" height="30" as="geometry" />
        </mxCell>
        <mxCell id="WYwA7jNrKrz1sVTGzyhb-36" value="Database Connectivity" style="text;html=1;align=center;verticalAlign=middle;whiteSpace=wrap;rounded=0;" parent="1" vertex="1">
          <mxGeometry x="430" y="268.5" width="110" height="50" as="geometry" />
        </mxCell>
        <mxCell id="WYwA7jNrKrz1sVTGzyhb-37" value="5" style="text;html=1;align=center;verticalAlign=middle;whiteSpace=wrap;rounded=0;" parent="1" vertex="1">
          <mxGeometry x="420" y="333.5" width="30" height="20" as="geometry" />
        </mxCell>
        <mxCell id="WYwA7jNrKrz1sVTGzyhb-38" value="&lt;font color=&quot;#3399ff&quot;&gt;&lt;b&gt;3&lt;/b&gt;&lt;/font&gt;" style="text;html=1;align=center;verticalAlign=middle;whiteSpace=wrap;rounded=0;strokeWidth=4;" parent="1" vertex="1">
          <mxGeometry x="520" y="333.5" width="30" height="20" as="geometry" />
        </mxCell>
        <mxCell id="WYwA7jNrKrz1sVTGzyhb-340" style="edgeStyle=orthogonalEdgeStyle;rounded=0;orthogonalLoop=1;jettySize=auto;html=1;exitX=1;exitY=0.5;exitDx=0;exitDy=0;entryX=0;entryY=0.5;entryDx=0;entryDy=0;strokeColor=#3399FF;strokeWidth=2;" parent="1" source="WYwA7jNrKrz1sVTGzyhb-39" target="WYwA7jNrKrz1sVTGzyhb-46" edge="1">
          <mxGeometry relative="1" as="geometry" />
        </mxCell>
        <mxCell id="WYwA7jNrKrz1sVTGzyhb-39" value="" style="rounded=0;whiteSpace=wrap;html=1;" parent="1" vertex="1">
          <mxGeometry x="650" y="262" width="130" height="96.5" as="geometry" />
        </mxCell>
        <mxCell id="WYwA7jNrKrz1sVTGzyhb-40" value="Yusuf" style="rounded=0;whiteSpace=wrap;html=1;" parent="1" vertex="1">
          <mxGeometry x="650" y="328.5" width="130" height="30" as="geometry" />
        </mxCell>
        <mxCell id="WYwA7jNrKrz1sVTGzyhb-41" value="" style="rounded=0;whiteSpace=wrap;html=1;" parent="1" vertex="1">
          <mxGeometry x="750" y="328.5" width="30" height="30" as="geometry" />
        </mxCell>
        <mxCell id="WYwA7jNrKrz1sVTGzyhb-42" value="" style="rounded=0;whiteSpace=wrap;html=1;" parent="1" vertex="1">
          <mxGeometry x="650" y="328.5" width="30" height="30" as="geometry" />
        </mxCell>
        <mxCell id="WYwA7jNrKrz1sVTGzyhb-43" value="Offline Functionality" style="text;html=1;align=center;verticalAlign=middle;whiteSpace=wrap;rounded=0;" parent="1" vertex="1">
          <mxGeometry x="660" y="268.5" width="110" height="50" as="geometry" />
        </mxCell>
        <mxCell id="WYwA7jNrKrz1sVTGzyhb-44" value="6" style="text;html=1;align=center;verticalAlign=middle;whiteSpace=wrap;rounded=0;" parent="1" vertex="1">
          <mxGeometry x="650" y="333.5" width="30" height="20" as="geometry" />
        </mxCell>
        <mxCell id="WYwA7jNrKrz1sVTGzyhb-45" value="&lt;font color=&quot;#3399ff&quot;&gt;&lt;b&gt;3&lt;/b&gt;&lt;/font&gt;" style="text;html=1;align=center;verticalAlign=middle;whiteSpace=wrap;rounded=0;strokeWidth=4;" parent="1" vertex="1">
          <mxGeometry x="750" y="333.5" width="30" height="20" as="geometry" />
        </mxCell>
        <mxCell id="WYwA7jNrKrz1sVTGzyhb-341" style="edgeStyle=orthogonalEdgeStyle;rounded=0;orthogonalLoop=1;jettySize=auto;html=1;exitX=1;exitY=0.5;exitDx=0;exitDy=0;entryX=0;entryY=0.5;entryDx=0;entryDy=0;strokeWidth=2;strokeColor=#3399FF;" parent="1" source="WYwA7jNrKrz1sVTGzyhb-46" target="WYwA7jNrKrz1sVTGzyhb-53" edge="1">
          <mxGeometry relative="1" as="geometry" />
        </mxCell>
        <mxCell id="WYwA7jNrKrz1sVTGzyhb-46" value="" style="rounded=0;whiteSpace=wrap;html=1;" parent="1" vertex="1">
          <mxGeometry x="900" y="262" width="130" height="96.5" as="geometry" />
        </mxCell>
        <mxCell id="WYwA7jNrKrz1sVTGzyhb-47" value="Yusuf" style="rounded=0;whiteSpace=wrap;html=1;" parent="1" vertex="1">
          <mxGeometry x="900" y="328.5" width="130" height="30" as="geometry" />
        </mxCell>
        <mxCell id="WYwA7jNrKrz1sVTGzyhb-48" value="" style="rounded=0;whiteSpace=wrap;html=1;" parent="1" vertex="1">
          <mxGeometry x="1000" y="328.5" width="30" height="30" as="geometry" />
        </mxCell>
        <mxCell id="WYwA7jNrKrz1sVTGzyhb-49" value="" style="rounded=0;whiteSpace=wrap;html=1;" parent="1" vertex="1">
          <mxGeometry x="900" y="328.5" width="30" height="30" as="geometry" />
        </mxCell>
        <mxCell id="WYwA7jNrKrz1sVTGzyhb-50" value="Functional Testing" style="text;html=1;align=center;verticalAlign=middle;whiteSpace=wrap;rounded=0;" parent="1" vertex="1">
          <mxGeometry x="910" y="268.5" width="110" height="50" as="geometry" />
        </mxCell>
        <mxCell id="WYwA7jNrKrz1sVTGzyhb-51" value="7" style="text;html=1;align=center;verticalAlign=middle;whiteSpace=wrap;rounded=0;" parent="1" vertex="1">
          <mxGeometry x="900" y="333.5" width="30" height="20" as="geometry" />
        </mxCell>
        <mxCell id="WYwA7jNrKrz1sVTGzyhb-52" value="&lt;font color=&quot;#3399ff&quot;&gt;&lt;b&gt;2&lt;/b&gt;&lt;/font&gt;" style="text;html=1;align=center;verticalAlign=middle;whiteSpace=wrap;rounded=0;strokeWidth=4;" parent="1" vertex="1">
          <mxGeometry x="1000" y="333.5" width="30" height="20" as="geometry" />
        </mxCell>
        <mxCell id="WYwA7jNrKrz1sVTGzyhb-342" style="edgeStyle=orthogonalEdgeStyle;rounded=0;orthogonalLoop=1;jettySize=auto;html=1;exitX=1;exitY=0.5;exitDx=0;exitDy=0;entryX=0;entryY=0.5;entryDx=0;entryDy=0;strokeWidth=2;strokeColor=#3399FF;" parent="1" source="WYwA7jNrKrz1sVTGzyhb-53" target="WYwA7jNrKrz1sVTGzyhb-60" edge="1">
          <mxGeometry relative="1" as="geometry" />
        </mxCell>
        <mxCell id="WYwA7jNrKrz1sVTGzyhb-53" value="" style="rounded=0;whiteSpace=wrap;html=1;" parent="1" vertex="1">
          <mxGeometry x="1160" y="262" width="130" height="96.5" as="geometry" />
        </mxCell>
        <mxCell id="WYwA7jNrKrz1sVTGzyhb-54" value="Josh" style="rounded=0;whiteSpace=wrap;html=1;" parent="1" vertex="1">
          <mxGeometry x="1160" y="328.5" width="130" height="30" as="geometry" />
        </mxCell>
        <mxCell id="WYwA7jNrKrz1sVTGzyhb-55" value="" style="rounded=0;whiteSpace=wrap;html=1;" parent="1" vertex="1">
          <mxGeometry x="1260" y="328.5" width="30" height="30" as="geometry" />
        </mxCell>
        <mxCell id="WYwA7jNrKrz1sVTGzyhb-56" value="" style="rounded=0;whiteSpace=wrap;html=1;" parent="1" vertex="1">
          <mxGeometry x="1160" y="328.5" width="30" height="30" as="geometry" />
        </mxCell>
        <mxCell id="WYwA7jNrKrz1sVTGzyhb-57" value="Cross-Platform Testing" style="text;html=1;align=center;verticalAlign=middle;whiteSpace=wrap;rounded=0;" parent="1" vertex="1">
          <mxGeometry x="1170" y="268.5" width="110" height="50" as="geometry" />
        </mxCell>
        <mxCell id="WYwA7jNrKrz1sVTGzyhb-58" value="8" style="text;html=1;align=center;verticalAlign=middle;whiteSpace=wrap;rounded=0;" parent="1" vertex="1">
          <mxGeometry x="1160" y="333.5" width="30" height="20" as="geometry" />
        </mxCell>
        <mxCell id="WYwA7jNrKrz1sVTGzyhb-59" value="&lt;font color=&quot;#3399ff&quot;&gt;&lt;b&gt;2&lt;/b&gt;&lt;/font&gt;" style="text;html=1;align=center;verticalAlign=middle;whiteSpace=wrap;rounded=0;strokeWidth=4;" parent="1" vertex="1">
          <mxGeometry x="1260" y="333.5" width="30" height="20" as="geometry" />
        </mxCell>
        <mxCell id="WYwA7jNrKrz1sVTGzyhb-385" style="edgeStyle=orthogonalEdgeStyle;rounded=0;orthogonalLoop=1;jettySize=auto;html=1;exitX=1;exitY=0.5;exitDx=0;exitDy=0;entryX=0;entryY=0.25;entryDx=0;entryDy=0;strokeWidth=2;strokeColor=#3399FF;" parent="1" source="WYwA7jNrKrz1sVTGzyhb-60" target="WYwA7jNrKrz1sVTGzyhb-102" edge="1">
          <mxGeometry relative="1" as="geometry" />
        </mxCell>
        <mxCell id="WYwA7jNrKrz1sVTGzyhb-60" value="" style="rounded=0;whiteSpace=wrap;html=1;" parent="1" vertex="1">
          <mxGeometry x="1430" y="262" width="130" height="96.5" as="geometry" />
        </mxCell>
        <mxCell id="WYwA7jNrKrz1sVTGzyhb-61" value="Liam" style="rounded=0;whiteSpace=wrap;html=1;" parent="1" vertex="1">
          <mxGeometry x="1430" y="328.5" width="130" height="30" as="geometry" />
        </mxCell>
        <mxCell id="WYwA7jNrKrz1sVTGzyhb-62" value="" style="rounded=0;whiteSpace=wrap;html=1;" parent="1" vertex="1">
          <mxGeometry x="1530" y="328.5" width="30" height="30" as="geometry" />
        </mxCell>
        <mxCell id="WYwA7jNrKrz1sVTGzyhb-63" value="" style="rounded=0;whiteSpace=wrap;html=1;" parent="1" vertex="1">
          <mxGeometry x="1430" y="328.5" width="30" height="30" as="geometry" />
        </mxCell>
        <mxCell id="WYwA7jNrKrz1sVTGzyhb-64" value="Bug Fixing &amp;amp; Validation" style="text;html=1;align=center;verticalAlign=middle;whiteSpace=wrap;rounded=0;" parent="1" vertex="1">
          <mxGeometry x="1440" y="268.5" width="110" height="50" as="geometry" />
        </mxCell>
        <mxCell id="WYwA7jNrKrz1sVTGzyhb-65" value="9" style="text;html=1;align=center;verticalAlign=middle;whiteSpace=wrap;rounded=0;" parent="1" vertex="1">
          <mxGeometry x="1430" y="333.5" width="30" height="20" as="geometry" />
        </mxCell>
        <mxCell id="WYwA7jNrKrz1sVTGzyhb-66" value="&lt;font color=&quot;#3399ff&quot;&gt;&lt;b&gt;2&lt;/b&gt;&lt;/font&gt;" style="text;html=1;align=center;verticalAlign=middle;whiteSpace=wrap;rounded=0;strokeWidth=4;" parent="1" vertex="1">
          <mxGeometry x="1530" y="333.5" width="30" height="20" as="geometry" />
        </mxCell>
        <mxCell id="WYwA7jNrKrz1sVTGzyhb-343" style="edgeStyle=orthogonalEdgeStyle;rounded=0;orthogonalLoop=1;jettySize=auto;html=1;exitX=1;exitY=0.5;exitDx=0;exitDy=0;entryX=0;entryY=0.5;entryDx=0;entryDy=0;strokeColor=#3399FF;strokeWidth=2;" parent="1" source="WYwA7jNrKrz1sVTGzyhb-67" target="WYwA7jNrKrz1sVTGzyhb-74" edge="1">
          <mxGeometry relative="1" as="geometry" />
        </mxCell>
        <mxCell id="WYwA7jNrKrz1sVTGzyhb-67" value="" style="rounded=0;whiteSpace=wrap;html=1;" parent="1" vertex="1">
          <mxGeometry x="420" y="440" width="130" height="96.5" as="geometry" />
        </mxCell>
        <mxCell id="WYwA7jNrKrz1sVTGzyhb-68" value="Shaquille" style="rounded=0;whiteSpace=wrap;html=1;" parent="1" vertex="1">
          <mxGeometry x="420" y="506.5" width="130" height="30" as="geometry" />
        </mxCell>
        <mxCell id="WYwA7jNrKrz1sVTGzyhb-69" value="" style="rounded=0;whiteSpace=wrap;html=1;" parent="1" vertex="1">
          <mxGeometry x="520" y="506.5" width="30" height="30" as="geometry" />
        </mxCell>
        <mxCell id="WYwA7jNrKrz1sVTGzyhb-70" value="" style="rounded=0;whiteSpace=wrap;html=1;" parent="1" vertex="1">
          <mxGeometry x="420" y="506.5" width="30" height="30" as="geometry" />
        </mxCell>
        <mxCell id="WYwA7jNrKrz1sVTGzyhb-71" value="Purchase Smart Meters" style="text;html=1;align=center;verticalAlign=middle;whiteSpace=wrap;rounded=0;" parent="1" vertex="1">
          <mxGeometry x="430" y="446.5" width="110" height="50" as="geometry" />
        </mxCell>
        <mxCell id="WYwA7jNrKrz1sVTGzyhb-72" value="10" style="text;html=1;align=center;verticalAlign=middle;whiteSpace=wrap;rounded=0;" parent="1" vertex="1">
          <mxGeometry x="420" y="511.5" width="30" height="20" as="geometry" />
        </mxCell>
        <mxCell id="WYwA7jNrKrz1sVTGzyhb-73" value="&lt;font color=&quot;#3399ff&quot;&gt;&lt;b&gt;2&lt;/b&gt;&lt;/font&gt;" style="text;html=1;align=center;verticalAlign=middle;whiteSpace=wrap;rounded=0;strokeWidth=4;" parent="1" vertex="1">
          <mxGeometry x="520" y="511.5" width="30" height="20" as="geometry" />
        </mxCell>
        <mxCell id="WYwA7jNrKrz1sVTGzyhb-344" style="edgeStyle=orthogonalEdgeStyle;rounded=0;orthogonalLoop=1;jettySize=auto;html=1;exitX=1;exitY=0.5;exitDx=0;exitDy=0;entryX=0;entryY=0.5;entryDx=0;entryDy=0;strokeWidth=2;strokeColor=#3399FF;" parent="1" source="WYwA7jNrKrz1sVTGzyhb-74" target="WYwA7jNrKrz1sVTGzyhb-81" edge="1">
          <mxGeometry relative="1" as="geometry" />
        </mxCell>
        <mxCell id="WYwA7jNrKrz1sVTGzyhb-74" value="" style="rounded=0;whiteSpace=wrap;html=1;" parent="1" vertex="1">
          <mxGeometry x="650" y="440" width="130" height="96.5" as="geometry" />
        </mxCell>
        <mxCell id="WYwA7jNrKrz1sVTGzyhb-75" value="Liam" style="rounded=0;whiteSpace=wrap;html=1;" parent="1" vertex="1">
          <mxGeometry x="650" y="506.5" width="130" height="30" as="geometry" />
        </mxCell>
        <mxCell id="WYwA7jNrKrz1sVTGzyhb-76" value="" style="rounded=0;whiteSpace=wrap;html=1;" parent="1" vertex="1">
          <mxGeometry x="750" y="506.5" width="30" height="30" as="geometry" />
        </mxCell>
        <mxCell id="WYwA7jNrKrz1sVTGzyhb-77" value="" style="rounded=0;whiteSpace=wrap;html=1;" parent="1" vertex="1">
          <mxGeometry x="650" y="506.5" width="30" height="30" as="geometry" />
        </mxCell>
        <mxCell id="WYwA7jNrKrz1sVTGzyhb-78" value="Install Smart Meters" style="text;html=1;align=center;verticalAlign=middle;whiteSpace=wrap;rounded=0;" parent="1" vertex="1">
          <mxGeometry x="660" y="446.5" width="110" height="50" as="geometry" />
        </mxCell>
        <mxCell id="WYwA7jNrKrz1sVTGzyhb-79" value="11" style="text;html=1;align=center;verticalAlign=middle;whiteSpace=wrap;rounded=0;" parent="1" vertex="1">
          <mxGeometry x="650" y="511.5" width="30" height="20" as="geometry" />
        </mxCell>
        <mxCell id="WYwA7jNrKrz1sVTGzyhb-80" value="&lt;font color=&quot;#3399ff&quot;&gt;&lt;b&gt;2&lt;/b&gt;&lt;/font&gt;" style="text;html=1;align=center;verticalAlign=middle;whiteSpace=wrap;rounded=0;strokeWidth=4;" parent="1" vertex="1">
          <mxGeometry x="750" y="511.5" width="30" height="20" as="geometry" />
        </mxCell>
        <mxCell id="WYwA7jNrKrz1sVTGzyhb-345" style="edgeStyle=orthogonalEdgeStyle;rounded=0;orthogonalLoop=1;jettySize=auto;html=1;exitX=1;exitY=0.5;exitDx=0;exitDy=0;entryX=0;entryY=0.5;entryDx=0;entryDy=0;strokeWidth=2;strokeColor=#3399FF;" parent="1" source="WYwA7jNrKrz1sVTGzyhb-81" target="WYwA7jNrKrz1sVTGzyhb-88" edge="1">
          <mxGeometry relative="1" as="geometry" />
        </mxCell>
        <mxCell id="WYwA7jNrKrz1sVTGzyhb-81" value="" style="rounded=0;whiteSpace=wrap;html=1;" parent="1" vertex="1">
          <mxGeometry x="900" y="440" width="130" height="96.5" as="geometry" />
        </mxCell>
        <mxCell id="WYwA7jNrKrz1sVTGzyhb-82" value="Josh" style="rounded=0;whiteSpace=wrap;html=1;" parent="1" vertex="1">
          <mxGeometry x="900" y="506.5" width="130" height="30" as="geometry" />
        </mxCell>
        <mxCell id="WYwA7jNrKrz1sVTGzyhb-83" value="" style="rounded=0;whiteSpace=wrap;html=1;" parent="1" vertex="1">
          <mxGeometry x="1000" y="506.5" width="30" height="30" as="geometry" />
        </mxCell>
        <mxCell id="WYwA7jNrKrz1sVTGzyhb-84" value="" style="rounded=0;whiteSpace=wrap;html=1;" parent="1" vertex="1">
          <mxGeometry x="900" y="506.5" width="30" height="30" as="geometry" />
        </mxCell>
        <mxCell id="WYwA7jNrKrz1sVTGzyhb-85" value="Test Meter Connectivity" style="text;html=1;align=center;verticalAlign=middle;whiteSpace=wrap;rounded=0;" parent="1" vertex="1">
          <mxGeometry x="910" y="446.5" width="110" height="50" as="geometry" />
        </mxCell>
        <mxCell id="WYwA7jNrKrz1sVTGzyhb-86" value="12" style="text;html=1;align=center;verticalAlign=middle;whiteSpace=wrap;rounded=0;" parent="1" vertex="1">
          <mxGeometry x="900" y="511.5" width="30" height="20" as="geometry" />
        </mxCell>
        <mxCell id="WYwA7jNrKrz1sVTGzyhb-87" value="&lt;font color=&quot;#3399ff&quot;&gt;&lt;b&gt;3&lt;/b&gt;&lt;/font&gt;" style="text;html=1;align=center;verticalAlign=middle;whiteSpace=wrap;rounded=0;strokeWidth=4;" parent="1" vertex="1">
          <mxGeometry x="1000" y="511.5" width="30" height="20" as="geometry" />
        </mxCell>
        <mxCell id="WYwA7jNrKrz1sVTGzyhb-346" style="edgeStyle=orthogonalEdgeStyle;rounded=0;orthogonalLoop=1;jettySize=auto;html=1;exitX=1;exitY=0.5;exitDx=0;exitDy=0;entryX=0;entryY=0.5;entryDx=0;entryDy=0;strokeWidth=2;strokeColor=#3399FF;" parent="1" source="WYwA7jNrKrz1sVTGzyhb-88" target="WYwA7jNrKrz1sVTGzyhb-95" edge="1">
          <mxGeometry relative="1" as="geometry" />
        </mxCell>
        <mxCell id="WYwA7jNrKrz1sVTGzyhb-88" value="" style="rounded=0;whiteSpace=wrap;html=1;" parent="1" vertex="1">
          <mxGeometry x="1160" y="440" width="130" height="96.5" as="geometry" />
        </mxCell>
        <mxCell id="WYwA7jNrKrz1sVTGzyhb-89" value="Shaquille" style="rounded=0;whiteSpace=wrap;html=1;" parent="1" vertex="1">
          <mxGeometry x="1160" y="506.5" width="130" height="30" as="geometry" />
        </mxCell>
        <mxCell id="WYwA7jNrKrz1sVTGzyhb-90" value="" style="rounded=0;whiteSpace=wrap;html=1;" parent="1" vertex="1">
          <mxGeometry x="1260" y="506.5" width="30" height="30" as="geometry" />
        </mxCell>
        <mxCell id="WYwA7jNrKrz1sVTGzyhb-91" value="" style="rounded=0;whiteSpace=wrap;html=1;" parent="1" vertex="1">
          <mxGeometry x="1160" y="506.5" width="30" height="30" as="geometry" />
        </mxCell>
        <mxCell id="WYwA7jNrKrz1sVTGzyhb-92" value="Firmware Syncing" style="text;html=1;align=center;verticalAlign=middle;whiteSpace=wrap;rounded=0;" parent="1" vertex="1">
          <mxGeometry x="1170" y="446.5" width="110" height="50" as="geometry" />
        </mxCell>
        <mxCell id="WYwA7jNrKrz1sVTGzyhb-93" value="13" style="text;html=1;align=center;verticalAlign=middle;whiteSpace=wrap;rounded=0;" parent="1" vertex="1">
          <mxGeometry x="1160" y="511.5" width="30" height="20" as="geometry" />
        </mxCell>
        <mxCell id="WYwA7jNrKrz1sVTGzyhb-94" value="&lt;font color=&quot;#3399ff&quot;&gt;&lt;b&gt;3&lt;/b&gt;&lt;/font&gt;" style="text;html=1;align=center;verticalAlign=middle;whiteSpace=wrap;rounded=0;strokeWidth=4;" parent="1" vertex="1">
          <mxGeometry x="1260" y="511.5" width="30" height="20" as="geometry" />
        </mxCell>
        <mxCell id="WYwA7jNrKrz1sVTGzyhb-347" style="edgeStyle=orthogonalEdgeStyle;rounded=0;orthogonalLoop=1;jettySize=auto;html=1;exitX=1;exitY=0.5;exitDx=0;exitDy=0;strokeWidth=2;strokeColor=#3399FF;" parent="1" source="WYwA7jNrKrz1sVTGzyhb-95" target="WYwA7jNrKrz1sVTGzyhb-102" edge="1">
          <mxGeometry relative="1" as="geometry" />
        </mxCell>
        <mxCell id="WYwA7jNrKrz1sVTGzyhb-95" value="" style="rounded=0;whiteSpace=wrap;html=1;" parent="1" vertex="1">
          <mxGeometry x="1430" y="440" width="130" height="96.5" as="geometry" />
        </mxCell>
        <mxCell id="WYwA7jNrKrz1sVTGzyhb-96" value="Liam" style="rounded=0;whiteSpace=wrap;html=1;" parent="1" vertex="1">
          <mxGeometry x="1430" y="506.5" width="130" height="30" as="geometry" />
        </mxCell>
        <mxCell id="WYwA7jNrKrz1sVTGzyhb-97" value="" style="rounded=0;whiteSpace=wrap;html=1;" parent="1" vertex="1">
          <mxGeometry x="1530" y="506.5" width="30" height="30" as="geometry" />
        </mxCell>
        <mxCell id="WYwA7jNrKrz1sVTGzyhb-98" value="" style="rounded=0;whiteSpace=wrap;html=1;" parent="1" vertex="1">
          <mxGeometry x="1430" y="506.5" width="30" height="30" as="geometry" />
        </mxCell>
        <mxCell id="WYwA7jNrKrz1sVTGzyhb-99" value="Data Transmission" style="text;html=1;align=center;verticalAlign=middle;whiteSpace=wrap;rounded=0;" parent="1" vertex="1">
          <mxGeometry x="1440" y="446.5" width="110" height="50" as="geometry" />
        </mxCell>
        <mxCell id="WYwA7jNrKrz1sVTGzyhb-100" value="14" style="text;html=1;align=center;verticalAlign=middle;whiteSpace=wrap;rounded=0;" parent="1" vertex="1">
          <mxGeometry x="1430" y="511.5" width="30" height="20" as="geometry" />
        </mxCell>
        <mxCell id="WYwA7jNrKrz1sVTGzyhb-101" value="&lt;font color=&quot;#3399ff&quot;&gt;&lt;b&gt;2&lt;/b&gt;&lt;/font&gt;" style="text;html=1;align=center;verticalAlign=middle;whiteSpace=wrap;rounded=0;strokeWidth=4;" parent="1" vertex="1">
          <mxGeometry x="1530" y="511.5" width="30" height="20" as="geometry" />
        </mxCell>
        <mxCell id="WYwA7jNrKrz1sVTGzyhb-348" style="edgeStyle=orthogonalEdgeStyle;rounded=0;orthogonalLoop=1;jettySize=auto;html=1;exitX=1;exitY=0.5;exitDx=0;exitDy=0;entryX=0;entryY=0.5;entryDx=0;entryDy=0;strokeWidth=2;strokeColor=#3399FF;" parent="1" source="WYwA7jNrKrz1sVTGzyhb-102" target="WYwA7jNrKrz1sVTGzyhb-109" edge="1">
          <mxGeometry relative="1" as="geometry" />
        </mxCell>
        <mxCell id="WYwA7jNrKrz1sVTGzyhb-349" style="edgeStyle=orthogonalEdgeStyle;rounded=0;orthogonalLoop=1;jettySize=auto;html=1;exitX=1;exitY=0.25;exitDx=0;exitDy=0;entryX=0;entryY=0.5;entryDx=0;entryDy=0;strokeWidth=2;strokeColor=#3399FF;" parent="1" source="WYwA7jNrKrz1sVTGzyhb-102" target="WYwA7jNrKrz1sVTGzyhb-130" edge="1">
          <mxGeometry relative="1" as="geometry" />
        </mxCell>
        <mxCell id="WYwA7jNrKrz1sVTGzyhb-102" value="" style="rounded=0;whiteSpace=wrap;html=1;" parent="1" vertex="1">
          <mxGeometry x="1690" y="440" width="130" height="96.5" as="geometry" />
        </mxCell>
        <mxCell id="WYwA7jNrKrz1sVTGzyhb-103" value="Yusuf" style="rounded=0;whiteSpace=wrap;html=1;" parent="1" vertex="1">
          <mxGeometry x="1690" y="506.5" width="130" height="30" as="geometry" />
        </mxCell>
        <mxCell id="WYwA7jNrKrz1sVTGzyhb-104" value="" style="rounded=0;whiteSpace=wrap;html=1;" parent="1" vertex="1">
          <mxGeometry x="1790" y="506.5" width="30" height="30" as="geometry" />
        </mxCell>
        <mxCell id="WYwA7jNrKrz1sVTGzyhb-105" value="" style="rounded=0;whiteSpace=wrap;html=1;" parent="1" vertex="1">
          <mxGeometry x="1690" y="506.5" width="30" height="30" as="geometry" />
        </mxCell>
        <mxCell id="WYwA7jNrKrz1sVTGzyhb-106" value="Error Detection System" style="text;html=1;align=center;verticalAlign=middle;whiteSpace=wrap;rounded=0;" parent="1" vertex="1">
          <mxGeometry x="1700" y="446.5" width="110" height="50" as="geometry" />
        </mxCell>
        <mxCell id="WYwA7jNrKrz1sVTGzyhb-107" value="15" style="text;html=1;align=center;verticalAlign=middle;whiteSpace=wrap;rounded=0;" parent="1" vertex="1">
          <mxGeometry x="1690" y="511.5" width="30" height="20" as="geometry" />
        </mxCell>
        <mxCell id="WYwA7jNrKrz1sVTGzyhb-108" value="&lt;font color=&quot;#3399ff&quot;&gt;&lt;b&gt;2&lt;/b&gt;&lt;/font&gt;" style="text;html=1;align=center;verticalAlign=middle;whiteSpace=wrap;rounded=0;strokeWidth=4;" parent="1" vertex="1">
          <mxGeometry x="1790" y="511.5" width="30" height="20" as="geometry" />
        </mxCell>
        <mxCell id="WYwA7jNrKrz1sVTGzyhb-350" style="edgeStyle=orthogonalEdgeStyle;rounded=0;orthogonalLoop=1;jettySize=auto;html=1;exitX=1;exitY=0.5;exitDx=0;exitDy=0;entryX=0;entryY=0.5;entryDx=0;entryDy=0;strokeWidth=2;strokeColor=#3399FF;" parent="1" source="WYwA7jNrKrz1sVTGzyhb-109" target="WYwA7jNrKrz1sVTGzyhb-116" edge="1">
          <mxGeometry relative="1" as="geometry" />
        </mxCell>
        <mxCell id="WYwA7jNrKrz1sVTGzyhb-109" value="" style="rounded=0;whiteSpace=wrap;html=1;" parent="1" vertex="1">
          <mxGeometry x="1900" y="506.5" width="130" height="96.5" as="geometry" />
        </mxCell>
        <mxCell id="WYwA7jNrKrz1sVTGzyhb-110" value="Josh" style="rounded=0;whiteSpace=wrap;html=1;" parent="1" vertex="1">
          <mxGeometry x="1900" y="573" width="130" height="30" as="geometry" />
        </mxCell>
        <mxCell id="WYwA7jNrKrz1sVTGzyhb-111" value="" style="rounded=0;whiteSpace=wrap;html=1;" parent="1" vertex="1">
          <mxGeometry x="2000" y="573" width="30" height="30" as="geometry" />
        </mxCell>
        <mxCell id="WYwA7jNrKrz1sVTGzyhb-112" value="" style="rounded=0;whiteSpace=wrap;html=1;" parent="1" vertex="1">
          <mxGeometry x="1900" y="573" width="30" height="30" as="geometry" />
        </mxCell>
        <mxCell id="WYwA7jNrKrz1sVTGzyhb-113" value="User Support Hotline Setup" style="text;html=1;align=center;verticalAlign=middle;whiteSpace=wrap;rounded=0;" parent="1" vertex="1">
          <mxGeometry x="1910" y="513" width="110" height="50" as="geometry" />
        </mxCell>
        <mxCell id="WYwA7jNrKrz1sVTGzyhb-114" value="16" style="text;html=1;align=center;verticalAlign=middle;whiteSpace=wrap;rounded=0;" parent="1" vertex="1">
          <mxGeometry x="1900" y="578" width="30" height="20" as="geometry" />
        </mxCell>
        <mxCell id="WYwA7jNrKrz1sVTGzyhb-115" value="&lt;font color=&quot;#3399ff&quot;&gt;&lt;b&gt;1&lt;/b&gt;&lt;/font&gt;" style="text;html=1;align=center;verticalAlign=middle;whiteSpace=wrap;rounded=0;strokeWidth=4;" parent="1" vertex="1">
          <mxGeometry x="2000" y="578" width="30" height="20" as="geometry" />
        </mxCell>
        <mxCell id="WYwA7jNrKrz1sVTGzyhb-351" style="edgeStyle=orthogonalEdgeStyle;rounded=0;orthogonalLoop=1;jettySize=auto;html=1;exitX=1;exitY=0.5;exitDx=0;exitDy=0;entryX=0;entryY=0.5;entryDx=0;entryDy=0;strokeWidth=2;strokeColor=#3399FF;" parent="1" source="WYwA7jNrKrz1sVTGzyhb-116" target="WYwA7jNrKrz1sVTGzyhb-123" edge="1">
          <mxGeometry relative="1" as="geometry" />
        </mxCell>
        <mxCell id="WYwA7jNrKrz1sVTGzyhb-116" value="" style="rounded=0;whiteSpace=wrap;html=1;" parent="1" vertex="1">
          <mxGeometry x="2130" y="506.5" width="130" height="96.5" as="geometry" />
        </mxCell>
        <mxCell id="WYwA7jNrKrz1sVTGzyhb-117" value="Liam" style="rounded=0;whiteSpace=wrap;html=1;" parent="1" vertex="1">
          <mxGeometry x="2130" y="573" width="130" height="30" as="geometry" />
        </mxCell>
        <mxCell id="WYwA7jNrKrz1sVTGzyhb-118" value="" style="rounded=0;whiteSpace=wrap;html=1;" parent="1" vertex="1">
          <mxGeometry x="2230" y="573" width="30" height="30" as="geometry" />
        </mxCell>
        <mxCell id="WYwA7jNrKrz1sVTGzyhb-119" value="" style="rounded=0;whiteSpace=wrap;html=1;" parent="1" vertex="1">
          <mxGeometry x="2130" y="573" width="30" height="30" as="geometry" />
        </mxCell>
        <mxCell id="WYwA7jNrKrz1sVTGzyhb-120" value="Training Materials" style="text;html=1;align=center;verticalAlign=middle;whiteSpace=wrap;rounded=0;" parent="1" vertex="1">
          <mxGeometry x="2140" y="513" width="110" height="50" as="geometry" />
        </mxCell>
        <mxCell id="WYwA7jNrKrz1sVTGzyhb-121" value="17" style="text;html=1;align=center;verticalAlign=middle;whiteSpace=wrap;rounded=0;" parent="1" vertex="1">
          <mxGeometry x="2130" y="578" width="30" height="20" as="geometry" />
        </mxCell>
        <mxCell id="WYwA7jNrKrz1sVTGzyhb-122" value="&lt;font color=&quot;#3399ff&quot;&gt;&lt;b&gt;1&lt;/b&gt;&lt;/font&gt;" style="text;html=1;align=center;verticalAlign=middle;whiteSpace=wrap;rounded=0;strokeWidth=4;" parent="1" vertex="1">
          <mxGeometry x="2230" y="578" width="30" height="20" as="geometry" />
        </mxCell>
        <mxCell id="WYwA7jNrKrz1sVTGzyhb-387" style="edgeStyle=orthogonalEdgeStyle;rounded=0;orthogonalLoop=1;jettySize=auto;html=1;exitX=1;exitY=0.5;exitDx=0;exitDy=0;entryX=0;entryY=0.25;entryDx=0;entryDy=0;strokeWidth=2;strokeColor=#3399FF;" parent="1" source="WYwA7jNrKrz1sVTGzyhb-123" target="WYwA7jNrKrz1sVTGzyhb-156" edge="1">
          <mxGeometry relative="1" as="geometry" />
        </mxCell>
        <mxCell id="WYwA7jNrKrz1sVTGzyhb-123" value="" style="rounded=0;whiteSpace=wrap;html=1;" parent="1" vertex="1">
          <mxGeometry x="2380" y="506.5" width="130" height="96.5" as="geometry" />
        </mxCell>
        <mxCell id="WYwA7jNrKrz1sVTGzyhb-124" value="Shaquille" style="rounded=0;whiteSpace=wrap;html=1;" parent="1" vertex="1">
          <mxGeometry x="2380" y="573" width="130" height="30" as="geometry" />
        </mxCell>
        <mxCell id="WYwA7jNrKrz1sVTGzyhb-125" value="" style="rounded=0;whiteSpace=wrap;html=1;" parent="1" vertex="1">
          <mxGeometry x="2480" y="573" width="30" height="30" as="geometry" />
        </mxCell>
        <mxCell id="WYwA7jNrKrz1sVTGzyhb-126" value="" style="rounded=0;whiteSpace=wrap;html=1;" parent="1" vertex="1">
          <mxGeometry x="2380" y="573" width="30" height="30" as="geometry" />
        </mxCell>
        <mxCell id="WYwA7jNrKrz1sVTGzyhb-127" value="Troubleshooting Guide" style="text;html=1;align=center;verticalAlign=middle;whiteSpace=wrap;rounded=0;" parent="1" vertex="1">
          <mxGeometry x="2390" y="513" width="110" height="50" as="geometry" />
        </mxCell>
        <mxCell id="WYwA7jNrKrz1sVTGzyhb-128" value="18" style="text;html=1;align=center;verticalAlign=middle;whiteSpace=wrap;rounded=0;" parent="1" vertex="1">
          <mxGeometry x="2380" y="578" width="30" height="20" as="geometry" />
        </mxCell>
        <mxCell id="WYwA7jNrKrz1sVTGzyhb-129" value="&lt;font color=&quot;#3399ff&quot;&gt;&lt;b&gt;1&lt;/b&gt;&lt;/font&gt;" style="text;html=1;align=center;verticalAlign=middle;whiteSpace=wrap;rounded=0;strokeWidth=4;" parent="1" vertex="1">
          <mxGeometry x="2480" y="578" width="30" height="20" as="geometry" />
        </mxCell>
        <mxCell id="WYwA7jNrKrz1sVTGzyhb-353" style="edgeStyle=orthogonalEdgeStyle;rounded=0;orthogonalLoop=1;jettySize=auto;html=1;exitX=1;exitY=0.5;exitDx=0;exitDy=0;entryX=0;entryY=0.5;entryDx=0;entryDy=0;strokeWidth=2;strokeColor=#3399FF;" parent="1" source="WYwA7jNrKrz1sVTGzyhb-130" target="WYwA7jNrKrz1sVTGzyhb-137" edge="1">
          <mxGeometry relative="1" as="geometry" />
        </mxCell>
        <mxCell id="WYwA7jNrKrz1sVTGzyhb-130" value="" style="rounded=0;whiteSpace=wrap;html=1;" parent="1" vertex="1">
          <mxGeometry x="1900" y="333.5" width="130" height="96.5" as="geometry" />
        </mxCell>
        <mxCell id="WYwA7jNrKrz1sVTGzyhb-131" value="Yusuf" style="rounded=0;whiteSpace=wrap;html=1;" parent="1" vertex="1">
          <mxGeometry x="1900" y="400" width="130" height="30" as="geometry" />
        </mxCell>
        <mxCell id="WYwA7jNrKrz1sVTGzyhb-132" value="" style="rounded=0;whiteSpace=wrap;html=1;" parent="1" vertex="1">
          <mxGeometry x="2000" y="400" width="30" height="30" as="geometry" />
        </mxCell>
        <mxCell id="WYwA7jNrKrz1sVTGzyhb-133" value="" style="rounded=0;whiteSpace=wrap;html=1;" parent="1" vertex="1">
          <mxGeometry x="1900" y="400" width="30" height="30" as="geometry" />
        </mxCell>
        <mxCell id="WYwA7jNrKrz1sVTGzyhb-134" value="App User Manual" style="text;html=1;align=center;verticalAlign=middle;whiteSpace=wrap;rounded=0;" parent="1" vertex="1">
          <mxGeometry x="1910" y="340" width="110" height="50" as="geometry" />
        </mxCell>
        <mxCell id="WYwA7jNrKrz1sVTGzyhb-135" value="19" style="text;html=1;align=center;verticalAlign=middle;whiteSpace=wrap;rounded=0;" parent="1" vertex="1">
          <mxGeometry x="1900" y="405" width="30" height="20" as="geometry" />
        </mxCell>
        <mxCell id="WYwA7jNrKrz1sVTGzyhb-136" value="&lt;font color=&quot;#3399ff&quot;&gt;&lt;b&gt;1&lt;/b&gt;&lt;/font&gt;" style="text;html=1;align=center;verticalAlign=middle;whiteSpace=wrap;rounded=0;strokeWidth=4;" parent="1" vertex="1">
          <mxGeometry x="2000" y="405" width="30" height="20" as="geometry" />
        </mxCell>
        <mxCell id="WYwA7jNrKrz1sVTGzyhb-354" style="edgeStyle=orthogonalEdgeStyle;rounded=0;orthogonalLoop=1;jettySize=auto;html=1;exitX=1;exitY=0.5;exitDx=0;exitDy=0;entryX=0;entryY=0.5;entryDx=0;entryDy=0;strokeWidth=2;strokeColor=#3399FF;" parent="1" source="WYwA7jNrKrz1sVTGzyhb-137" target="WYwA7jNrKrz1sVTGzyhb-144" edge="1">
          <mxGeometry relative="1" as="geometry" />
        </mxCell>
        <mxCell id="WYwA7jNrKrz1sVTGzyhb-137" value="" style="rounded=0;whiteSpace=wrap;html=1;" parent="1" vertex="1">
          <mxGeometry x="2130" y="333.5" width="130" height="96.5" as="geometry" />
        </mxCell>
        <mxCell id="WYwA7jNrKrz1sVTGzyhb-138" value="Josh" style="rounded=0;whiteSpace=wrap;html=1;" parent="1" vertex="1">
          <mxGeometry x="2130" y="400" width="130" height="30" as="geometry" />
        </mxCell>
        <mxCell id="WYwA7jNrKrz1sVTGzyhb-139" value="" style="rounded=0;whiteSpace=wrap;html=1;" parent="1" vertex="1">
          <mxGeometry x="2230" y="400" width="30" height="30" as="geometry" />
        </mxCell>
        <mxCell id="WYwA7jNrKrz1sVTGzyhb-140" value="" style="rounded=0;whiteSpace=wrap;html=1;" parent="1" vertex="1">
          <mxGeometry x="2130" y="400" width="30" height="30" as="geometry" />
        </mxCell>
        <mxCell id="WYwA7jNrKrz1sVTGzyhb-141" value="Video Tutorials" style="text;html=1;align=center;verticalAlign=middle;whiteSpace=wrap;rounded=0;" parent="1" vertex="1">
          <mxGeometry x="2140" y="340" width="110" height="50" as="geometry" />
        </mxCell>
        <mxCell id="WYwA7jNrKrz1sVTGzyhb-142" value="20" style="text;html=1;align=center;verticalAlign=middle;whiteSpace=wrap;rounded=0;" parent="1" vertex="1">
          <mxGeometry x="2130" y="405" width="30" height="20" as="geometry" />
        </mxCell>
        <mxCell id="WYwA7jNrKrz1sVTGzyhb-143" value="&lt;font color=&quot;#3399ff&quot;&gt;&lt;b&gt;2&lt;/b&gt;&lt;/font&gt;" style="text;html=1;align=center;verticalAlign=middle;whiteSpace=wrap;rounded=0;strokeWidth=4;" parent="1" vertex="1">
          <mxGeometry x="2230" y="405" width="30" height="20" as="geometry" />
        </mxCell>
        <mxCell id="WYwA7jNrKrz1sVTGzyhb-355" style="edgeStyle=orthogonalEdgeStyle;rounded=0;orthogonalLoop=1;jettySize=auto;html=1;exitX=1;exitY=0.5;exitDx=0;exitDy=0;entryX=0;entryY=0.5;entryDx=0;entryDy=0;strokeWidth=2;strokeColor=#3399FF;" parent="1" source="WYwA7jNrKrz1sVTGzyhb-144" target="WYwA7jNrKrz1sVTGzyhb-151" edge="1">
          <mxGeometry relative="1" as="geometry" />
        </mxCell>
        <mxCell id="WYwA7jNrKrz1sVTGzyhb-144" value="" style="rounded=0;whiteSpace=wrap;html=1;" parent="1" vertex="1">
          <mxGeometry x="2380" y="333.5" width="130" height="96.5" as="geometry" />
        </mxCell>
        <mxCell id="WYwA7jNrKrz1sVTGzyhb-145" value="Liam" style="rounded=0;whiteSpace=wrap;html=1;" parent="1" vertex="1">
          <mxGeometry x="2380" y="400" width="130" height="30" as="geometry" />
        </mxCell>
        <mxCell id="WYwA7jNrKrz1sVTGzyhb-146" value="" style="rounded=0;whiteSpace=wrap;html=1;" parent="1" vertex="1">
          <mxGeometry x="2480" y="400" width="30" height="30" as="geometry" />
        </mxCell>
        <mxCell id="WYwA7jNrKrz1sVTGzyhb-147" value="" style="rounded=0;whiteSpace=wrap;html=1;" parent="1" vertex="1">
          <mxGeometry x="2380" y="400" width="30" height="30" as="geometry" />
        </mxCell>
        <mxCell id="WYwA7jNrKrz1sVTGzyhb-148" value="FAQs &amp;amp; Support Docs" style="text;html=1;align=center;verticalAlign=middle;whiteSpace=wrap;rounded=0;" parent="1" vertex="1">
          <mxGeometry x="2390" y="340" width="110" height="50" as="geometry" />
        </mxCell>
        <mxCell id="WYwA7jNrKrz1sVTGzyhb-149" value="21" style="text;html=1;align=center;verticalAlign=middle;whiteSpace=wrap;rounded=0;" parent="1" vertex="1">
          <mxGeometry x="2380" y="405" width="30" height="20" as="geometry" />
        </mxCell>
        <mxCell id="WYwA7jNrKrz1sVTGzyhb-150" value="&lt;font color=&quot;#3399ff&quot;&gt;&lt;b&gt;1&lt;/b&gt;&lt;/font&gt;" style="text;html=1;align=center;verticalAlign=middle;whiteSpace=wrap;rounded=0;strokeWidth=4;" parent="1" vertex="1">
          <mxGeometry x="2480" y="405" width="30" height="20" as="geometry" />
        </mxCell>
        <mxCell id="WYwA7jNrKrz1sVTGzyhb-356" style="edgeStyle=orthogonalEdgeStyle;rounded=0;orthogonalLoop=1;jettySize=auto;html=1;exitX=1;exitY=0.5;exitDx=0;exitDy=0;entryX=0;entryY=0.5;entryDx=0;entryDy=0;strokeWidth=2;strokeColor=#3399FF;" parent="1" source="WYwA7jNrKrz1sVTGzyhb-151" target="WYwA7jNrKrz1sVTGzyhb-158" edge="1">
          <mxGeometry relative="1" as="geometry" />
        </mxCell>
        <mxCell id="WYwA7jNrKrz1sVTGzyhb-151" value="" style="rounded=0;whiteSpace=wrap;html=1;" parent="1" vertex="1">
          <mxGeometry x="2640" y="333.5" width="130" height="96.5" as="geometry" />
        </mxCell>
        <mxCell id="WYwA7jNrKrz1sVTGzyhb-152" value="Shaquille" style="rounded=0;whiteSpace=wrap;html=1;" parent="1" vertex="1">
          <mxGeometry x="2640" y="400" width="130" height="30" as="geometry" />
        </mxCell>
        <mxCell id="WYwA7jNrKrz1sVTGzyhb-153" value="" style="rounded=0;whiteSpace=wrap;html=1;" parent="1" vertex="1">
          <mxGeometry x="2740" y="400" width="30" height="30" as="geometry" />
        </mxCell>
        <mxCell id="WYwA7jNrKrz1sVTGzyhb-154" value="" style="rounded=0;whiteSpace=wrap;html=1;" parent="1" vertex="1">
          <mxGeometry x="2640" y="400" width="30" height="30" as="geometry" />
        </mxCell>
        <mxCell id="WYwA7jNrKrz1sVTGzyhb-155" value="Venue Booking" style="text;html=1;align=center;verticalAlign=middle;whiteSpace=wrap;rounded=0;" parent="1" vertex="1">
          <mxGeometry x="2650" y="340" width="110" height="50" as="geometry" />
        </mxCell>
        <mxCell id="WYwA7jNrKrz1sVTGzyhb-156" value="22" style="text;html=1;align=center;verticalAlign=middle;whiteSpace=wrap;rounded=0;" parent="1" vertex="1">
          <mxGeometry x="2640" y="405" width="30" height="20" as="geometry" />
        </mxCell>
        <mxCell id="WYwA7jNrKrz1sVTGzyhb-157" value="&lt;font color=&quot;#3399ff&quot;&gt;&lt;b&gt;1&lt;/b&gt;&lt;/font&gt;" style="text;html=1;align=center;verticalAlign=middle;whiteSpace=wrap;rounded=0;strokeWidth=4;" parent="1" vertex="1">
          <mxGeometry x="2740" y="405" width="30" height="20" as="geometry" />
        </mxCell>
        <mxCell id="WYwA7jNrKrz1sVTGzyhb-357" style="edgeStyle=orthogonalEdgeStyle;rounded=0;orthogonalLoop=1;jettySize=auto;html=1;exitX=1;exitY=0.5;exitDx=0;exitDy=0;entryX=0;entryY=0.5;entryDx=0;entryDy=0;strokeWidth=2;strokeColor=#3399FF;" parent="1" source="WYwA7jNrKrz1sVTGzyhb-158" target="WYwA7jNrKrz1sVTGzyhb-165" edge="1">
          <mxGeometry relative="1" as="geometry" />
        </mxCell>
        <mxCell id="WYwA7jNrKrz1sVTGzyhb-158" value="" style="rounded=0;whiteSpace=wrap;html=1;" parent="1" vertex="1">
          <mxGeometry x="2895" y="333.5" width="130" height="96.5" as="geometry" />
        </mxCell>
        <mxCell id="WYwA7jNrKrz1sVTGzyhb-159" value="Yusuf" style="rounded=0;whiteSpace=wrap;html=1;" parent="1" vertex="1">
          <mxGeometry x="2895" y="400" width="130" height="30" as="geometry" />
        </mxCell>
        <mxCell id="WYwA7jNrKrz1sVTGzyhb-160" value="" style="rounded=0;whiteSpace=wrap;html=1;" parent="1" vertex="1">
          <mxGeometry x="2995" y="400" width="30" height="30" as="geometry" />
        </mxCell>
        <mxCell id="WYwA7jNrKrz1sVTGzyhb-161" value="" style="rounded=0;whiteSpace=wrap;html=1;" parent="1" vertex="1">
          <mxGeometry x="2895" y="400" width="30" height="30" as="geometry" />
        </mxCell>
        <mxCell id="WYwA7jNrKrz1sVTGzyhb-162" value="Flyers &amp;amp; Posters" style="text;html=1;align=center;verticalAlign=middle;whiteSpace=wrap;rounded=0;" parent="1" vertex="1">
          <mxGeometry x="2905" y="340" width="110" height="50" as="geometry" />
        </mxCell>
        <mxCell id="WYwA7jNrKrz1sVTGzyhb-163" value="23" style="text;html=1;align=center;verticalAlign=middle;whiteSpace=wrap;rounded=0;" parent="1" vertex="1">
          <mxGeometry x="2895" y="405" width="30" height="20" as="geometry" />
        </mxCell>
        <mxCell id="WYwA7jNrKrz1sVTGzyhb-164" value="&lt;font color=&quot;#3399ff&quot;&gt;&lt;b&gt;1&lt;/b&gt;&lt;/font&gt;" style="text;html=1;align=center;verticalAlign=middle;whiteSpace=wrap;rounded=0;strokeWidth=4;" parent="1" vertex="1">
          <mxGeometry x="2995" y="405" width="30" height="20" as="geometry" />
        </mxCell>
        <mxCell id="WYwA7jNrKrz1sVTGzyhb-358" style="edgeStyle=orthogonalEdgeStyle;rounded=0;orthogonalLoop=1;jettySize=auto;html=1;exitX=1;exitY=0.5;exitDx=0;exitDy=0;entryX=0;entryY=0.5;entryDx=0;entryDy=0;strokeWidth=2;strokeColor=#3399FF;" parent="1" source="WYwA7jNrKrz1sVTGzyhb-165" target="WYwA7jNrKrz1sVTGzyhb-179" edge="1">
          <mxGeometry relative="1" as="geometry" />
        </mxCell>
        <mxCell id="WYwA7jNrKrz1sVTGzyhb-359" style="edgeStyle=orthogonalEdgeStyle;rounded=0;orthogonalLoop=1;jettySize=auto;html=1;exitX=1;exitY=0.25;exitDx=0;exitDy=0;entryX=0;entryY=0.5;entryDx=0;entryDy=0;strokeWidth=2;strokeColor=#3399FF;" parent="1" source="WYwA7jNrKrz1sVTGzyhb-165" target="WYwA7jNrKrz1sVTGzyhb-172" edge="1">
          <mxGeometry relative="1" as="geometry" />
        </mxCell>
        <mxCell id="WYwA7jNrKrz1sVTGzyhb-165" value="" style="rounded=0;whiteSpace=wrap;html=1;" parent="1" vertex="1">
          <mxGeometry x="3170" y="333.5" width="130" height="96.5" as="geometry" />
        </mxCell>
        <mxCell id="WYwA7jNrKrz1sVTGzyhb-166" value="Josh" style="rounded=0;whiteSpace=wrap;html=1;" parent="1" vertex="1">
          <mxGeometry x="3170" y="400" width="130" height="30" as="geometry" />
        </mxCell>
        <mxCell id="WYwA7jNrKrz1sVTGzyhb-167" value="" style="rounded=0;whiteSpace=wrap;html=1;" parent="1" vertex="1">
          <mxGeometry x="3270" y="400" width="30" height="30" as="geometry" />
        </mxCell>
        <mxCell id="WYwA7jNrKrz1sVTGzyhb-168" value="" style="rounded=0;whiteSpace=wrap;html=1;" parent="1" vertex="1">
          <mxGeometry x="3170" y="400" width="30" height="30" as="geometry" />
        </mxCell>
        <mxCell id="WYwA7jNrKrz1sVTGzyhb-169" value="Community Walkthroughs" style="text;html=1;align=center;verticalAlign=middle;whiteSpace=wrap;rounded=0;" parent="1" vertex="1">
          <mxGeometry x="3180" y="340" width="110" height="50" as="geometry" />
        </mxCell>
        <mxCell id="WYwA7jNrKrz1sVTGzyhb-170" value="24" style="text;html=1;align=center;verticalAlign=middle;whiteSpace=wrap;rounded=0;" parent="1" vertex="1">
          <mxGeometry x="3170" y="405" width="30" height="20" as="geometry" />
        </mxCell>
        <mxCell id="WYwA7jNrKrz1sVTGzyhb-360" style="edgeStyle=orthogonalEdgeStyle;rounded=0;orthogonalLoop=1;jettySize=auto;html=1;exitX=1;exitY=0;exitDx=0;exitDy=0;entryX=0;entryY=0.5;entryDx=0;entryDy=0;strokeWidth=2;strokeColor=#3399FF;" parent="1" source="WYwA7jNrKrz1sVTGzyhb-171" target="WYwA7jNrKrz1sVTGzyhb-186" edge="1">
          <mxGeometry relative="1" as="geometry">
            <Array as="points">
              <mxPoint x="3300" y="400" />
              <mxPoint x="3340" y="400" />
              <mxPoint x="3340" y="568" />
            </Array>
          </mxGeometry>
        </mxCell>
        <mxCell id="WYwA7jNrKrz1sVTGzyhb-171" value="&lt;font color=&quot;#3399ff&quot;&gt;&lt;b&gt;1&lt;/b&gt;&lt;/font&gt;" style="text;html=1;align=center;verticalAlign=middle;whiteSpace=wrap;rounded=0;strokeWidth=4;" parent="1" vertex="1">
          <mxGeometry x="3270" y="405" width="30" height="20" as="geometry" />
        </mxCell>
        <mxCell id="WYwA7jNrKrz1sVTGzyhb-172" value="" style="rounded=0;whiteSpace=wrap;html=1;" parent="1" vertex="1">
          <mxGeometry x="3380" y="160" width="130" height="96.5" as="geometry" />
        </mxCell>
        <mxCell id="WYwA7jNrKrz1sVTGzyhb-173" value="Liam" style="rounded=0;whiteSpace=wrap;html=1;" parent="1" vertex="1">
          <mxGeometry x="3380" y="226.5" width="130" height="30" as="geometry" />
        </mxCell>
        <mxCell id="WYwA7jNrKrz1sVTGzyhb-174" value="" style="rounded=0;whiteSpace=wrap;html=1;" parent="1" vertex="1">
          <mxGeometry x="3480" y="226.5" width="30" height="30" as="geometry" />
        </mxCell>
        <mxCell id="WYwA7jNrKrz1sVTGzyhb-175" value="" style="rounded=0;whiteSpace=wrap;html=1;" parent="1" vertex="1">
          <mxGeometry x="3380" y="226.5" width="30" height="30" as="geometry" />
        </mxCell>
        <mxCell id="WYwA7jNrKrz1sVTGzyhb-176" value="Conduct Surveys" style="text;html=1;align=center;verticalAlign=middle;whiteSpace=wrap;rounded=0;" parent="1" vertex="1">
          <mxGeometry x="3390" y="166.5" width="110" height="50" as="geometry" />
        </mxCell>
        <mxCell id="WYwA7jNrKrz1sVTGzyhb-177" value="25" style="text;html=1;align=center;verticalAlign=middle;whiteSpace=wrap;rounded=0;" parent="1" vertex="1">
          <mxGeometry x="3380" y="231.5" width="30" height="20" as="geometry" />
        </mxCell>
        <mxCell id="WYwA7jNrKrz1sVTGzyhb-178" value="&lt;font color=&quot;#3399ff&quot;&gt;&lt;b&gt;1&lt;/b&gt;&lt;/font&gt;" style="text;html=1;align=center;verticalAlign=middle;whiteSpace=wrap;rounded=0;strokeWidth=4;" parent="1" vertex="1">
          <mxGeometry x="3480" y="231.5" width="30" height="20" as="geometry" />
        </mxCell>
        <mxCell id="WYwA7jNrKrz1sVTGzyhb-364" style="edgeStyle=orthogonalEdgeStyle;rounded=0;orthogonalLoop=1;jettySize=auto;html=1;exitX=1;exitY=0.5;exitDx=0;exitDy=0;entryX=0;entryY=0.5;entryDx=0;entryDy=0;strokeWidth=2;strokeColor=#3399FF;" parent="1" source="WYwA7jNrKrz1sVTGzyhb-179" target="WYwA7jNrKrz1sVTGzyhb-193" edge="1">
          <mxGeometry relative="1" as="geometry" />
        </mxCell>
        <mxCell id="WYwA7jNrKrz1sVTGzyhb-179" value="" style="rounded=0;whiteSpace=wrap;html=1;" parent="1" vertex="1">
          <mxGeometry x="3380" y="333.5" width="130" height="96.5" as="geometry" />
        </mxCell>
        <mxCell id="WYwA7jNrKrz1sVTGzyhb-180" value="Yusuf" style="rounded=0;whiteSpace=wrap;html=1;" parent="1" vertex="1">
          <mxGeometry x="3380" y="400" width="130" height="30" as="geometry" />
        </mxCell>
        <mxCell id="WYwA7jNrKrz1sVTGzyhb-181" value="" style="rounded=0;whiteSpace=wrap;html=1;" parent="1" vertex="1">
          <mxGeometry x="3480" y="400" width="30" height="30" as="geometry" />
        </mxCell>
        <mxCell id="WYwA7jNrKrz1sVTGzyhb-182" value="" style="rounded=0;whiteSpace=wrap;html=1;" parent="1" vertex="1">
          <mxGeometry x="3380" y="400" width="30" height="30" as="geometry" />
        </mxCell>
        <mxCell id="WYwA7jNrKrz1sVTGzyhb-183" value="Data Compilation" style="text;html=1;align=center;verticalAlign=middle;whiteSpace=wrap;rounded=0;" parent="1" vertex="1">
          <mxGeometry x="3390" y="340" width="110" height="50" as="geometry" />
        </mxCell>
        <mxCell id="WYwA7jNrKrz1sVTGzyhb-184" value="26" style="text;html=1;align=center;verticalAlign=middle;whiteSpace=wrap;rounded=0;" parent="1" vertex="1">
          <mxGeometry x="3380" y="405" width="30" height="20" as="geometry" />
        </mxCell>
        <mxCell id="WYwA7jNrKrz1sVTGzyhb-185" value="&lt;font color=&quot;#3399ff&quot;&gt;&lt;b&gt;1&lt;/b&gt;&lt;/font&gt;" style="text;html=1;align=center;verticalAlign=middle;whiteSpace=wrap;rounded=0;strokeWidth=4;" parent="1" vertex="1">
          <mxGeometry x="3480" y="405" width="30" height="20" as="geometry" />
        </mxCell>
        <mxCell id="WYwA7jNrKrz1sVTGzyhb-366" style="edgeStyle=orthogonalEdgeStyle;rounded=0;orthogonalLoop=1;jettySize=auto;html=1;exitX=1;exitY=0.5;exitDx=0;exitDy=0;entryX=0;entryY=0;entryDx=0;entryDy=0;strokeWidth=2;strokeColor=#3399FF;" parent="1" source="WYwA7jNrKrz1sVTGzyhb-186" target="WYwA7jNrKrz1sVTGzyhb-196" edge="1">
          <mxGeometry relative="1" as="geometry">
            <Array as="points">
              <mxPoint x="3565" y="568" />
              <mxPoint x="3565" y="400" />
            </Array>
          </mxGeometry>
        </mxCell>
        <mxCell id="WYwA7jNrKrz1sVTGzyhb-186" value="" style="rounded=0;whiteSpace=wrap;html=1;" parent="1" vertex="1">
          <mxGeometry x="3380" y="520" width="130" height="96.5" as="geometry" />
        </mxCell>
        <mxCell id="WYwA7jNrKrz1sVTGzyhb-187" value="Shaquille" style="rounded=0;whiteSpace=wrap;html=1;" parent="1" vertex="1">
          <mxGeometry x="3380" y="586.5" width="130" height="30" as="geometry" />
        </mxCell>
        <mxCell id="WYwA7jNrKrz1sVTGzyhb-188" value="" style="rounded=0;whiteSpace=wrap;html=1;" parent="1" vertex="1">
          <mxGeometry x="3480" y="586.5" width="30" height="30" as="geometry" />
        </mxCell>
        <mxCell id="WYwA7jNrKrz1sVTGzyhb-189" value="" style="rounded=0;whiteSpace=wrap;html=1;" parent="1" vertex="1">
          <mxGeometry x="3380" y="586.5" width="30" height="30" as="geometry" />
        </mxCell>
        <mxCell id="WYwA7jNrKrz1sVTGzyhb-190" value="Adjustment Recommendations" style="text;html=1;align=center;verticalAlign=middle;whiteSpace=wrap;rounded=0;" parent="1" vertex="1">
          <mxGeometry x="3390" y="526.5" width="110" height="50" as="geometry" />
        </mxCell>
        <mxCell id="WYwA7jNrKrz1sVTGzyhb-191" value="27" style="text;html=1;align=center;verticalAlign=middle;whiteSpace=wrap;rounded=0;" parent="1" vertex="1">
          <mxGeometry x="3380" y="591.5" width="30" height="20" as="geometry" />
        </mxCell>
        <mxCell id="WYwA7jNrKrz1sVTGzyhb-192" value="&lt;font color=&quot;#3399ff&quot;&gt;&lt;b&gt;1&lt;/b&gt;&lt;/font&gt;" style="text;html=1;align=center;verticalAlign=middle;whiteSpace=wrap;rounded=0;strokeWidth=4;" parent="1" vertex="1">
          <mxGeometry x="3480" y="591.5" width="30" height="20" as="geometry" />
        </mxCell>
        <mxCell id="WYwA7jNrKrz1sVTGzyhb-193" value="" style="rounded=0;whiteSpace=wrap;html=1;" parent="1" vertex="1">
          <mxGeometry x="3620" y="333.5" width="130" height="96.5" as="geometry" />
        </mxCell>
        <mxCell id="WYwA7jNrKrz1sVTGzyhb-194" value="Josh" style="rounded=0;whiteSpace=wrap;html=1;" parent="1" vertex="1">
          <mxGeometry x="3620" y="400" width="130" height="30" as="geometry" />
        </mxCell>
        <mxCell id="WYwA7jNrKrz1sVTGzyhb-195" value="" style="rounded=0;whiteSpace=wrap;html=1;" parent="1" vertex="1">
          <mxGeometry x="3720" y="400" width="30" height="30" as="geometry" />
        </mxCell>
        <mxCell id="WYwA7jNrKrz1sVTGzyhb-196" value="" style="rounded=0;whiteSpace=wrap;html=1;" parent="1" vertex="1">
          <mxGeometry x="3620" y="400" width="30" height="30" as="geometry" />
        </mxCell>
        <mxCell id="WYwA7jNrKrz1sVTGzyhb-197" value="Select Test Area" style="text;html=1;align=center;verticalAlign=middle;whiteSpace=wrap;rounded=0;" parent="1" vertex="1">
          <mxGeometry x="3630" y="340" width="110" height="50" as="geometry" />
        </mxCell>
        <mxCell id="WYwA7jNrKrz1sVTGzyhb-198" value="28" style="text;html=1;align=center;verticalAlign=middle;whiteSpace=wrap;rounded=0;" parent="1" vertex="1">
          <mxGeometry x="3620" y="405" width="30" height="20" as="geometry" />
        </mxCell>
        <mxCell id="WYwA7jNrKrz1sVTGzyhb-199" value="&lt;font color=&quot;#3399ff&quot;&gt;&lt;b&gt;1&lt;/b&gt;&lt;/font&gt;" style="text;html=1;align=center;verticalAlign=middle;whiteSpace=wrap;rounded=0;strokeWidth=4;" parent="1" vertex="1">
          <mxGeometry x="3720" y="405" width="30" height="20" as="geometry" />
        </mxCell>
        <mxCell id="WYwA7jNrKrz1sVTGzyhb-369" style="edgeStyle=orthogonalEdgeStyle;rounded=0;orthogonalLoop=1;jettySize=auto;html=1;exitX=1;exitY=0.5;exitDx=0;exitDy=0;entryX=0;entryY=0.5;entryDx=0;entryDy=0;strokeWidth=2;strokeColor=#3399FF;" parent="1" source="WYwA7jNrKrz1sVTGzyhb-200" target="WYwA7jNrKrz1sVTGzyhb-207" edge="1">
          <mxGeometry relative="1" as="geometry" />
        </mxCell>
        <mxCell id="WYwA7jNrKrz1sVTGzyhb-200" value="" style="rounded=0;whiteSpace=wrap;html=1;" parent="1" vertex="1">
          <mxGeometry x="3860" y="333.5" width="130" height="96.5" as="geometry" />
        </mxCell>
        <mxCell id="WYwA7jNrKrz1sVTGzyhb-201" value="Liam" style="rounded=0;whiteSpace=wrap;html=1;" parent="1" vertex="1">
          <mxGeometry x="3860" y="400" width="130" height="30" as="geometry" />
        </mxCell>
        <mxCell id="WYwA7jNrKrz1sVTGzyhb-202" value="" style="rounded=0;whiteSpace=wrap;html=1;" parent="1" vertex="1">
          <mxGeometry x="3960" y="400" width="30" height="30" as="geometry" />
        </mxCell>
        <mxCell id="WYwA7jNrKrz1sVTGzyhb-203" value="" style="rounded=0;whiteSpace=wrap;html=1;" parent="1" vertex="1">
          <mxGeometry x="3860" y="400" width="30" height="30" as="geometry" />
        </mxCell>
        <mxCell id="WYwA7jNrKrz1sVTGzyhb-204" value="Configure Test Devices" style="text;html=1;align=center;verticalAlign=middle;whiteSpace=wrap;rounded=0;" parent="1" vertex="1">
          <mxGeometry x="3870" y="340" width="110" height="50" as="geometry" />
        </mxCell>
        <mxCell id="WYwA7jNrKrz1sVTGzyhb-205" value="29" style="text;html=1;align=center;verticalAlign=middle;whiteSpace=wrap;rounded=0;" parent="1" vertex="1">
          <mxGeometry x="3860" y="405" width="30" height="20" as="geometry" />
        </mxCell>
        <mxCell id="WYwA7jNrKrz1sVTGzyhb-206" value="&lt;font color=&quot;#3399ff&quot;&gt;&lt;b&gt;1&lt;/b&gt;&lt;/font&gt;" style="text;html=1;align=center;verticalAlign=middle;whiteSpace=wrap;rounded=0;strokeWidth=4;" parent="1" vertex="1">
          <mxGeometry x="3960" y="405" width="30" height="20" as="geometry" />
        </mxCell>
        <mxCell id="WYwA7jNrKrz1sVTGzyhb-370" style="edgeStyle=orthogonalEdgeStyle;rounded=0;orthogonalLoop=1;jettySize=auto;html=1;exitX=1;exitY=0.5;exitDx=0;exitDy=0;entryX=0;entryY=0.5;entryDx=0;entryDy=0;strokeWidth=2;strokeColor=#3399FF;" parent="1" source="WYwA7jNrKrz1sVTGzyhb-207" target="WYwA7jNrKrz1sVTGzyhb-214" edge="1">
          <mxGeometry relative="1" as="geometry" />
        </mxCell>
        <mxCell id="WYwA7jNrKrz1sVTGzyhb-207" value="" style="rounded=0;whiteSpace=wrap;html=1;" parent="1" vertex="1">
          <mxGeometry x="4100" y="333.5" width="130" height="96.5" as="geometry" />
        </mxCell>
        <mxCell id="WYwA7jNrKrz1sVTGzyhb-208" value="Shaquille" style="rounded=0;whiteSpace=wrap;html=1;" parent="1" vertex="1">
          <mxGeometry x="4100" y="400" width="130" height="30" as="geometry" />
        </mxCell>
        <mxCell id="WYwA7jNrKrz1sVTGzyhb-209" value="" style="rounded=0;whiteSpace=wrap;html=1;" parent="1" vertex="1">
          <mxGeometry x="4200" y="400" width="30" height="30" as="geometry" />
        </mxCell>
        <mxCell id="WYwA7jNrKrz1sVTGzyhb-210" value="" style="rounded=0;whiteSpace=wrap;html=1;" parent="1" vertex="1">
          <mxGeometry x="4100" y="400" width="30" height="30" as="geometry" />
        </mxCell>
        <mxCell id="WYwA7jNrKrz1sVTGzyhb-211" value="Monitor Live Usage" style="text;html=1;align=center;verticalAlign=middle;whiteSpace=wrap;rounded=0;" parent="1" vertex="1">
          <mxGeometry x="4110" y="340" width="110" height="50" as="geometry" />
        </mxCell>
        <mxCell id="WYwA7jNrKrz1sVTGzyhb-212" value="30" style="text;html=1;align=center;verticalAlign=middle;whiteSpace=wrap;rounded=0;" parent="1" vertex="1">
          <mxGeometry x="4100" y="405" width="30" height="20" as="geometry" />
        </mxCell>
        <mxCell id="WYwA7jNrKrz1sVTGzyhb-213" value="&lt;font color=&quot;#3399ff&quot;&gt;&lt;b&gt;1&lt;/b&gt;&lt;/font&gt;" style="text;html=1;align=center;verticalAlign=middle;whiteSpace=wrap;rounded=0;strokeWidth=4;" parent="1" vertex="1">
          <mxGeometry x="4200" y="405" width="30" height="20" as="geometry" />
        </mxCell>
        <mxCell id="WYwA7jNrKrz1sVTGzyhb-371" style="edgeStyle=orthogonalEdgeStyle;rounded=0;orthogonalLoop=1;jettySize=auto;html=1;exitX=1;exitY=0.5;exitDx=0;exitDy=0;entryX=0;entryY=0.5;entryDx=0;entryDy=0;strokeWidth=2;strokeColor=#3399FF;" parent="1" source="WYwA7jNrKrz1sVTGzyhb-214" target="WYwA7jNrKrz1sVTGzyhb-221" edge="1">
          <mxGeometry relative="1" as="geometry" />
        </mxCell>
        <mxCell id="WYwA7jNrKrz1sVTGzyhb-214" value="" style="rounded=0;whiteSpace=wrap;html=1;" parent="1" vertex="1">
          <mxGeometry x="4340" y="333.5" width="130" height="96.5" as="geometry" />
        </mxCell>
        <mxCell id="WYwA7jNrKrz1sVTGzyhb-215" value="Liam" style="rounded=0;whiteSpace=wrap;html=1;" parent="1" vertex="1">
          <mxGeometry x="4340" y="400" width="130" height="30" as="geometry" />
        </mxCell>
        <mxCell id="WYwA7jNrKrz1sVTGzyhb-216" value="" style="rounded=0;whiteSpace=wrap;html=1;" parent="1" vertex="1">
          <mxGeometry x="4440" y="400" width="30" height="30" as="geometry" />
        </mxCell>
        <mxCell id="WYwA7jNrKrz1sVTGzyhb-217" value="" style="rounded=0;whiteSpace=wrap;html=1;" parent="1" vertex="1">
          <mxGeometry x="4340" y="400" width="30" height="30" as="geometry" />
        </mxCell>
        <mxCell id="WYwA7jNrKrz1sVTGzyhb-218" value="Bug Logging&amp;nbsp;" style="text;html=1;align=center;verticalAlign=middle;whiteSpace=wrap;rounded=0;" parent="1" vertex="1">
          <mxGeometry x="4350" y="340" width="110" height="50" as="geometry" />
        </mxCell>
        <mxCell id="WYwA7jNrKrz1sVTGzyhb-219" value="31" style="text;html=1;align=center;verticalAlign=middle;whiteSpace=wrap;rounded=0;" parent="1" vertex="1">
          <mxGeometry x="4340" y="405" width="30" height="20" as="geometry" />
        </mxCell>
        <mxCell id="WYwA7jNrKrz1sVTGzyhb-220" value="&lt;font color=&quot;#3399ff&quot;&gt;&lt;b&gt;1&lt;/b&gt;&lt;/font&gt;" style="text;html=1;align=center;verticalAlign=middle;whiteSpace=wrap;rounded=0;strokeWidth=4;" parent="1" vertex="1">
          <mxGeometry x="4440" y="405" width="30" height="20" as="geometry" />
        </mxCell>
        <mxCell id="WYwA7jNrKrz1sVTGzyhb-372" style="edgeStyle=orthogonalEdgeStyle;rounded=0;orthogonalLoop=1;jettySize=auto;html=1;exitX=1;exitY=0.5;exitDx=0;exitDy=0;entryX=0;entryY=0.5;entryDx=0;entryDy=0;strokeWidth=2;strokeColor=#3399FF;" parent="1" source="WYwA7jNrKrz1sVTGzyhb-221" target="WYwA7jNrKrz1sVTGzyhb-249" edge="1">
          <mxGeometry relative="1" as="geometry" />
        </mxCell>
        <mxCell id="WYwA7jNrKrz1sVTGzyhb-221" value="" style="rounded=0;whiteSpace=wrap;html=1;" parent="1" vertex="1">
          <mxGeometry x="4580" y="333.5" width="130" height="96.5" as="geometry" />
        </mxCell>
        <mxCell id="WYwA7jNrKrz1sVTGzyhb-222" value="Josh" style="rounded=0;whiteSpace=wrap;html=1;" parent="1" vertex="1">
          <mxGeometry x="4580" y="400" width="130" height="30" as="geometry" />
        </mxCell>
        <mxCell id="WYwA7jNrKrz1sVTGzyhb-223" value="" style="rounded=0;whiteSpace=wrap;html=1;" parent="1" vertex="1">
          <mxGeometry x="4680" y="400" width="30" height="30" as="geometry" />
        </mxCell>
        <mxCell id="WYwA7jNrKrz1sVTGzyhb-224" value="" style="rounded=0;whiteSpace=wrap;html=1;" parent="1" vertex="1">
          <mxGeometry x="4580" y="400" width="30" height="30" as="geometry" />
        </mxCell>
        <mxCell id="WYwA7jNrKrz1sVTGzyhb-225" value="Community Reports" style="text;html=1;align=center;verticalAlign=middle;whiteSpace=wrap;rounded=0;" parent="1" vertex="1">
          <mxGeometry x="4590" y="340" width="110" height="50" as="geometry" />
        </mxCell>
        <mxCell id="WYwA7jNrKrz1sVTGzyhb-226" value="32" style="text;html=1;align=center;verticalAlign=middle;whiteSpace=wrap;rounded=0;" parent="1" vertex="1">
          <mxGeometry x="4580" y="405" width="30" height="20" as="geometry" />
        </mxCell>
        <mxCell id="WYwA7jNrKrz1sVTGzyhb-227" value="&lt;font color=&quot;#3399ff&quot;&gt;&lt;b&gt;1&lt;/b&gt;&lt;/font&gt;" style="text;html=1;align=center;verticalAlign=middle;whiteSpace=wrap;rounded=0;strokeWidth=4;" parent="1" vertex="1">
          <mxGeometry x="4680" y="405" width="30" height="20" as="geometry" />
        </mxCell>
        <mxCell id="WYwA7jNrKrz1sVTGzyhb-377" style="edgeStyle=orthogonalEdgeStyle;rounded=0;orthogonalLoop=1;jettySize=auto;html=1;exitX=1;exitY=0.5;exitDx=0;exitDy=0;entryX=0;entryY=0.5;entryDx=0;entryDy=0;strokeWidth=2;strokeColor=#3399FF;" parent="1" source="WYwA7jNrKrz1sVTGzyhb-228" target="WYwA7jNrKrz1sVTGzyhb-270" edge="1">
          <mxGeometry relative="1" as="geometry" />
        </mxCell>
        <mxCell id="WYwA7jNrKrz1sVTGzyhb-228" value="" style="rounded=0;whiteSpace=wrap;html=1;" parent="1" vertex="1">
          <mxGeometry x="5480" y="333.5" width="130" height="96.5" as="geometry" />
        </mxCell>
        <mxCell id="WYwA7jNrKrz1sVTGzyhb-229" value="Josh" style="rounded=0;whiteSpace=wrap;html=1;" parent="1" vertex="1">
          <mxGeometry x="5480" y="400" width="130" height="30" as="geometry" />
        </mxCell>
        <mxCell id="WYwA7jNrKrz1sVTGzyhb-230" value="" style="rounded=0;whiteSpace=wrap;html=1;" parent="1" vertex="1">
          <mxGeometry x="5580" y="400" width="30" height="30" as="geometry" />
        </mxCell>
        <mxCell id="WYwA7jNrKrz1sVTGzyhb-231" value="" style="rounded=0;whiteSpace=wrap;html=1;" parent="1" vertex="1">
          <mxGeometry x="5480" y="400" width="30" height="30" as="geometry" />
        </mxCell>
        <mxCell id="WYwA7jNrKrz1sVTGzyhb-232" value="Presentation to Stakeholders" style="text;html=1;align=center;verticalAlign=middle;whiteSpace=wrap;rounded=0;" parent="1" vertex="1">
          <mxGeometry x="5490" y="340" width="110" height="50" as="geometry" />
        </mxCell>
        <mxCell id="WYwA7jNrKrz1sVTGzyhb-233" value="36" style="text;html=1;align=center;verticalAlign=middle;whiteSpace=wrap;rounded=0;" parent="1" vertex="1">
          <mxGeometry x="5480" y="405" width="30" height="20" as="geometry" />
        </mxCell>
        <mxCell id="WYwA7jNrKrz1sVTGzyhb-234" value="&lt;font color=&quot;#3399ff&quot;&gt;&lt;b&gt;1&lt;/b&gt;&lt;/font&gt;" style="text;html=1;align=center;verticalAlign=middle;whiteSpace=wrap;rounded=0;strokeWidth=4;" parent="1" vertex="1">
          <mxGeometry x="5580" y="405" width="30" height="20" as="geometry" />
        </mxCell>
        <mxCell id="WYwA7jNrKrz1sVTGzyhb-381" style="edgeStyle=orthogonalEdgeStyle;rounded=0;orthogonalLoop=1;jettySize=auto;html=1;exitX=1;exitY=0.5;exitDx=0;exitDy=0;entryX=0;entryY=0.5;entryDx=0;entryDy=0;strokeWidth=2;strokeColor=#3399FF;" parent="1" source="WYwA7jNrKrz1sVTGzyhb-235" target="WYwA7jNrKrz1sVTGzyhb-291" edge="1">
          <mxGeometry relative="1" as="geometry" />
        </mxCell>
        <mxCell id="WYwA7jNrKrz1sVTGzyhb-235" value="" style="rounded=0;whiteSpace=wrap;html=1;" parent="1" vertex="1">
          <mxGeometry x="6420" y="333.5" width="130" height="96.5" as="geometry" />
        </mxCell>
        <mxCell id="WYwA7jNrKrz1sVTGzyhb-236" value="Josh" style="rounded=0;whiteSpace=wrap;html=1;" parent="1" vertex="1">
          <mxGeometry x="6420" y="400" width="130" height="30" as="geometry" />
        </mxCell>
        <mxCell id="WYwA7jNrKrz1sVTGzyhb-238" value="" style="rounded=0;whiteSpace=wrap;html=1;" parent="1" vertex="1">
          <mxGeometry x="6420" y="400" width="30" height="30" as="geometry" />
        </mxCell>
        <mxCell id="WYwA7jNrKrz1sVTGzyhb-239" value="Publish on App Stores" style="text;html=1;align=center;verticalAlign=middle;whiteSpace=wrap;rounded=0;" parent="1" vertex="1">
          <mxGeometry x="6430" y="340" width="110" height="50" as="geometry" />
        </mxCell>
        <mxCell id="WYwA7jNrKrz1sVTGzyhb-240" value="40" style="text;html=1;align=center;verticalAlign=middle;whiteSpace=wrap;rounded=0;" parent="1" vertex="1">
          <mxGeometry x="6420" y="405" width="30" height="20" as="geometry" />
        </mxCell>
        <mxCell id="WYwA7jNrKrz1sVTGzyhb-242" value="" style="rounded=0;whiteSpace=wrap;html=1;" parent="1" vertex="1">
          <mxGeometry x="7390" y="333.5" width="130" height="96.5" as="geometry" />
        </mxCell>
        <mxCell id="WYwA7jNrKrz1sVTGzyhb-243" value="Liam" style="rounded=0;whiteSpace=wrap;html=1;" parent="1" vertex="1">
          <mxGeometry x="7390" y="400" width="130" height="30" as="geometry" />
        </mxCell>
        <mxCell id="WYwA7jNrKrz1sVTGzyhb-245" value="" style="rounded=0;whiteSpace=wrap;html=1;" parent="1" vertex="1">
          <mxGeometry x="7390" y="400" width="30" height="30" as="geometry" />
        </mxCell>
        <mxCell id="WYwA7jNrKrz1sVTGzyhb-246" value="Lessons Learned Workshop" style="text;html=1;align=center;verticalAlign=middle;whiteSpace=wrap;rounded=0;" parent="1" vertex="1">
          <mxGeometry x="7400" y="340" width="110" height="50" as="geometry" />
        </mxCell>
        <mxCell id="WYwA7jNrKrz1sVTGzyhb-247" value="44" style="text;html=1;align=center;verticalAlign=middle;whiteSpace=wrap;rounded=0;" parent="1" vertex="1">
          <mxGeometry x="7390" y="405" width="30" height="20" as="geometry" />
        </mxCell>
        <mxCell id="WYwA7jNrKrz1sVTGzyhb-373" style="edgeStyle=orthogonalEdgeStyle;rounded=0;orthogonalLoop=1;jettySize=auto;html=1;exitX=1;exitY=0.5;exitDx=0;exitDy=0;entryX=0;entryY=0.5;entryDx=0;entryDy=0;strokeWidth=2;strokeColor=#3399FF;" parent="1" source="WYwA7jNrKrz1sVTGzyhb-249" target="WYwA7jNrKrz1sVTGzyhb-256" edge="1">
          <mxGeometry relative="1" as="geometry" />
        </mxCell>
        <mxCell id="WYwA7jNrKrz1sVTGzyhb-249" value="" style="rounded=0;whiteSpace=wrap;html=1;" parent="1" vertex="1">
          <mxGeometry x="4820" y="333.5" width="130" height="96.5" as="geometry" />
        </mxCell>
        <mxCell id="WYwA7jNrKrz1sVTGzyhb-250" value="Yusuf" style="rounded=0;whiteSpace=wrap;html=1;" parent="1" vertex="1">
          <mxGeometry x="4820" y="400" width="130" height="30" as="geometry" />
        </mxCell>
        <mxCell id="WYwA7jNrKrz1sVTGzyhb-251" value="" style="rounded=0;whiteSpace=wrap;html=1;" parent="1" vertex="1">
          <mxGeometry x="4920" y="400" width="30" height="30" as="geometry" />
        </mxCell>
        <mxCell id="WYwA7jNrKrz1sVTGzyhb-252" value="" style="rounded=0;whiteSpace=wrap;html=1;" parent="1" vertex="1">
          <mxGeometry x="4820" y="400" width="30" height="30" as="geometry" />
        </mxCell>
        <mxCell id="WYwA7jNrKrz1sVTGzyhb-253" value="Fix &amp;amp; Deploy Updates" style="text;html=1;align=center;verticalAlign=middle;whiteSpace=wrap;rounded=0;" parent="1" vertex="1">
          <mxGeometry x="4830" y="340" width="110" height="50" as="geometry" />
        </mxCell>
        <mxCell id="WYwA7jNrKrz1sVTGzyhb-254" value="33" style="text;html=1;align=center;verticalAlign=middle;whiteSpace=wrap;rounded=0;" parent="1" vertex="1">
          <mxGeometry x="4820" y="405" width="30" height="20" as="geometry" />
        </mxCell>
        <mxCell id="WYwA7jNrKrz1sVTGzyhb-255" value="&lt;font color=&quot;#3399ff&quot;&gt;&lt;b&gt;1&lt;/b&gt;&lt;/font&gt;" style="text;html=1;align=center;verticalAlign=middle;whiteSpace=wrap;rounded=0;strokeWidth=4;" parent="1" vertex="1">
          <mxGeometry x="4920" y="405" width="30" height="20" as="geometry" />
        </mxCell>
        <mxCell id="WYwA7jNrKrz1sVTGzyhb-374" style="edgeStyle=orthogonalEdgeStyle;rounded=0;orthogonalLoop=1;jettySize=auto;html=1;exitX=1;exitY=0.5;exitDx=0;exitDy=0;entryX=0;entryY=0.5;entryDx=0;entryDy=0;strokeWidth=2;strokeColor=#3399FF;" parent="1" source="WYwA7jNrKrz1sVTGzyhb-256" target="WYwA7jNrKrz1sVTGzyhb-263" edge="1">
          <mxGeometry relative="1" as="geometry" />
        </mxCell>
        <mxCell id="WYwA7jNrKrz1sVTGzyhb-256" value="" style="rounded=0;whiteSpace=wrap;html=1;" parent="1" vertex="1">
          <mxGeometry x="5040" y="333.5" width="130" height="96.5" as="geometry" />
        </mxCell>
        <mxCell id="WYwA7jNrKrz1sVTGzyhb-257" value="Shaquille" style="rounded=0;whiteSpace=wrap;html=1;" parent="1" vertex="1">
          <mxGeometry x="5040" y="400" width="130" height="30" as="geometry" />
        </mxCell>
        <mxCell id="WYwA7jNrKrz1sVTGzyhb-258" value="" style="rounded=0;whiteSpace=wrap;html=1;" parent="1" vertex="1">
          <mxGeometry x="5140" y="400" width="30" height="30" as="geometry" />
        </mxCell>
        <mxCell id="WYwA7jNrKrz1sVTGzyhb-259" value="" style="rounded=0;whiteSpace=wrap;html=1;" parent="1" vertex="1">
          <mxGeometry x="5040" y="400" width="30" height="30" as="geometry" />
        </mxCell>
        <mxCell id="WYwA7jNrKrz1sVTGzyhb-260" value="Data Insights" style="text;html=1;align=center;verticalAlign=middle;whiteSpace=wrap;rounded=0;" parent="1" vertex="1">
          <mxGeometry x="5050" y="340" width="110" height="50" as="geometry" />
        </mxCell>
        <mxCell id="WYwA7jNrKrz1sVTGzyhb-261" value="34" style="text;html=1;align=center;verticalAlign=middle;whiteSpace=wrap;rounded=0;" parent="1" vertex="1">
          <mxGeometry x="5040" y="405" width="30" height="20" as="geometry" />
        </mxCell>
        <mxCell id="WYwA7jNrKrz1sVTGzyhb-262" value="&lt;font color=&quot;#3399ff&quot;&gt;&lt;b&gt;1&lt;/b&gt;&lt;/font&gt;" style="text;html=1;align=center;verticalAlign=middle;whiteSpace=wrap;rounded=0;strokeWidth=4;" parent="1" vertex="1">
          <mxGeometry x="5140" y="405" width="30" height="20" as="geometry" />
        </mxCell>
        <mxCell id="WYwA7jNrKrz1sVTGzyhb-376" style="edgeStyle=orthogonalEdgeStyle;rounded=0;orthogonalLoop=1;jettySize=auto;html=1;exitX=1;exitY=0.5;exitDx=0;exitDy=0;entryX=0;entryY=0.5;entryDx=0;entryDy=0;strokeWidth=2;strokeColor=#3399FF;" parent="1" source="WYwA7jNrKrz1sVTGzyhb-263" target="WYwA7jNrKrz1sVTGzyhb-228" edge="1">
          <mxGeometry relative="1" as="geometry" />
        </mxCell>
        <mxCell id="WYwA7jNrKrz1sVTGzyhb-263" value="" style="rounded=0;whiteSpace=wrap;html=1;" parent="1" vertex="1">
          <mxGeometry x="5246" y="333.5" width="130" height="96.5" as="geometry" />
        </mxCell>
        <mxCell id="WYwA7jNrKrz1sVTGzyhb-264" value="Yusuf" style="rounded=0;whiteSpace=wrap;html=1;" parent="1" vertex="1">
          <mxGeometry x="5246" y="400" width="130" height="30" as="geometry" />
        </mxCell>
        <mxCell id="WYwA7jNrKrz1sVTGzyhb-265" value="" style="rounded=0;whiteSpace=wrap;html=1;" parent="1" vertex="1">
          <mxGeometry x="5346" y="400" width="30" height="30" as="geometry" />
        </mxCell>
        <mxCell id="WYwA7jNrKrz1sVTGzyhb-266" value="" style="rounded=0;whiteSpace=wrap;html=1;" parent="1" vertex="1">
          <mxGeometry x="5246" y="400" width="30" height="30" as="geometry" />
        </mxCell>
        <mxCell id="WYwA7jNrKrz1sVTGzyhb-267" value="Recommendations" style="text;html=1;align=center;verticalAlign=middle;whiteSpace=wrap;rounded=0;" parent="1" vertex="1">
          <mxGeometry x="5256" y="340" width="110" height="50" as="geometry" />
        </mxCell>
        <mxCell id="WYwA7jNrKrz1sVTGzyhb-268" value="35" style="text;html=1;align=center;verticalAlign=middle;whiteSpace=wrap;rounded=0;" parent="1" vertex="1">
          <mxGeometry x="5246" y="405" width="30" height="20" as="geometry" />
        </mxCell>
        <mxCell id="WYwA7jNrKrz1sVTGzyhb-269" value="&lt;font color=&quot;#3399ff&quot;&gt;&lt;b&gt;1&lt;/b&gt;&lt;/font&gt;" style="text;html=1;align=center;verticalAlign=middle;whiteSpace=wrap;rounded=0;strokeWidth=4;" parent="1" vertex="1">
          <mxGeometry x="5346" y="405" width="30" height="20" as="geometry" />
        </mxCell>
        <mxCell id="WYwA7jNrKrz1sVTGzyhb-378" style="edgeStyle=orthogonalEdgeStyle;rounded=0;orthogonalLoop=1;jettySize=auto;html=1;exitX=1;exitY=0.5;exitDx=0;exitDy=0;entryX=0;entryY=0.5;entryDx=0;entryDy=0;strokeWidth=2;strokeColor=#3399FF;" parent="1" source="WYwA7jNrKrz1sVTGzyhb-270" target="WYwA7jNrKrz1sVTGzyhb-277" edge="1">
          <mxGeometry relative="1" as="geometry" />
        </mxCell>
        <mxCell id="WYwA7jNrKrz1sVTGzyhb-270" value="" style="rounded=0;whiteSpace=wrap;html=1;" parent="1" vertex="1">
          <mxGeometry x="5710" y="333.5" width="130" height="96.5" as="geometry" />
        </mxCell>
        <mxCell id="WYwA7jNrKrz1sVTGzyhb-271" value="Yusuf" style="rounded=0;whiteSpace=wrap;html=1;" parent="1" vertex="1">
          <mxGeometry x="5710" y="400" width="130" height="30" as="geometry" />
        </mxCell>
        <mxCell id="WYwA7jNrKrz1sVTGzyhb-272" value="" style="rounded=0;whiteSpace=wrap;html=1;" parent="1" vertex="1">
          <mxGeometry x="5810" y="400" width="30" height="30" as="geometry" />
        </mxCell>
        <mxCell id="WYwA7jNrKrz1sVTGzyhb-273" value="" style="rounded=0;whiteSpace=wrap;html=1;" parent="1" vertex="1">
          <mxGeometry x="5710" y="400" width="30" height="30" as="geometry" />
        </mxCell>
        <mxCell id="WYwA7jNrKrz1sVTGzyhb-274" value="Executive Summary" style="text;html=1;align=center;verticalAlign=middle;whiteSpace=wrap;rounded=0;" parent="1" vertex="1">
          <mxGeometry x="5720" y="340" width="110" height="50" as="geometry" />
        </mxCell>
        <mxCell id="WYwA7jNrKrz1sVTGzyhb-275" value="37" style="text;html=1;align=center;verticalAlign=middle;whiteSpace=wrap;rounded=0;" parent="1" vertex="1">
          <mxGeometry x="5710" y="405" width="30" height="20" as="geometry" />
        </mxCell>
        <mxCell id="WYwA7jNrKrz1sVTGzyhb-276" value="&lt;font color=&quot;#3399ff&quot;&gt;&lt;b&gt;1&lt;/b&gt;&lt;/font&gt;" style="text;html=1;align=center;verticalAlign=middle;whiteSpace=wrap;rounded=0;strokeWidth=4;" parent="1" vertex="1">
          <mxGeometry x="5810" y="405" width="30" height="20" as="geometry" />
        </mxCell>
        <mxCell id="WYwA7jNrKrz1sVTGzyhb-379" style="edgeStyle=orthogonalEdgeStyle;rounded=0;orthogonalLoop=1;jettySize=auto;html=1;exitX=1;exitY=0.5;exitDx=0;exitDy=0;entryX=0;entryY=0.5;entryDx=0;entryDy=0;strokeWidth=2;strokeColor=#3399FF;" parent="1" source="WYwA7jNrKrz1sVTGzyhb-277" target="WYwA7jNrKrz1sVTGzyhb-284" edge="1">
          <mxGeometry relative="1" as="geometry" />
        </mxCell>
        <mxCell id="WYwA7jNrKrz1sVTGzyhb-277" value="" style="rounded=0;whiteSpace=wrap;html=1;" parent="1" vertex="1">
          <mxGeometry x="5950" y="333.5" width="130" height="96.5" as="geometry" />
        </mxCell>
        <mxCell id="WYwA7jNrKrz1sVTGzyhb-278" value="Liam" style="rounded=0;whiteSpace=wrap;html=1;" parent="1" vertex="1">
          <mxGeometry x="5950" y="400" width="130" height="30" as="geometry" />
        </mxCell>
        <mxCell id="WYwA7jNrKrz1sVTGzyhb-279" value="" style="rounded=0;whiteSpace=wrap;html=1;" parent="1" vertex="1">
          <mxGeometry x="6050" y="400" width="30" height="30" as="geometry" />
        </mxCell>
        <mxCell id="WYwA7jNrKrz1sVTGzyhb-280" value="" style="rounded=0;whiteSpace=wrap;html=1;" parent="1" vertex="1">
          <mxGeometry x="5950" y="400" width="30" height="30" as="geometry" />
        </mxCell>
        <mxCell id="WYwA7jNrKrz1sVTGzyhb-281" value="Technical Documentation" style="text;html=1;align=center;verticalAlign=middle;whiteSpace=wrap;rounded=0;" parent="1" vertex="1">
          <mxGeometry x="5960" y="340" width="110" height="50" as="geometry" />
        </mxCell>
        <mxCell id="WYwA7jNrKrz1sVTGzyhb-282" value="38" style="text;html=1;align=center;verticalAlign=middle;whiteSpace=wrap;rounded=0;" parent="1" vertex="1">
          <mxGeometry x="5950" y="405" width="30" height="20" as="geometry" />
        </mxCell>
        <mxCell id="WYwA7jNrKrz1sVTGzyhb-283" value="&lt;font color=&quot;#3399ff&quot;&gt;&lt;b&gt;2&lt;/b&gt;&lt;/font&gt;" style="text;html=1;align=center;verticalAlign=middle;whiteSpace=wrap;rounded=0;strokeWidth=4;" parent="1" vertex="1">
          <mxGeometry x="6050" y="405" width="30" height="20" as="geometry" />
        </mxCell>
        <mxCell id="WYwA7jNrKrz1sVTGzyhb-380" style="edgeStyle=orthogonalEdgeStyle;rounded=0;orthogonalLoop=1;jettySize=auto;html=1;exitX=1;exitY=0.5;exitDx=0;exitDy=0;entryX=0;entryY=0.5;entryDx=0;entryDy=0;strokeWidth=2;strokeColor=#3399FF;" parent="1" source="WYwA7jNrKrz1sVTGzyhb-284" target="WYwA7jNrKrz1sVTGzyhb-235" edge="1">
          <mxGeometry relative="1" as="geometry" />
        </mxCell>
        <mxCell id="WYwA7jNrKrz1sVTGzyhb-284" value="" style="rounded=0;whiteSpace=wrap;html=1;" parent="1" vertex="1">
          <mxGeometry x="6190" y="333.5" width="130" height="96.5" as="geometry" />
        </mxCell>
        <mxCell id="WYwA7jNrKrz1sVTGzyhb-285" value="Shaquille" style="rounded=0;whiteSpace=wrap;html=1;" parent="1" vertex="1">
          <mxGeometry x="6190" y="400" width="130" height="30" as="geometry" />
        </mxCell>
        <mxCell id="WYwA7jNrKrz1sVTGzyhb-286" value="" style="rounded=0;whiteSpace=wrap;html=1;" parent="1" vertex="1">
          <mxGeometry x="6290" y="400" width="30" height="30" as="geometry" />
        </mxCell>
        <mxCell id="WYwA7jNrKrz1sVTGzyhb-287" value="" style="rounded=0;whiteSpace=wrap;html=1;" parent="1" vertex="1">
          <mxGeometry x="6190" y="400" width="30" height="30" as="geometry" />
        </mxCell>
        <mxCell id="WYwA7jNrKrz1sVTGzyhb-288" value="Financial Report&amp;nbsp;" style="text;html=1;align=center;verticalAlign=middle;whiteSpace=wrap;rounded=0;" parent="1" vertex="1">
          <mxGeometry x="6200" y="340" width="110" height="50" as="geometry" />
        </mxCell>
        <mxCell id="WYwA7jNrKrz1sVTGzyhb-289" value="39" style="text;html=1;align=center;verticalAlign=middle;whiteSpace=wrap;rounded=0;" parent="1" vertex="1">
          <mxGeometry x="6190" y="405" width="30" height="20" as="geometry" />
        </mxCell>
        <mxCell id="WYwA7jNrKrz1sVTGzyhb-290" value="&lt;font color=&quot;#3399ff&quot;&gt;&lt;b&gt;1&lt;/b&gt;&lt;/font&gt;" style="text;html=1;align=center;verticalAlign=middle;whiteSpace=wrap;rounded=0;strokeWidth=4;" parent="1" vertex="1">
          <mxGeometry x="6290" y="405" width="30" height="20" as="geometry" />
        </mxCell>
        <mxCell id="WYwA7jNrKrz1sVTGzyhb-382" style="edgeStyle=orthogonalEdgeStyle;rounded=0;orthogonalLoop=1;jettySize=auto;html=1;exitX=1;exitY=0.5;exitDx=0;exitDy=0;entryX=0;entryY=0.5;entryDx=0;entryDy=0;strokeWidth=2;strokeColor=#3399FF;" parent="1" source="WYwA7jNrKrz1sVTGzyhb-291" target="WYwA7jNrKrz1sVTGzyhb-298" edge="1">
          <mxGeometry relative="1" as="geometry" />
        </mxCell>
        <mxCell id="WYwA7jNrKrz1sVTGzyhb-291" value="" style="rounded=0;whiteSpace=wrap;html=1;" parent="1" vertex="1">
          <mxGeometry x="6650" y="333.5" width="130" height="96.5" as="geometry" />
        </mxCell>
        <mxCell id="WYwA7jNrKrz1sVTGzyhb-292" value="Shaquille" style="rounded=0;whiteSpace=wrap;html=1;" parent="1" vertex="1">
          <mxGeometry x="6650" y="400" width="130" height="30" as="geometry" />
        </mxCell>
        <mxCell id="WYwA7jNrKrz1sVTGzyhb-293" value="" style="rounded=0;whiteSpace=wrap;html=1;" parent="1" vertex="1">
          <mxGeometry x="6750" y="400" width="30" height="30" as="geometry" />
        </mxCell>
        <mxCell id="WYwA7jNrKrz1sVTGzyhb-294" value="" style="rounded=0;whiteSpace=wrap;html=1;" parent="1" vertex="1">
          <mxGeometry x="6650" y="400" width="30" height="30" as="geometry" />
        </mxCell>
        <mxCell id="WYwA7jNrKrz1sVTGzyhb-295" value="Social Media Campaign" style="text;html=1;align=center;verticalAlign=middle;whiteSpace=wrap;rounded=0;" parent="1" vertex="1">
          <mxGeometry x="6660" y="340" width="110" height="50" as="geometry" />
        </mxCell>
        <mxCell id="WYwA7jNrKrz1sVTGzyhb-296" value="41" style="text;html=1;align=center;verticalAlign=middle;whiteSpace=wrap;rounded=0;" parent="1" vertex="1">
          <mxGeometry x="6650" y="405" width="30" height="20" as="geometry" />
        </mxCell>
        <mxCell id="WYwA7jNrKrz1sVTGzyhb-297" value="&lt;font color=&quot;#3399ff&quot;&gt;&lt;b&gt;1&lt;/b&gt;&lt;/font&gt;" style="text;html=1;align=center;verticalAlign=middle;whiteSpace=wrap;rounded=0;strokeWidth=4;" parent="1" vertex="1">
          <mxGeometry x="6750" y="405" width="30" height="20" as="geometry" />
        </mxCell>
        <mxCell id="WYwA7jNrKrz1sVTGzyhb-383" style="edgeStyle=orthogonalEdgeStyle;rounded=0;orthogonalLoop=1;jettySize=auto;html=1;exitX=1;exitY=0.5;exitDx=0;exitDy=0;entryX=0;entryY=0.5;entryDx=0;entryDy=0;strokeWidth=2;strokeColor=#3399FF;" parent="1" source="WYwA7jNrKrz1sVTGzyhb-298" target="WYwA7jNrKrz1sVTGzyhb-305" edge="1">
          <mxGeometry relative="1" as="geometry" />
        </mxCell>
        <mxCell id="WYwA7jNrKrz1sVTGzyhb-298" value="" style="rounded=0;whiteSpace=wrap;html=1;" parent="1" vertex="1">
          <mxGeometry x="6890" y="333.5" width="130" height="96.5" as="geometry" />
        </mxCell>
        <mxCell id="WYwA7jNrKrz1sVTGzyhb-299" value="Yusuf" style="rounded=0;whiteSpace=wrap;html=1;" parent="1" vertex="1">
          <mxGeometry x="6890" y="400" width="130" height="30" as="geometry" />
        </mxCell>
        <mxCell id="WYwA7jNrKrz1sVTGzyhb-300" value="" style="rounded=0;whiteSpace=wrap;html=1;" parent="1" vertex="1">
          <mxGeometry x="6990" y="400" width="30" height="30" as="geometry" />
        </mxCell>
        <mxCell id="WYwA7jNrKrz1sVTGzyhb-301" value="" style="rounded=0;whiteSpace=wrap;html=1;" parent="1" vertex="1">
          <mxGeometry x="6890" y="400" width="30" height="30" as="geometry" />
        </mxCell>
        <mxCell id="WYwA7jNrKrz1sVTGzyhb-302" value="Customer Support Setup" style="text;html=1;align=center;verticalAlign=middle;whiteSpace=wrap;rounded=0;" parent="1" vertex="1">
          <mxGeometry x="6900" y="340" width="110" height="50" as="geometry" />
        </mxCell>
        <mxCell id="WYwA7jNrKrz1sVTGzyhb-303" value="42" style="text;html=1;align=center;verticalAlign=middle;whiteSpace=wrap;rounded=0;" parent="1" vertex="1">
          <mxGeometry x="6890" y="405" width="30" height="20" as="geometry" />
        </mxCell>
        <mxCell id="WYwA7jNrKrz1sVTGzyhb-304" value="&lt;font color=&quot;#3399ff&quot;&gt;&lt;b&gt;1&lt;/b&gt;&lt;/font&gt;" style="text;html=1;align=center;verticalAlign=middle;whiteSpace=wrap;rounded=0;strokeWidth=4;" parent="1" vertex="1">
          <mxGeometry x="6990" y="405" width="30" height="20" as="geometry" />
        </mxCell>
        <mxCell id="WYwA7jNrKrz1sVTGzyhb-384" style="edgeStyle=orthogonalEdgeStyle;rounded=0;orthogonalLoop=1;jettySize=auto;html=1;exitX=1;exitY=0.5;exitDx=0;exitDy=0;entryX=0;entryY=0.5;entryDx=0;entryDy=0;strokeWidth=2;strokeColor=#3399FF;" parent="1" source="WYwA7jNrKrz1sVTGzyhb-305" target="WYwA7jNrKrz1sVTGzyhb-242" edge="1">
          <mxGeometry relative="1" as="geometry" />
        </mxCell>
        <mxCell id="WYwA7jNrKrz1sVTGzyhb-305" value="" style="rounded=0;whiteSpace=wrap;html=1;" parent="1" vertex="1">
          <mxGeometry x="7130" y="333.5" width="130" height="96.5" as="geometry" />
        </mxCell>
        <mxCell id="WYwA7jNrKrz1sVTGzyhb-306" value="Shaquille" style="rounded=0;whiteSpace=wrap;html=1;" parent="1" vertex="1">
          <mxGeometry x="7130" y="400" width="130" height="30" as="geometry" />
        </mxCell>
        <mxCell id="WYwA7jNrKrz1sVTGzyhb-307" value="" style="rounded=0;whiteSpace=wrap;html=1;" parent="1" vertex="1">
          <mxGeometry x="7230" y="400" width="30" height="30" as="geometry" />
        </mxCell>
        <mxCell id="WYwA7jNrKrz1sVTGzyhb-308" value="" style="rounded=0;whiteSpace=wrap;html=1;" parent="1" vertex="1">
          <mxGeometry x="7130" y="400" width="30" height="30" as="geometry" />
        </mxCell>
        <mxCell id="WYwA7jNrKrz1sVTGzyhb-309" value="Gather Post-Launch Feedback" style="text;html=1;align=center;verticalAlign=middle;whiteSpace=wrap;rounded=0;" parent="1" vertex="1">
          <mxGeometry x="7140" y="340" width="110" height="50" as="geometry" />
        </mxCell>
        <mxCell id="WYwA7jNrKrz1sVTGzyhb-310" value="43" style="text;html=1;align=center;verticalAlign=middle;whiteSpace=wrap;rounded=0;" parent="1" vertex="1">
          <mxGeometry x="7130" y="405" width="30" height="20" as="geometry" />
        </mxCell>
        <mxCell id="WYwA7jNrKrz1sVTGzyhb-311" value="&lt;font color=&quot;#3399ff&quot;&gt;&lt;b&gt;1&lt;/b&gt;&lt;/font&gt;" style="text;html=1;align=center;verticalAlign=middle;whiteSpace=wrap;rounded=0;strokeWidth=4;" parent="1" vertex="1">
          <mxGeometry x="7230" y="405" width="30" height="20" as="geometry" />
        </mxCell>
        <mxCell id="WYwA7jNrKrz1sVTGzyhb-365" style="edgeStyle=orthogonalEdgeStyle;rounded=0;orthogonalLoop=1;jettySize=auto;html=1;exitX=1;exitY=0.5;exitDx=0;exitDy=0;entryX=-0.007;entryY=0.29;entryDx=0;entryDy=0;entryPerimeter=0;strokeWidth=2;strokeColor=#3399FF;" parent="1" source="WYwA7jNrKrz1sVTGzyhb-172" target="WYwA7jNrKrz1sVTGzyhb-193" edge="1">
          <mxGeometry relative="1" as="geometry" />
        </mxCell>
        <mxCell id="WYwA7jNrKrz1sVTGzyhb-237" value="" style="rounded=0;whiteSpace=wrap;html=1;" parent="1" vertex="1">
          <mxGeometry x="7490" y="400" width="30" height="30" as="geometry" />
        </mxCell>
        <mxCell id="WYwA7jNrKrz1sVTGzyhb-241" value="&lt;font color=&quot;#3399ff&quot;&gt;&lt;b&gt;1&lt;/b&gt;&lt;/font&gt;" style="text;html=1;align=center;verticalAlign=middle;whiteSpace=wrap;rounded=0;strokeWidth=4;" parent="1" vertex="1">
          <mxGeometry x="7490" y="405" width="30" height="20" as="geometry" />
        </mxCell>
        <mxCell id="WYwA7jNrKrz1sVTGzyhb-244" value="" style="rounded=0;whiteSpace=wrap;html=1;" parent="1" vertex="1">
          <mxGeometry x="6520" y="400" width="30" height="30" as="geometry" />
        </mxCell>
        <mxCell id="WYwA7jNrKrz1sVTGzyhb-248" value="&lt;font color=&quot;#3399ff&quot;&gt;&lt;b&gt;1&lt;/b&gt;&lt;/font&gt;" style="text;html=1;align=center;verticalAlign=middle;whiteSpace=wrap;rounded=0;strokeWidth=4;" parent="1" vertex="1">
          <mxGeometry x="6520" y="405" width="30" height="20" as="geometry" />
        </mxCell>
        <mxCell id="WYwA7jNrKrz1sVTGzyhb-368" style="edgeStyle=orthogonalEdgeStyle;rounded=0;orthogonalLoop=1;jettySize=auto;html=1;exitX=1;exitY=0.5;exitDx=0;exitDy=0;strokeWidth=2;strokeColor=#3399FF;" parent="1" source="WYwA7jNrKrz1sVTGzyhb-193" edge="1">
          <mxGeometry relative="1" as="geometry">
            <mxPoint x="3860" y="382" as="targetPoint" />
          </mxGeometry>
        </mxCell>
        <mxCell id="WYwA7jNrKrz1sVTGzyhb-388" value="" style="rounded=0;whiteSpace=wrap;html=1;" parent="1" vertex="1">
          <mxGeometry x="-670" y="670" width="130" height="96.5" as="geometry" />
        </mxCell>
        <mxCell id="WYwA7jNrKrz1sVTGzyhb-389" value="" style="rounded=0;whiteSpace=wrap;html=1;" parent="1" vertex="1">
          <mxGeometry x="-670" y="736.5" width="130" height="30" as="geometry" />
        </mxCell>
        <mxCell id="WYwA7jNrKrz1sVTGzyhb-390" value="" style="rounded=0;whiteSpace=wrap;html=1;" parent="1" vertex="1">
          <mxGeometry x="-670" y="736.5" width="30" height="30" as="geometry" />
        </mxCell>
        <mxCell id="WYwA7jNrKrz1sVTGzyhb-393" value="" style="rounded=0;whiteSpace=wrap;html=1;" parent="1" vertex="1">
          <mxGeometry x="-570" y="736.5" width="30" height="30" as="geometry" />
        </mxCell>
        <mxCell id="WYwA7jNrKrz1sVTGzyhb-395" value="&lt;font color=&quot;#3399ff&quot;&gt;&lt;b&gt;0&lt;/b&gt;&lt;/font&gt;" style="text;html=1;align=center;verticalAlign=middle;whiteSpace=wrap;rounded=0;strokeWidth=4;" parent="1" vertex="1">
          <mxGeometry x="-670" y="338.5" width="30" height="20" as="geometry" />
        </mxCell>
        <mxCell id="WYwA7jNrKrz1sVTGzyhb-396" value="&lt;font color=&quot;#3399ff&quot;&gt;&lt;b&gt;2&lt;/b&gt;&lt;/font&gt;" style="text;html=1;align=center;verticalAlign=middle;whiteSpace=wrap;rounded=0;strokeWidth=4;" parent="1" vertex="1">
          <mxGeometry x="-570" y="340" width="30" height="20" as="geometry" />
        </mxCell>
        <mxCell id="WYwA7jNrKrz1sVTGzyhb-399" value="&lt;font color=&quot;#3399ff&quot;&gt;&lt;b&gt;2&lt;/b&gt;&lt;/font&gt;" style="text;html=1;align=center;verticalAlign=middle;whiteSpace=wrap;rounded=0;strokeWidth=4;" parent="1" vertex="1">
          <mxGeometry x="-380" y="337.75" width="30" height="20" as="geometry" />
        </mxCell>
        <mxCell id="WYwA7jNrKrz1sVTGzyhb-400" value="&lt;font color=&quot;#3399ff&quot;&gt;&lt;b&gt;4&lt;/b&gt;&lt;/font&gt;" style="text;html=1;align=center;verticalAlign=middle;whiteSpace=wrap;rounded=0;strokeWidth=4;" parent="1" vertex="1">
          <mxGeometry x="-280" y="339.25" width="30" height="20" as="geometry" />
        </mxCell>
        <mxCell id="WYwA7jNrKrz1sVTGzyhb-401" value="&lt;font color=&quot;#3399ff&quot;&gt;&lt;b&gt;4&lt;/b&gt;&lt;/font&gt;" style="text;html=1;align=center;verticalAlign=middle;whiteSpace=wrap;rounded=0;strokeWidth=4;" parent="1" vertex="1">
          <mxGeometry x="-100" y="337" width="30" height="20" as="geometry" />
        </mxCell>
        <mxCell id="WYwA7jNrKrz1sVTGzyhb-402" value="&lt;font color=&quot;#3399ff&quot;&gt;&lt;b&gt;6&lt;/b&gt;&lt;/font&gt;" style="text;html=1;align=center;verticalAlign=middle;whiteSpace=wrap;rounded=0;strokeWidth=4;" parent="1" vertex="1">
          <mxGeometry y="338.5" width="30" height="20" as="geometry" />
        </mxCell>
        <mxCell id="WYwA7jNrKrz1sVTGzyhb-403" value="&lt;font color=&quot;#3399ff&quot;&gt;&lt;b&gt;6&lt;/b&gt;&lt;/font&gt;" style="text;html=1;align=center;verticalAlign=middle;whiteSpace=wrap;rounded=0;strokeWidth=4;" parent="1" vertex="1">
          <mxGeometry x="200" y="336.25" width="30" height="20" as="geometry" />
        </mxCell>
        <mxCell id="WYwA7jNrKrz1sVTGzyhb-404" value="&lt;font color=&quot;#3399ff&quot;&gt;&lt;b&gt;9&lt;/b&gt;&lt;/font&gt;" style="text;html=1;align=center;verticalAlign=middle;whiteSpace=wrap;rounded=0;strokeWidth=4;" parent="1" vertex="1">
          <mxGeometry x="300" y="337.75" width="30" height="20" as="geometry" />
        </mxCell>
        <mxCell id="WYwA7jNrKrz1sVTGzyhb-405" value="&lt;font color=&quot;#3399ff&quot;&gt;&lt;b&gt;9&lt;/b&gt;&lt;/font&gt;" style="text;html=1;align=center;verticalAlign=middle;whiteSpace=wrap;rounded=0;strokeWidth=4;" parent="1" vertex="1">
          <mxGeometry x="420" y="240.5" width="30" height="20" as="geometry" />
        </mxCell>
        <mxCell id="WYwA7jNrKrz1sVTGzyhb-406" value="&lt;font color=&quot;#3399ff&quot;&gt;&lt;b&gt;12&lt;/b&gt;&lt;/font&gt;" style="text;html=1;align=center;verticalAlign=middle;whiteSpace=wrap;rounded=0;strokeWidth=4;" parent="1" vertex="1">
          <mxGeometry x="520" y="242" width="30" height="20" as="geometry" />
        </mxCell>
        <mxCell id="WYwA7jNrKrz1sVTGzyhb-407" value="&lt;font color=&quot;#3399ff&quot;&gt;&lt;b&gt;12&lt;/b&gt;&lt;/font&gt;" style="text;html=1;align=center;verticalAlign=middle;whiteSpace=wrap;rounded=0;strokeWidth=4;" parent="1" vertex="1">
          <mxGeometry x="650" y="241.25" width="30" height="20" as="geometry" />
        </mxCell>
        <mxCell id="WYwA7jNrKrz1sVTGzyhb-408" value="&lt;font color=&quot;#3399ff&quot;&gt;&lt;b&gt;15&lt;/b&gt;&lt;/font&gt;" style="text;html=1;align=center;verticalAlign=middle;whiteSpace=wrap;rounded=0;strokeWidth=4;" parent="1" vertex="1">
          <mxGeometry x="750" y="242.75" width="30" height="20" as="geometry" />
        </mxCell>
        <mxCell id="WYwA7jNrKrz1sVTGzyhb-409" value="&lt;font color=&quot;#3399ff&quot;&gt;&lt;b&gt;15&lt;/b&gt;&lt;/font&gt;" style="text;html=1;align=center;verticalAlign=middle;whiteSpace=wrap;rounded=0;strokeWidth=4;" parent="1" vertex="1">
          <mxGeometry x="900" y="239.75" width="30" height="20" as="geometry" />
        </mxCell>
        <mxCell id="WYwA7jNrKrz1sVTGzyhb-410" value="&lt;font color=&quot;#3399ff&quot;&gt;&lt;b&gt;17&lt;/b&gt;&lt;/font&gt;" style="text;html=1;align=center;verticalAlign=middle;whiteSpace=wrap;rounded=0;strokeWidth=4;" parent="1" vertex="1">
          <mxGeometry x="1000" y="241.25" width="30" height="20" as="geometry" />
        </mxCell>
        <mxCell id="WYwA7jNrKrz1sVTGzyhb-411" value="&lt;font color=&quot;#3399ff&quot;&gt;&lt;b&gt;17&lt;/b&gt;&lt;/font&gt;" style="text;html=1;align=center;verticalAlign=middle;whiteSpace=wrap;rounded=0;strokeWidth=4;" parent="1" vertex="1">
          <mxGeometry x="1160" y="239.75" width="30" height="20" as="geometry" />
        </mxCell>
        <mxCell id="WYwA7jNrKrz1sVTGzyhb-412" value="&lt;font color=&quot;#3399ff&quot;&gt;&lt;b&gt;19&lt;/b&gt;&lt;/font&gt;" style="text;html=1;align=center;verticalAlign=middle;whiteSpace=wrap;rounded=0;strokeWidth=4;" parent="1" vertex="1">
          <mxGeometry x="1260" y="241.25" width="30" height="20" as="geometry" />
        </mxCell>
        <mxCell id="WYwA7jNrKrz1sVTGzyhb-413" value="&lt;font color=&quot;#3399ff&quot;&gt;&lt;b&gt;19&lt;/b&gt;&lt;/font&gt;" style="text;html=1;align=center;verticalAlign=middle;whiteSpace=wrap;rounded=0;strokeWidth=4;" parent="1" vertex="1">
          <mxGeometry x="1430" y="241.25" width="30" height="20" as="geometry" />
        </mxCell>
        <mxCell id="WYwA7jNrKrz1sVTGzyhb-414" value="&lt;font color=&quot;#3399ff&quot;&gt;&lt;b&gt;21&lt;/b&gt;&lt;/font&gt;" style="text;html=1;align=center;verticalAlign=middle;whiteSpace=wrap;rounded=0;strokeWidth=4;" parent="1" vertex="1">
          <mxGeometry x="1530" y="242.75" width="30" height="20" as="geometry" />
        </mxCell>
        <mxCell id="WYwA7jNrKrz1sVTGzyhb-415" value="&lt;font color=&quot;#3399ff&quot;&gt;&lt;b&gt;9&lt;/b&gt;&lt;/font&gt;" style="text;html=1;align=center;verticalAlign=middle;whiteSpace=wrap;rounded=0;strokeWidth=4;" parent="1" vertex="1">
          <mxGeometry x="420" y="418.5" width="30" height="20" as="geometry" />
        </mxCell>
        <mxCell id="WYwA7jNrKrz1sVTGzyhb-416" value="&lt;font color=&quot;#3399ff&quot;&gt;&lt;b&gt;11&lt;/b&gt;&lt;/font&gt;" style="text;html=1;align=center;verticalAlign=middle;whiteSpace=wrap;rounded=0;strokeWidth=4;" parent="1" vertex="1">
          <mxGeometry x="520" y="420" width="30" height="20" as="geometry" />
        </mxCell>
        <mxCell id="WYwA7jNrKrz1sVTGzyhb-417" value="&lt;font color=&quot;#3399ff&quot;&gt;&lt;b&gt;11&lt;/b&gt;&lt;/font&gt;" style="text;html=1;align=center;verticalAlign=middle;whiteSpace=wrap;rounded=0;strokeWidth=4;" parent="1" vertex="1">
          <mxGeometry x="650" y="420" width="30" height="20" as="geometry" />
        </mxCell>
        <mxCell id="WYwA7jNrKrz1sVTGzyhb-418" value="&lt;font color=&quot;#3399ff&quot;&gt;&lt;b&gt;13&lt;/b&gt;&lt;/font&gt;" style="text;html=1;align=center;verticalAlign=middle;whiteSpace=wrap;rounded=0;strokeWidth=4;" parent="1" vertex="1">
          <mxGeometry x="750" y="421.5" width="30" height="20" as="geometry" />
        </mxCell>
        <mxCell id="WYwA7jNrKrz1sVTGzyhb-419" value="&lt;font color=&quot;#3399ff&quot;&gt;&lt;b&gt;13&lt;/b&gt;&lt;/font&gt;" style="text;html=1;align=center;verticalAlign=middle;whiteSpace=wrap;rounded=0;strokeWidth=4;" parent="1" vertex="1">
          <mxGeometry x="900" y="417" width="30" height="20" as="geometry" />
        </mxCell>
        <mxCell id="WYwA7jNrKrz1sVTGzyhb-420" value="&lt;font color=&quot;#3399ff&quot;&gt;&lt;b&gt;16&lt;/b&gt;&lt;/font&gt;" style="text;html=1;align=center;verticalAlign=middle;whiteSpace=wrap;rounded=0;strokeWidth=4;" parent="1" vertex="1">
          <mxGeometry x="1000" y="418.5" width="30" height="20" as="geometry" />
        </mxCell>
        <mxCell id="WYwA7jNrKrz1sVTGzyhb-421" value="&lt;font color=&quot;#3399ff&quot;&gt;&lt;b&gt;16&lt;/b&gt;&lt;/font&gt;" style="text;html=1;align=center;verticalAlign=middle;whiteSpace=wrap;rounded=0;strokeWidth=4;" parent="1" vertex="1">
          <mxGeometry x="1160" y="417" width="30" height="20" as="geometry" />
        </mxCell>
        <mxCell id="WYwA7jNrKrz1sVTGzyhb-422" value="&lt;font color=&quot;#3399ff&quot;&gt;&lt;b&gt;19&lt;/b&gt;&lt;/font&gt;" style="text;html=1;align=center;verticalAlign=middle;whiteSpace=wrap;rounded=0;strokeWidth=4;" parent="1" vertex="1">
          <mxGeometry x="1260" y="418.5" width="30" height="20" as="geometry" />
        </mxCell>
        <mxCell id="WYwA7jNrKrz1sVTGzyhb-423" value="&lt;font color=&quot;#3399ff&quot;&gt;&lt;b&gt;19&lt;/b&gt;&lt;/font&gt;" style="text;html=1;align=center;verticalAlign=middle;whiteSpace=wrap;rounded=0;strokeWidth=4;" parent="1" vertex="1">
          <mxGeometry x="1430" y="419.25" width="30" height="20" as="geometry" />
        </mxCell>
        <mxCell id="WYwA7jNrKrz1sVTGzyhb-424" value="&lt;font color=&quot;#3399ff&quot;&gt;&lt;b&gt;21&lt;/b&gt;&lt;/font&gt;" style="text;html=1;align=center;verticalAlign=middle;whiteSpace=wrap;rounded=0;strokeWidth=4;" parent="1" vertex="1">
          <mxGeometry x="1530" y="420.75" width="30" height="20" as="geometry" />
        </mxCell>
        <mxCell id="WYwA7jNrKrz1sVTGzyhb-425" value="&lt;font color=&quot;#3399ff&quot;&gt;&lt;b&gt;21&lt;/b&gt;&lt;/font&gt;" style="text;html=1;align=center;verticalAlign=middle;whiteSpace=wrap;rounded=0;strokeWidth=4;" parent="1" vertex="1">
          <mxGeometry x="1690" y="418.5" width="30" height="20" as="geometry" />
        </mxCell>
        <mxCell id="WYwA7jNrKrz1sVTGzyhb-426" value="&lt;font color=&quot;#3399ff&quot;&gt;&lt;b&gt;23&lt;/b&gt;&lt;/font&gt;" style="text;html=1;align=center;verticalAlign=middle;whiteSpace=wrap;rounded=0;strokeWidth=4;" parent="1" vertex="1">
          <mxGeometry x="1790" y="420" width="30" height="20" as="geometry" />
        </mxCell>
        <mxCell id="WYwA7jNrKrz1sVTGzyhb-427" value="&lt;font color=&quot;#3399ff&quot;&gt;&lt;b&gt;23&lt;/b&gt;&lt;/font&gt;" style="text;html=1;align=center;verticalAlign=middle;whiteSpace=wrap;rounded=0;strokeWidth=4;" parent="1" vertex="1">
          <mxGeometry x="1900" y="485" width="30" height="20" as="geometry" />
        </mxCell>
        <mxCell id="WYwA7jNrKrz1sVTGzyhb-428" value="&lt;font color=&quot;#3399ff&quot;&gt;&lt;b&gt;24&lt;/b&gt;&lt;/font&gt;" style="text;html=1;align=center;verticalAlign=middle;whiteSpace=wrap;rounded=0;strokeWidth=4;" parent="1" vertex="1">
          <mxGeometry x="2000" y="486.5" width="30" height="20" as="geometry" />
        </mxCell>
        <mxCell id="WYwA7jNrKrz1sVTGzyhb-429" value="&lt;font color=&quot;#3399ff&quot;&gt;&lt;b&gt;23&lt;/b&gt;&lt;/font&gt;" style="text;html=1;align=center;verticalAlign=middle;whiteSpace=wrap;rounded=0;strokeWidth=4;" parent="1" vertex="1">
          <mxGeometry x="1900" y="312" width="30" height="20" as="geometry" />
        </mxCell>
        <mxCell id="WYwA7jNrKrz1sVTGzyhb-430" value="&lt;font color=&quot;#3399ff&quot;&gt;&lt;b&gt;24&lt;/b&gt;&lt;/font&gt;" style="text;html=1;align=center;verticalAlign=middle;whiteSpace=wrap;rounded=0;strokeWidth=4;" parent="1" vertex="1">
          <mxGeometry x="2000" y="313.5" width="30" height="20" as="geometry" />
        </mxCell>
        <mxCell id="WYwA7jNrKrz1sVTGzyhb-431" value="&lt;font color=&quot;#3399ff&quot;&gt;&lt;b&gt;24&lt;/b&gt;&lt;/font&gt;" style="text;html=1;align=center;verticalAlign=middle;whiteSpace=wrap;rounded=0;strokeWidth=4;" parent="1" vertex="1">
          <mxGeometry x="2130" y="485" width="30" height="20" as="geometry" />
        </mxCell>
        <mxCell id="WYwA7jNrKrz1sVTGzyhb-432" value="&lt;font color=&quot;#3399ff&quot;&gt;&lt;b&gt;25&lt;/b&gt;&lt;/font&gt;" style="text;html=1;align=center;verticalAlign=middle;whiteSpace=wrap;rounded=0;strokeWidth=4;" parent="1" vertex="1">
          <mxGeometry x="2230" y="486.5" width="30" height="20" as="geometry" />
        </mxCell>
        <mxCell id="WYwA7jNrKrz1sVTGzyhb-433" value="&lt;font color=&quot;#3399ff&quot;&gt;&lt;b&gt;24&lt;/b&gt;&lt;/font&gt;" style="text;html=1;align=center;verticalAlign=middle;whiteSpace=wrap;rounded=0;strokeWidth=4;" parent="1" vertex="1">
          <mxGeometry x="2130" y="312" width="30" height="20" as="geometry" />
        </mxCell>
        <mxCell id="WYwA7jNrKrz1sVTGzyhb-434" value="&lt;font color=&quot;#3399ff&quot;&gt;&lt;b&gt;26&lt;/b&gt;&lt;/font&gt;" style="text;html=1;align=center;verticalAlign=middle;whiteSpace=wrap;rounded=0;strokeWidth=4;" parent="1" vertex="1">
          <mxGeometry x="2230" y="313.5" width="30" height="20" as="geometry" />
        </mxCell>
        <mxCell id="WYwA7jNrKrz1sVTGzyhb-435" value="&lt;font color=&quot;#3399ff&quot;&gt;&lt;b&gt;25&lt;/b&gt;&lt;/font&gt;" style="text;html=1;align=center;verticalAlign=middle;whiteSpace=wrap;rounded=0;strokeWidth=4;" parent="1" vertex="1">
          <mxGeometry x="2380" y="485.75" width="30" height="20" as="geometry" />
        </mxCell>
        <mxCell id="WYwA7jNrKrz1sVTGzyhb-436" value="&lt;font color=&quot;#3399ff&quot;&gt;&lt;b&gt;26&lt;/b&gt;&lt;/font&gt;" style="text;html=1;align=center;verticalAlign=middle;whiteSpace=wrap;rounded=0;strokeWidth=4;" parent="1" vertex="1">
          <mxGeometry x="2480" y="487.25" width="30" height="20" as="geometry" />
        </mxCell>
        <mxCell id="WYwA7jNrKrz1sVTGzyhb-437" value="&lt;font color=&quot;#3399ff&quot;&gt;&lt;b&gt;26&lt;/b&gt;&lt;/font&gt;" style="text;html=1;align=center;verticalAlign=middle;whiteSpace=wrap;rounded=0;strokeWidth=4;" parent="1" vertex="1">
          <mxGeometry x="2380" y="312.75" width="30" height="20" as="geometry" />
        </mxCell>
        <mxCell id="WYwA7jNrKrz1sVTGzyhb-438" value="&lt;font color=&quot;#3399ff&quot;&gt;&lt;b&gt;27&lt;/b&gt;&lt;/font&gt;" style="text;html=1;align=center;verticalAlign=middle;whiteSpace=wrap;rounded=0;strokeWidth=4;" parent="1" vertex="1">
          <mxGeometry x="2480" y="314.25" width="30" height="20" as="geometry" />
        </mxCell>
        <mxCell id="WYwA7jNrKrz1sVTGzyhb-439" value="&lt;font color=&quot;#3399ff&quot;&gt;&lt;b&gt;27&lt;/b&gt;&lt;/font&gt;" style="text;html=1;align=center;verticalAlign=middle;whiteSpace=wrap;rounded=0;strokeWidth=4;" parent="1" vertex="1">
          <mxGeometry x="2640" y="311.25" width="30" height="20" as="geometry" />
        </mxCell>
        <mxCell id="WYwA7jNrKrz1sVTGzyhb-440" value="&lt;font color=&quot;#3399ff&quot;&gt;&lt;b&gt;28&lt;/b&gt;&lt;/font&gt;" style="text;html=1;align=center;verticalAlign=middle;whiteSpace=wrap;rounded=0;strokeWidth=4;" parent="1" vertex="1">
          <mxGeometry x="2740" y="312.75" width="30" height="20" as="geometry" />
        </mxCell>
        <mxCell id="WYwA7jNrKrz1sVTGzyhb-441" value="&lt;font color=&quot;#3399ff&quot;&gt;&lt;b&gt;28&lt;/b&gt;&lt;/font&gt;" style="text;html=1;align=center;verticalAlign=middle;whiteSpace=wrap;rounded=0;strokeWidth=4;" parent="1" vertex="1">
          <mxGeometry x="2895" y="309.75" width="30" height="20" as="geometry" />
        </mxCell>
        <mxCell id="WYwA7jNrKrz1sVTGzyhb-442" value="&lt;font color=&quot;#3399ff&quot;&gt;&lt;b&gt;29&lt;/b&gt;&lt;/font&gt;" style="text;html=1;align=center;verticalAlign=middle;whiteSpace=wrap;rounded=0;strokeWidth=4;" parent="1" vertex="1">
          <mxGeometry x="2995" y="311.25" width="30" height="20" as="geometry" />
        </mxCell>
        <mxCell id="WYwA7jNrKrz1sVTGzyhb-443" value="&lt;font color=&quot;#3399ff&quot;&gt;&lt;b&gt;30&lt;/b&gt;&lt;/font&gt;" style="text;html=1;align=center;verticalAlign=middle;whiteSpace=wrap;rounded=0;strokeWidth=4;" parent="1" vertex="1">
          <mxGeometry x="3170" y="312" width="30" height="20" as="geometry" />
        </mxCell>
        <mxCell id="WYwA7jNrKrz1sVTGzyhb-444" value="&lt;font color=&quot;#3399ff&quot;&gt;&lt;b&gt;31&lt;/b&gt;&lt;/font&gt;" style="text;html=1;align=center;verticalAlign=middle;whiteSpace=wrap;rounded=0;strokeWidth=4;" parent="1" vertex="1">
          <mxGeometry x="3270" y="313.5" width="30" height="20" as="geometry" />
        </mxCell>
        <mxCell id="WYwA7jNrKrz1sVTGzyhb-445" value="&lt;font color=&quot;#3399ff&quot;&gt;&lt;b&gt;31&lt;/b&gt;&lt;/font&gt;" style="text;html=1;align=center;verticalAlign=middle;whiteSpace=wrap;rounded=0;strokeWidth=4;" parent="1" vertex="1">
          <mxGeometry x="3380" y="312.75" width="30" height="20" as="geometry" />
        </mxCell>
        <mxCell id="WYwA7jNrKrz1sVTGzyhb-446" value="&lt;font color=&quot;#3399ff&quot;&gt;&lt;b&gt;32&lt;/b&gt;&lt;/font&gt;" style="text;html=1;align=center;verticalAlign=middle;whiteSpace=wrap;rounded=0;strokeWidth=4;" parent="1" vertex="1">
          <mxGeometry x="3480" y="314.25" width="30" height="20" as="geometry" />
        </mxCell>
        <mxCell id="WYwA7jNrKrz1sVTGzyhb-447" value="&lt;font color=&quot;#3399ff&quot;&gt;&lt;b&gt;31&lt;/b&gt;&lt;/font&gt;" style="text;html=1;align=center;verticalAlign=middle;whiteSpace=wrap;rounded=0;strokeWidth=4;" parent="1" vertex="1">
          <mxGeometry x="3380" y="138.5" width="30" height="20" as="geometry" />
        </mxCell>
        <mxCell id="WYwA7jNrKrz1sVTGzyhb-448" value="&lt;font color=&quot;#3399ff&quot;&gt;&lt;b&gt;32&lt;/b&gt;&lt;/font&gt;" style="text;html=1;align=center;verticalAlign=middle;whiteSpace=wrap;rounded=0;strokeWidth=4;" parent="1" vertex="1">
          <mxGeometry x="3480" y="140" width="30" height="20" as="geometry" />
        </mxCell>
        <mxCell id="WYwA7jNrKrz1sVTGzyhb-449" value="&lt;font color=&quot;#3399ff&quot;&gt;&lt;b&gt;31&lt;/b&gt;&lt;/font&gt;" style="text;html=1;align=center;verticalAlign=middle;whiteSpace=wrap;rounded=0;strokeWidth=4;" parent="1" vertex="1">
          <mxGeometry x="3380" y="498.5" width="30" height="20" as="geometry" />
        </mxCell>
        <mxCell id="WYwA7jNrKrz1sVTGzyhb-450" value="&lt;font color=&quot;#3399ff&quot;&gt;&lt;b&gt;32&lt;/b&gt;&lt;/font&gt;" style="text;html=1;align=center;verticalAlign=middle;whiteSpace=wrap;rounded=0;strokeWidth=4;" parent="1" vertex="1">
          <mxGeometry x="3480" y="500" width="30" height="20" as="geometry" />
        </mxCell>
        <mxCell id="WYwA7jNrKrz1sVTGzyhb-451" value="&lt;font color=&quot;#3399ff&quot;&gt;&lt;b&gt;32&lt;/b&gt;&lt;/font&gt;" style="text;html=1;align=center;verticalAlign=middle;whiteSpace=wrap;rounded=0;strokeWidth=4;" parent="1" vertex="1">
          <mxGeometry x="3620" y="312.75" width="30" height="20" as="geometry" />
        </mxCell>
        <mxCell id="WYwA7jNrKrz1sVTGzyhb-452" value="&lt;font color=&quot;#3399ff&quot;&gt;&lt;b&gt;33&lt;/b&gt;&lt;/font&gt;" style="text;html=1;align=center;verticalAlign=middle;whiteSpace=wrap;rounded=0;strokeWidth=4;" parent="1" vertex="1">
          <mxGeometry x="3720" y="314.25" width="30" height="20" as="geometry" />
        </mxCell>
        <mxCell id="WYwA7jNrKrz1sVTGzyhb-453" value="&lt;font color=&quot;#3399ff&quot;&gt;&lt;b&gt;33&lt;/b&gt;&lt;/font&gt;" style="text;html=1;align=center;verticalAlign=middle;whiteSpace=wrap;rounded=0;strokeWidth=4;" parent="1" vertex="1">
          <mxGeometry x="3860" y="311.25" width="30" height="20" as="geometry" />
        </mxCell>
        <mxCell id="WYwA7jNrKrz1sVTGzyhb-454" value="&lt;font color=&quot;#3399ff&quot;&gt;&lt;b&gt;34&lt;/b&gt;&lt;/font&gt;" style="text;html=1;align=center;verticalAlign=middle;whiteSpace=wrap;rounded=0;strokeWidth=4;" parent="1" vertex="1">
          <mxGeometry x="3960" y="312.75" width="30" height="20" as="geometry" />
        </mxCell>
        <mxCell id="WYwA7jNrKrz1sVTGzyhb-455" value="&lt;font color=&quot;#3399ff&quot;&gt;&lt;b&gt;34&lt;/b&gt;&lt;/font&gt;" style="text;html=1;align=center;verticalAlign=middle;whiteSpace=wrap;rounded=0;strokeWidth=4;" parent="1" vertex="1">
          <mxGeometry x="4100" y="308.25" width="30" height="20" as="geometry" />
        </mxCell>
        <mxCell id="WYwA7jNrKrz1sVTGzyhb-456" value="&lt;font color=&quot;#3399ff&quot;&gt;&lt;b&gt;35&lt;/b&gt;&lt;/font&gt;" style="text;html=1;align=center;verticalAlign=middle;whiteSpace=wrap;rounded=0;strokeWidth=4;" parent="1" vertex="1">
          <mxGeometry x="4200" y="309.75" width="30" height="20" as="geometry" />
        </mxCell>
        <mxCell id="WYwA7jNrKrz1sVTGzyhb-457" value="&lt;font color=&quot;#3399ff&quot;&gt;&lt;b&gt;35&lt;/b&gt;&lt;/font&gt;" style="text;html=1;align=center;verticalAlign=middle;whiteSpace=wrap;rounded=0;strokeWidth=4;" parent="1" vertex="1">
          <mxGeometry x="4340" y="308.25" width="30" height="20" as="geometry" />
        </mxCell>
        <mxCell id="WYwA7jNrKrz1sVTGzyhb-458" value="&lt;font color=&quot;#3399ff&quot;&gt;&lt;b&gt;36&lt;/b&gt;&lt;/font&gt;" style="text;html=1;align=center;verticalAlign=middle;whiteSpace=wrap;rounded=0;strokeWidth=4;" parent="1" vertex="1">
          <mxGeometry x="4440" y="309.75" width="30" height="20" as="geometry" />
        </mxCell>
        <mxCell id="WYwA7jNrKrz1sVTGzyhb-459" value="&lt;font color=&quot;#3399ff&quot;&gt;&lt;b&gt;36&lt;/b&gt;&lt;/font&gt;" style="text;html=1;align=center;verticalAlign=middle;whiteSpace=wrap;rounded=0;strokeWidth=4;" parent="1" vertex="1">
          <mxGeometry x="4580" y="308.25" width="30" height="20" as="geometry" />
        </mxCell>
        <mxCell id="WYwA7jNrKrz1sVTGzyhb-460" value="&lt;font color=&quot;#3399ff&quot;&gt;&lt;b&gt;37&lt;/b&gt;&lt;/font&gt;" style="text;html=1;align=center;verticalAlign=middle;whiteSpace=wrap;rounded=0;strokeWidth=4;" parent="1" vertex="1">
          <mxGeometry x="4680" y="309.75" width="30" height="20" as="geometry" />
        </mxCell>
        <mxCell id="WYwA7jNrKrz1sVTGzyhb-461" value="&lt;font color=&quot;#3399ff&quot;&gt;&lt;b&gt;37&lt;/b&gt;&lt;/font&gt;" style="text;html=1;align=center;verticalAlign=middle;whiteSpace=wrap;rounded=0;strokeWidth=4;" parent="1" vertex="1">
          <mxGeometry x="4820" y="310.5" width="30" height="20" as="geometry" />
        </mxCell>
        <mxCell id="WYwA7jNrKrz1sVTGzyhb-462" value="&lt;font color=&quot;#3399ff&quot;&gt;&lt;b&gt;38&lt;/b&gt;&lt;/font&gt;" style="text;html=1;align=center;verticalAlign=middle;whiteSpace=wrap;rounded=0;strokeWidth=4;" parent="1" vertex="1">
          <mxGeometry x="4920" y="312" width="30" height="20" as="geometry" />
        </mxCell>
        <mxCell id="WYwA7jNrKrz1sVTGzyhb-463" value="&lt;font color=&quot;#3399ff&quot;&gt;&lt;b&gt;38&lt;/b&gt;&lt;/font&gt;" style="text;html=1;align=center;verticalAlign=middle;whiteSpace=wrap;rounded=0;strokeWidth=4;" parent="1" vertex="1">
          <mxGeometry x="5040" y="312" width="30" height="20" as="geometry" />
        </mxCell>
        <mxCell id="WYwA7jNrKrz1sVTGzyhb-464" value="&lt;font color=&quot;#3399ff&quot;&gt;&lt;b&gt;39&lt;/b&gt;&lt;/font&gt;" style="text;html=1;align=center;verticalAlign=middle;whiteSpace=wrap;rounded=0;strokeWidth=4;" parent="1" vertex="1">
          <mxGeometry x="5140" y="313.5" width="30" height="20" as="geometry" />
        </mxCell>
        <mxCell id="WYwA7jNrKrz1sVTGzyhb-465" value="&lt;font color=&quot;#3399ff&quot;&gt;&lt;b&gt;39&lt;/b&gt;&lt;/font&gt;" style="text;html=1;align=center;verticalAlign=middle;whiteSpace=wrap;rounded=0;strokeWidth=4;" parent="1" vertex="1">
          <mxGeometry x="5246" y="312.75" width="30" height="20" as="geometry" />
        </mxCell>
        <mxCell id="WYwA7jNrKrz1sVTGzyhb-466" value="&lt;font color=&quot;#3399ff&quot;&gt;&lt;b&gt;40&lt;/b&gt;&lt;/font&gt;" style="text;html=1;align=center;verticalAlign=middle;whiteSpace=wrap;rounded=0;strokeWidth=4;" parent="1" vertex="1">
          <mxGeometry x="5346" y="314.25" width="30" height="20" as="geometry" />
        </mxCell>
        <mxCell id="WYwA7jNrKrz1sVTGzyhb-467" value="&lt;font color=&quot;#3399ff&quot;&gt;&lt;b&gt;40&lt;/b&gt;&lt;/font&gt;" style="text;html=1;align=center;verticalAlign=middle;whiteSpace=wrap;rounded=0;strokeWidth=4;" parent="1" vertex="1">
          <mxGeometry x="5480" y="312.75" width="30" height="20" as="geometry" />
        </mxCell>
        <mxCell id="WYwA7jNrKrz1sVTGzyhb-468" value="&lt;font color=&quot;#3399ff&quot;&gt;&lt;b&gt;41&lt;/b&gt;&lt;/font&gt;" style="text;html=1;align=center;verticalAlign=middle;whiteSpace=wrap;rounded=0;strokeWidth=4;" parent="1" vertex="1">
          <mxGeometry x="5580" y="314.25" width="30" height="20" as="geometry" />
        </mxCell>
        <mxCell id="WYwA7jNrKrz1sVTGzyhb-469" value="&lt;font color=&quot;#3399ff&quot;&gt;&lt;b&gt;41&lt;/b&gt;&lt;/font&gt;" style="text;html=1;align=center;verticalAlign=middle;whiteSpace=wrap;rounded=0;strokeWidth=4;" parent="1" vertex="1">
          <mxGeometry x="5710" y="312.75" width="30" height="20" as="geometry" />
        </mxCell>
        <mxCell id="WYwA7jNrKrz1sVTGzyhb-470" value="&lt;font color=&quot;#3399ff&quot;&gt;&lt;b&gt;42&lt;/b&gt;&lt;/font&gt;" style="text;html=1;align=center;verticalAlign=middle;whiteSpace=wrap;rounded=0;strokeWidth=4;" parent="1" vertex="1">
          <mxGeometry x="5810" y="314.25" width="30" height="20" as="geometry" />
        </mxCell>
        <mxCell id="WYwA7jNrKrz1sVTGzyhb-471" value="&lt;font color=&quot;#3399ff&quot;&gt;&lt;b&gt;42&lt;/b&gt;&lt;/font&gt;" style="text;html=1;align=center;verticalAlign=middle;whiteSpace=wrap;rounded=0;strokeWidth=4;" parent="1" vertex="1">
          <mxGeometry x="5950" y="312" width="30" height="20" as="geometry" />
        </mxCell>
        <mxCell id="WYwA7jNrKrz1sVTGzyhb-472" value="&lt;font color=&quot;#3399ff&quot;&gt;&lt;b&gt;44&lt;/b&gt;&lt;/font&gt;" style="text;html=1;align=center;verticalAlign=middle;whiteSpace=wrap;rounded=0;strokeWidth=4;" parent="1" vertex="1">
          <mxGeometry x="6050" y="313.5" width="30" height="20" as="geometry" />
        </mxCell>
        <mxCell id="WYwA7jNrKrz1sVTGzyhb-473" value="&lt;font color=&quot;#3399ff&quot;&gt;&lt;b&gt;44&lt;/b&gt;&lt;/font&gt;" style="text;html=1;align=center;verticalAlign=middle;whiteSpace=wrap;rounded=0;strokeWidth=4;" parent="1" vertex="1">
          <mxGeometry x="6190" y="313.5" width="30" height="20" as="geometry" />
        </mxCell>
        <mxCell id="WYwA7jNrKrz1sVTGzyhb-474" value="&lt;font color=&quot;#3399ff&quot;&gt;&lt;b&gt;45&lt;/b&gt;&lt;/font&gt;" style="text;html=1;align=center;verticalAlign=middle;whiteSpace=wrap;rounded=0;strokeWidth=4;" parent="1" vertex="1">
          <mxGeometry x="6290" y="315" width="30" height="20" as="geometry" />
        </mxCell>
        <mxCell id="WYwA7jNrKrz1sVTGzyhb-475" value="&lt;font color=&quot;#3399ff&quot;&gt;&lt;b&gt;45&lt;/b&gt;&lt;/font&gt;" style="text;html=1;align=center;verticalAlign=middle;whiteSpace=wrap;rounded=0;strokeWidth=4;" parent="1" vertex="1">
          <mxGeometry x="6420" y="310.5" width="30" height="20" as="geometry" />
        </mxCell>
        <mxCell id="WYwA7jNrKrz1sVTGzyhb-476" value="&lt;font color=&quot;#3399ff&quot;&gt;&lt;b&gt;46&lt;/b&gt;&lt;/font&gt;" style="text;html=1;align=center;verticalAlign=middle;whiteSpace=wrap;rounded=0;strokeWidth=4;" parent="1" vertex="1">
          <mxGeometry x="6520" y="312" width="30" height="20" as="geometry" />
        </mxCell>
        <mxCell id="WYwA7jNrKrz1sVTGzyhb-479" value="&lt;font color=&quot;#3399ff&quot;&gt;&lt;b&gt;46&lt;/b&gt;&lt;/font&gt;" style="text;html=1;align=center;verticalAlign=middle;whiteSpace=wrap;rounded=0;strokeWidth=4;" parent="1" vertex="1">
          <mxGeometry x="6650" y="308.25" width="30" height="20" as="geometry" />
        </mxCell>
        <mxCell id="WYwA7jNrKrz1sVTGzyhb-480" value="&lt;font color=&quot;#3399ff&quot;&gt;&lt;b&gt;47&lt;/b&gt;&lt;/font&gt;" style="text;html=1;align=center;verticalAlign=middle;whiteSpace=wrap;rounded=0;strokeWidth=4;" parent="1" vertex="1">
          <mxGeometry x="6750" y="309.75" width="30" height="20" as="geometry" />
        </mxCell>
        <mxCell id="WYwA7jNrKrz1sVTGzyhb-481" value="&lt;font color=&quot;#3399ff&quot;&gt;&lt;b&gt;47&lt;/b&gt;&lt;/font&gt;" style="text;html=1;align=center;verticalAlign=middle;whiteSpace=wrap;rounded=0;strokeWidth=4;" parent="1" vertex="1">
          <mxGeometry x="6890" y="312" width="30" height="20" as="geometry" />
        </mxCell>
        <mxCell id="WYwA7jNrKrz1sVTGzyhb-482" value="&lt;font color=&quot;#3399ff&quot;&gt;&lt;b&gt;48&lt;/b&gt;&lt;/font&gt;" style="text;html=1;align=center;verticalAlign=middle;whiteSpace=wrap;rounded=0;strokeWidth=4;" parent="1" vertex="1">
          <mxGeometry x="6990" y="313.5" width="30" height="20" as="geometry" />
        </mxCell>
        <mxCell id="WYwA7jNrKrz1sVTGzyhb-483" value="&lt;font color=&quot;#3399ff&quot;&gt;&lt;b&gt;48&lt;/b&gt;&lt;/font&gt;" style="text;html=1;align=center;verticalAlign=middle;whiteSpace=wrap;rounded=0;strokeWidth=4;" parent="1" vertex="1">
          <mxGeometry x="7130" y="311.25" width="30" height="20" as="geometry" />
        </mxCell>
        <mxCell id="WYwA7jNrKrz1sVTGzyhb-484" value="&lt;font color=&quot;#3399ff&quot;&gt;&lt;b&gt;49&lt;/b&gt;&lt;/font&gt;" style="text;html=1;align=center;verticalAlign=middle;whiteSpace=wrap;rounded=0;strokeWidth=4;" parent="1" vertex="1">
          <mxGeometry x="7230" y="312.75" width="30" height="20" as="geometry" />
        </mxCell>
        <mxCell id="WYwA7jNrKrz1sVTGzyhb-485" value="&lt;font color=&quot;#3399ff&quot;&gt;&lt;b&gt;49&lt;/b&gt;&lt;/font&gt;" style="text;html=1;align=center;verticalAlign=middle;whiteSpace=wrap;rounded=0;strokeWidth=4;" parent="1" vertex="1">
          <mxGeometry x="7390" y="312" width="30" height="20" as="geometry" />
        </mxCell>
        <mxCell id="WYwA7jNrKrz1sVTGzyhb-486" value="&lt;font color=&quot;#3399ff&quot;&gt;&lt;b&gt;50&lt;/b&gt;&lt;/font&gt;" style="text;html=1;align=center;verticalAlign=middle;whiteSpace=wrap;rounded=0;strokeWidth=4;" parent="1" vertex="1">
          <mxGeometry x="7490" y="313.5" width="30" height="20" as="geometry" />
        </mxCell>
        <mxCell id="WYwA7jNrKrz1sVTGzyhb-487" value="&lt;font color=&quot;#3399ff&quot;&gt;&lt;b&gt;Earliest start&lt;/b&gt;&lt;/font&gt;" style="text;html=1;align=center;verticalAlign=middle;whiteSpace=wrap;rounded=0;strokeWidth=4;" parent="1" vertex="1">
          <mxGeometry x="-670" y="640" width="30" height="20" as="geometry" />
        </mxCell>
        <mxCell id="WYwA7jNrKrz1sVTGzyhb-488" value="&lt;font color=&quot;#3399ff&quot;&gt;&lt;b&gt;Earliest Finish&lt;/b&gt;&lt;/font&gt;" style="text;html=1;align=center;verticalAlign=middle;whiteSpace=wrap;rounded=0;strokeWidth=4;" parent="1" vertex="1">
          <mxGeometry x="-570" y="641.5" width="30" height="20" as="geometry" />
        </mxCell>
        <mxCell id="WYwA7jNrKrz1sVTGzyhb-491" value="&lt;font style=&quot;color: rgb(255, 51, 51);&quot;&gt;&lt;b style=&quot;&quot;&gt;50&lt;/b&gt;&lt;/font&gt;" style="text;html=1;align=center;verticalAlign=middle;whiteSpace=wrap;rounded=0;strokeWidth=4;" parent="1" vertex="1">
          <mxGeometry x="7390" y="433.5" width="30" height="20" as="geometry" />
        </mxCell>
        <mxCell id="WYwA7jNrKrz1sVTGzyhb-492" value="&lt;font style=&quot;color: rgb(255, 51, 51);&quot;&gt;&lt;b style=&quot;&quot;&gt;51&lt;/b&gt;&lt;/font&gt;" style="text;html=1;align=center;verticalAlign=middle;whiteSpace=wrap;rounded=0;strokeWidth=4;" parent="1" vertex="1">
          <mxGeometry x="7490" y="435" width="30" height="20" as="geometry" />
        </mxCell>
        <mxCell id="WYwA7jNrKrz1sVTGzyhb-493" value="&lt;font style=&quot;color: rgb(255, 51, 51);&quot;&gt;&lt;b style=&quot;&quot;&gt;49&lt;/b&gt;&lt;/font&gt;" style="text;html=1;align=center;verticalAlign=middle;whiteSpace=wrap;rounded=0;strokeWidth=4;" parent="1" vertex="1">
          <mxGeometry x="7130" y="435" width="30" height="20" as="geometry" />
        </mxCell>
        <mxCell id="WYwA7jNrKrz1sVTGzyhb-494" value="&lt;font style=&quot;color: rgb(255, 51, 51);&quot;&gt;&lt;b style=&quot;&quot;&gt;50&lt;/b&gt;&lt;/font&gt;" style="text;html=1;align=center;verticalAlign=middle;whiteSpace=wrap;rounded=0;strokeWidth=4;" parent="1" vertex="1">
          <mxGeometry x="7230" y="436.5" width="30" height="20" as="geometry" />
        </mxCell>
        <mxCell id="WYwA7jNrKrz1sVTGzyhb-495" value="&lt;font style=&quot;color: rgb(255, 51, 51);&quot;&gt;&lt;b style=&quot;&quot;&gt;48&lt;/b&gt;&lt;/font&gt;" style="text;html=1;align=center;verticalAlign=middle;whiteSpace=wrap;rounded=0;strokeWidth=4;" parent="1" vertex="1">
          <mxGeometry x="6890" y="432.75" width="30" height="20" as="geometry" />
        </mxCell>
        <mxCell id="WYwA7jNrKrz1sVTGzyhb-496" value="&lt;font style=&quot;color: rgb(255, 51, 51);&quot;&gt;&lt;b style=&quot;&quot;&gt;49&lt;/b&gt;&lt;/font&gt;" style="text;html=1;align=center;verticalAlign=middle;whiteSpace=wrap;rounded=0;strokeWidth=4;" parent="1" vertex="1">
          <mxGeometry x="6990" y="432.75" width="30" height="20" as="geometry" />
        </mxCell>
        <mxCell id="WYwA7jNrKrz1sVTGzyhb-497" value="&lt;font style=&quot;color: rgb(255, 51, 51);&quot;&gt;&lt;b style=&quot;&quot;&gt;47&lt;/b&gt;&lt;/font&gt;" style="text;html=1;align=center;verticalAlign=middle;whiteSpace=wrap;rounded=0;strokeWidth=4;" parent="1" vertex="1">
          <mxGeometry x="6650" y="433.75" width="30" height="20" as="geometry" />
        </mxCell>
        <mxCell id="WYwA7jNrKrz1sVTGzyhb-498" value="&lt;font style=&quot;color: rgb(255, 51, 51);&quot;&gt;&lt;b style=&quot;&quot;&gt;48&lt;/b&gt;&lt;/font&gt;" style="text;html=1;align=center;verticalAlign=middle;whiteSpace=wrap;rounded=0;strokeWidth=4;" parent="1" vertex="1">
          <mxGeometry x="6750" y="433.5" width="30" height="20" as="geometry" />
        </mxCell>
        <mxCell id="WYwA7jNrKrz1sVTGzyhb-499" value="&lt;font style=&quot;color: rgb(255, 51, 51);&quot;&gt;&lt;b style=&quot;&quot;&gt;46&lt;/b&gt;&lt;/font&gt;" style="text;html=1;align=center;verticalAlign=middle;whiteSpace=wrap;rounded=0;strokeWidth=4;" parent="1" vertex="1">
          <mxGeometry x="6420" y="430.5" width="30" height="20" as="geometry" />
        </mxCell>
        <mxCell id="WYwA7jNrKrz1sVTGzyhb-500" value="&lt;font style=&quot;color: rgb(255, 51, 51);&quot;&gt;&lt;b style=&quot;&quot;&gt;47&lt;/b&gt;&lt;/font&gt;" style="text;html=1;align=center;verticalAlign=middle;whiteSpace=wrap;rounded=0;strokeWidth=4;" parent="1" vertex="1">
          <mxGeometry x="6520" y="432" width="30" height="20" as="geometry" />
        </mxCell>
        <mxCell id="WYwA7jNrKrz1sVTGzyhb-501" value="&lt;font style=&quot;color: rgb(255, 51, 51);&quot;&gt;&lt;b style=&quot;&quot;&gt;45&lt;/b&gt;&lt;/font&gt;" style="text;html=1;align=center;verticalAlign=middle;whiteSpace=wrap;rounded=0;strokeWidth=4;" parent="1" vertex="1">
          <mxGeometry x="6190" y="431.25" width="30" height="20" as="geometry" />
        </mxCell>
        <mxCell id="WYwA7jNrKrz1sVTGzyhb-502" value="&lt;font style=&quot;color: rgb(255, 51, 51);&quot;&gt;&lt;b style=&quot;&quot;&gt;46&lt;/b&gt;&lt;/font&gt;" style="text;html=1;align=center;verticalAlign=middle;whiteSpace=wrap;rounded=0;strokeWidth=4;" parent="1" vertex="1">
          <mxGeometry x="6290" y="432.75" width="30" height="20" as="geometry" />
        </mxCell>
        <mxCell id="WYwA7jNrKrz1sVTGzyhb-503" value="&lt;font style=&quot;color: rgb(255, 51, 51);&quot;&gt;&lt;b style=&quot;&quot;&gt;43&lt;/b&gt;&lt;/font&gt;" style="text;html=1;align=center;verticalAlign=middle;whiteSpace=wrap;rounded=0;strokeWidth=4;" parent="1" vertex="1">
          <mxGeometry x="5950" y="431.25" width="30" height="20" as="geometry" />
        </mxCell>
        <mxCell id="WYwA7jNrKrz1sVTGzyhb-504" value="&lt;font style=&quot;color: rgb(255, 51, 51);&quot;&gt;&lt;b style=&quot;&quot;&gt;45&lt;/b&gt;&lt;/font&gt;" style="text;html=1;align=center;verticalAlign=middle;whiteSpace=wrap;rounded=0;strokeWidth=4;" parent="1" vertex="1">
          <mxGeometry x="6050" y="432.75" width="30" height="20" as="geometry" />
        </mxCell>
        <mxCell id="WYwA7jNrKrz1sVTGzyhb-505" value="&lt;font style=&quot;color: rgb(255, 51, 51);&quot;&gt;&lt;b style=&quot;&quot;&gt;42&lt;/b&gt;&lt;/font&gt;" style="text;html=1;align=center;verticalAlign=middle;whiteSpace=wrap;rounded=0;strokeWidth=4;" parent="1" vertex="1">
          <mxGeometry x="5710" y="433.5" width="30" height="20" as="geometry" />
        </mxCell>
        <mxCell id="WYwA7jNrKrz1sVTGzyhb-506" value="&lt;font style=&quot;color: rgb(255, 51, 51);&quot;&gt;&lt;b style=&quot;&quot;&gt;43&lt;/b&gt;&lt;/font&gt;" style="text;html=1;align=center;verticalAlign=middle;whiteSpace=wrap;rounded=0;strokeWidth=4;" parent="1" vertex="1">
          <mxGeometry x="5810" y="435" width="30" height="20" as="geometry" />
        </mxCell>
        <mxCell id="WYwA7jNrKrz1sVTGzyhb-507" value="&lt;font style=&quot;color: rgb(255, 51, 51);&quot;&gt;&lt;b style=&quot;&quot;&gt;41&lt;/b&gt;&lt;/font&gt;" style="text;html=1;align=center;verticalAlign=middle;whiteSpace=wrap;rounded=0;strokeWidth=4;" parent="1" vertex="1">
          <mxGeometry x="5480" y="432" width="30" height="20" as="geometry" />
        </mxCell>
        <mxCell id="WYwA7jNrKrz1sVTGzyhb-508" value="&lt;font style=&quot;color: rgb(255, 51, 51);&quot;&gt;&lt;b style=&quot;&quot;&gt;42&lt;/b&gt;&lt;/font&gt;" style="text;html=1;align=center;verticalAlign=middle;whiteSpace=wrap;rounded=0;strokeWidth=4;" parent="1" vertex="1">
          <mxGeometry x="5580" y="433.5" width="30" height="20" as="geometry" />
        </mxCell>
        <mxCell id="WYwA7jNrKrz1sVTGzyhb-509" value="&lt;font style=&quot;color: rgb(255, 51, 51);&quot;&gt;&lt;b style=&quot;&quot;&gt;40&lt;/b&gt;&lt;/font&gt;" style="text;html=1;align=center;verticalAlign=middle;whiteSpace=wrap;rounded=0;strokeWidth=4;" parent="1" vertex="1">
          <mxGeometry x="5246" y="435" width="30" height="20" as="geometry" />
        </mxCell>
        <mxCell id="WYwA7jNrKrz1sVTGzyhb-510" value="&lt;font style=&quot;color: rgb(255, 51, 51);&quot;&gt;&lt;b style=&quot;&quot;&gt;41&lt;/b&gt;&lt;/font&gt;" style="text;html=1;align=center;verticalAlign=middle;whiteSpace=wrap;rounded=0;strokeWidth=4;" parent="1" vertex="1">
          <mxGeometry x="5346" y="436.5" width="30" height="20" as="geometry" />
        </mxCell>
        <mxCell id="WYwA7jNrKrz1sVTGzyhb-511" value="&lt;font style=&quot;color: rgb(255, 51, 51);&quot;&gt;&lt;b style=&quot;&quot;&gt;39&lt;/b&gt;&lt;/font&gt;" style="text;html=1;align=center;verticalAlign=middle;whiteSpace=wrap;rounded=0;strokeWidth=4;" parent="1" vertex="1">
          <mxGeometry x="5040" y="433.5" width="30" height="20" as="geometry" />
        </mxCell>
        <mxCell id="WYwA7jNrKrz1sVTGzyhb-512" value="&lt;font style=&quot;color: rgb(255, 51, 51);&quot;&gt;&lt;b style=&quot;&quot;&gt;40&lt;/b&gt;&lt;/font&gt;" style="text;html=1;align=center;verticalAlign=middle;whiteSpace=wrap;rounded=0;strokeWidth=4;" parent="1" vertex="1">
          <mxGeometry x="5140" y="435" width="30" height="20" as="geometry" />
        </mxCell>
        <mxCell id="WYwA7jNrKrz1sVTGzyhb-513" value="&lt;font style=&quot;color: rgb(255, 51, 51);&quot;&gt;&lt;b style=&quot;&quot;&gt;38&lt;/b&gt;&lt;/font&gt;" style="text;html=1;align=center;verticalAlign=middle;whiteSpace=wrap;rounded=0;strokeWidth=4;" parent="1" vertex="1">
          <mxGeometry x="4820" y="429.75" width="30" height="20" as="geometry" />
        </mxCell>
        <mxCell id="WYwA7jNrKrz1sVTGzyhb-514" value="&lt;font style=&quot;color: rgb(255, 51, 51);&quot;&gt;&lt;b style=&quot;&quot;&gt;39&lt;/b&gt;&lt;/font&gt;" style="text;html=1;align=center;verticalAlign=middle;whiteSpace=wrap;rounded=0;strokeWidth=4;" parent="1" vertex="1">
          <mxGeometry x="4920" y="431.25" width="30" height="20" as="geometry" />
        </mxCell>
        <mxCell id="WYwA7jNrKrz1sVTGzyhb-515" value="&lt;font style=&quot;color: rgb(255, 51, 51);&quot;&gt;&lt;b style=&quot;&quot;&gt;37&lt;/b&gt;&lt;/font&gt;" style="text;html=1;align=center;verticalAlign=middle;whiteSpace=wrap;rounded=0;strokeWidth=4;" parent="1" vertex="1">
          <mxGeometry x="4580" y="430.5" width="30" height="20" as="geometry" />
        </mxCell>
        <mxCell id="WYwA7jNrKrz1sVTGzyhb-516" value="&lt;font style=&quot;color: rgb(255, 51, 51);&quot;&gt;&lt;b style=&quot;&quot;&gt;38&lt;/b&gt;&lt;/font&gt;" style="text;html=1;align=center;verticalAlign=middle;whiteSpace=wrap;rounded=0;strokeWidth=4;" parent="1" vertex="1">
          <mxGeometry x="4680" y="432" width="30" height="20" as="geometry" />
        </mxCell>
        <mxCell id="WYwA7jNrKrz1sVTGzyhb-517" value="&lt;font style=&quot;color: rgb(255, 51, 51);&quot;&gt;&lt;b style=&quot;&quot;&gt;36&lt;/b&gt;&lt;/font&gt;" style="text;html=1;align=center;verticalAlign=middle;whiteSpace=wrap;rounded=0;strokeWidth=4;" parent="1" vertex="1">
          <mxGeometry x="4340" y="430" width="30" height="20" as="geometry" />
        </mxCell>
        <mxCell id="WYwA7jNrKrz1sVTGzyhb-518" value="&lt;font style=&quot;color: rgb(255, 51, 51);&quot;&gt;&lt;b style=&quot;&quot;&gt;37&lt;/b&gt;&lt;/font&gt;" style="text;html=1;align=center;verticalAlign=middle;whiteSpace=wrap;rounded=0;strokeWidth=4;" parent="1" vertex="1">
          <mxGeometry x="4440" y="431.5" width="30" height="20" as="geometry" />
        </mxCell>
        <mxCell id="WYwA7jNrKrz1sVTGzyhb-519" value="&lt;font style=&quot;color: rgb(255, 51, 51);&quot;&gt;&lt;b style=&quot;&quot;&gt;35&lt;/b&gt;&lt;/font&gt;" style="text;html=1;align=center;verticalAlign=middle;whiteSpace=wrap;rounded=0;strokeWidth=4;" parent="1" vertex="1">
          <mxGeometry x="4100" y="433.5" width="30" height="20" as="geometry" />
        </mxCell>
        <mxCell id="WYwA7jNrKrz1sVTGzyhb-520" value="&lt;font style=&quot;color: rgb(255, 51, 51);&quot;&gt;&lt;b style=&quot;&quot;&gt;36&lt;/b&gt;&lt;/font&gt;" style="text;html=1;align=center;verticalAlign=middle;whiteSpace=wrap;rounded=0;strokeWidth=4;" parent="1" vertex="1">
          <mxGeometry x="4200" y="435" width="30" height="20" as="geometry" />
        </mxCell>
        <mxCell id="WYwA7jNrKrz1sVTGzyhb-521" value="&lt;font style=&quot;color: rgb(255, 51, 51);&quot;&gt;&lt;b style=&quot;&quot;&gt;34&lt;/b&gt;&lt;/font&gt;" style="text;html=1;align=center;verticalAlign=middle;whiteSpace=wrap;rounded=0;strokeWidth=4;" parent="1" vertex="1">
          <mxGeometry x="3860" y="434.25" width="30" height="20" as="geometry" />
        </mxCell>
        <mxCell id="WYwA7jNrKrz1sVTGzyhb-522" value="&lt;font style=&quot;color: rgb(255, 51, 51);&quot;&gt;&lt;b style=&quot;&quot;&gt;35&lt;/b&gt;&lt;/font&gt;" style="text;html=1;align=center;verticalAlign=middle;whiteSpace=wrap;rounded=0;strokeWidth=4;" parent="1" vertex="1">
          <mxGeometry x="3960" y="435.75" width="30" height="20" as="geometry" />
        </mxCell>
        <mxCell id="WYwA7jNrKrz1sVTGzyhb-524" value="&lt;font style=&quot;color: rgb(255, 51, 51);&quot;&gt;&lt;b style=&quot;&quot;&gt;33&lt;/b&gt;&lt;/font&gt;" style="text;html=1;align=center;verticalAlign=middle;whiteSpace=wrap;rounded=0;strokeWidth=4;" parent="1" vertex="1">
          <mxGeometry x="3620" y="430.5" width="30" height="20" as="geometry" />
        </mxCell>
        <mxCell id="WYwA7jNrKrz1sVTGzyhb-525" value="&lt;font style=&quot;color: rgb(255, 51, 51);&quot;&gt;&lt;b style=&quot;&quot;&gt;34&lt;/b&gt;&lt;/font&gt;" style="text;html=1;align=center;verticalAlign=middle;whiteSpace=wrap;rounded=0;strokeWidth=4;" parent="1" vertex="1">
          <mxGeometry x="3720" y="432" width="30" height="20" as="geometry" />
        </mxCell>
        <mxCell id="WYwA7jNrKrz1sVTGzyhb-527" value="&lt;font style=&quot;color: rgb(255, 51, 51);&quot;&gt;&lt;b style=&quot;&quot;&gt;32&lt;/b&gt;&lt;/font&gt;" style="text;html=1;align=center;verticalAlign=middle;whiteSpace=wrap;rounded=0;strokeWidth=4;" parent="1" vertex="1">
          <mxGeometry x="3380" y="259.75" width="30" height="20" as="geometry" />
        </mxCell>
        <mxCell id="WYwA7jNrKrz1sVTGzyhb-528" value="&lt;font style=&quot;color: rgb(255, 51, 51);&quot;&gt;&lt;b style=&quot;&quot;&gt;33&lt;/b&gt;&lt;/font&gt;" style="text;html=1;align=center;verticalAlign=middle;whiteSpace=wrap;rounded=0;strokeWidth=4;" parent="1" vertex="1">
          <mxGeometry x="3480" y="261.25" width="30" height="20" as="geometry" />
        </mxCell>
        <mxCell id="WYwA7jNrKrz1sVTGzyhb-529" value="&lt;font style=&quot;color: rgb(255, 51, 51);&quot;&gt;&lt;b style=&quot;&quot;&gt;32&lt;/b&gt;&lt;/font&gt;" style="text;html=1;align=center;verticalAlign=middle;whiteSpace=wrap;rounded=0;strokeWidth=4;" parent="1" vertex="1">
          <mxGeometry x="3380" y="430.75" width="30" height="20" as="geometry" />
        </mxCell>
        <mxCell id="WYwA7jNrKrz1sVTGzyhb-530" value="&lt;font style=&quot;color: rgb(255, 51, 51);&quot;&gt;&lt;b style=&quot;&quot;&gt;33&lt;/b&gt;&lt;/font&gt;" style="text;html=1;align=center;verticalAlign=middle;whiteSpace=wrap;rounded=0;strokeWidth=4;" parent="1" vertex="1">
          <mxGeometry x="3480" y="432.25" width="30" height="20" as="geometry" />
        </mxCell>
        <mxCell id="WYwA7jNrKrz1sVTGzyhb-531" value="&lt;font style=&quot;color: rgb(255, 51, 51);&quot;&gt;&lt;b style=&quot;&quot;&gt;32&lt;/b&gt;&lt;/font&gt;" style="text;html=1;align=center;verticalAlign=middle;whiteSpace=wrap;rounded=0;strokeWidth=4;" parent="1" vertex="1">
          <mxGeometry x="3380" y="618.5" width="30" height="20" as="geometry" />
        </mxCell>
        <mxCell id="WYwA7jNrKrz1sVTGzyhb-532" value="&lt;font style=&quot;color: rgb(255, 51, 51);&quot;&gt;&lt;b style=&quot;&quot;&gt;33&lt;/b&gt;&lt;/font&gt;" style="text;html=1;align=center;verticalAlign=middle;whiteSpace=wrap;rounded=0;strokeWidth=4;" parent="1" vertex="1">
          <mxGeometry x="3480" y="620" width="30" height="20" as="geometry" />
        </mxCell>
        <mxCell id="WYwA7jNrKrz1sVTGzyhb-533" value="&lt;font style=&quot;color: rgb(255, 51, 51);&quot;&gt;&lt;b style=&quot;&quot;&gt;31&lt;/b&gt;&lt;/font&gt;" style="text;html=1;align=center;verticalAlign=middle;whiteSpace=wrap;rounded=0;strokeWidth=4;" parent="1" vertex="1">
          <mxGeometry x="3170" y="432.75" width="30" height="20" as="geometry" />
        </mxCell>
        <mxCell id="WYwA7jNrKrz1sVTGzyhb-534" value="&lt;font style=&quot;color: rgb(255, 51, 51);&quot;&gt;&lt;b style=&quot;&quot;&gt;32&lt;/b&gt;&lt;/font&gt;" style="text;html=1;align=center;verticalAlign=middle;whiteSpace=wrap;rounded=0;strokeWidth=4;" parent="1" vertex="1">
          <mxGeometry x="3270" y="434.25" width="30" height="20" as="geometry" />
        </mxCell>
        <mxCell id="WYwA7jNrKrz1sVTGzyhb-535" value="&lt;font style=&quot;color: rgb(255, 51, 51);&quot;&gt;&lt;b style=&quot;&quot;&gt;30&lt;/b&gt;&lt;/font&gt;" style="text;html=1;align=center;verticalAlign=middle;whiteSpace=wrap;rounded=0;strokeWidth=4;" parent="1" vertex="1">
          <mxGeometry x="2895" y="435" width="30" height="20" as="geometry" />
        </mxCell>
        <mxCell id="WYwA7jNrKrz1sVTGzyhb-536" value="&lt;font style=&quot;color: rgb(255, 51, 51);&quot;&gt;&lt;b style=&quot;&quot;&gt;31&lt;/b&gt;&lt;/font&gt;" style="text;html=1;align=center;verticalAlign=middle;whiteSpace=wrap;rounded=0;strokeWidth=4;" parent="1" vertex="1">
          <mxGeometry x="2995" y="436.5" width="30" height="20" as="geometry" />
        </mxCell>
        <mxCell id="WYwA7jNrKrz1sVTGzyhb-537" value="&lt;font style=&quot;color: rgb(255, 51, 51);&quot;&gt;&lt;b style=&quot;&quot;&gt;29&lt;/b&gt;&lt;/font&gt;" style="text;html=1;align=center;verticalAlign=middle;whiteSpace=wrap;rounded=0;strokeWidth=4;" parent="1" vertex="1">
          <mxGeometry x="2640" y="435.75" width="30" height="20" as="geometry" />
        </mxCell>
        <mxCell id="WYwA7jNrKrz1sVTGzyhb-538" value="&lt;font style=&quot;color: rgb(255, 51, 51);&quot;&gt;&lt;b style=&quot;&quot;&gt;30&lt;/b&gt;&lt;/font&gt;" style="text;html=1;align=center;verticalAlign=middle;whiteSpace=wrap;rounded=0;strokeWidth=4;" parent="1" vertex="1">
          <mxGeometry x="2740" y="437.25" width="30" height="20" as="geometry" />
        </mxCell>
        <mxCell id="WYwA7jNrKrz1sVTGzyhb-540" value="&lt;font style=&quot;color: rgb(255, 51, 51);&quot;&gt;&lt;b style=&quot;&quot;&gt;28&lt;/b&gt;&lt;/font&gt;" style="text;html=1;align=center;verticalAlign=middle;whiteSpace=wrap;rounded=0;strokeWidth=4;" parent="1" vertex="1">
          <mxGeometry x="2380" y="603" width="30" height="20" as="geometry" />
        </mxCell>
        <mxCell id="WYwA7jNrKrz1sVTGzyhb-541" value="&lt;font style=&quot;color: rgb(255, 51, 51);&quot;&gt;&lt;b style=&quot;&quot;&gt;29&lt;/b&gt;&lt;/font&gt;" style="text;html=1;align=center;verticalAlign=middle;whiteSpace=wrap;rounded=0;strokeWidth=4;" parent="1" vertex="1">
          <mxGeometry x="2480" y="604.5" width="30" height="20" as="geometry" />
        </mxCell>
        <mxCell id="WYwA7jNrKrz1sVTGzyhb-542" value="&lt;font style=&quot;color: rgb(255, 51, 51);&quot;&gt;&lt;b style=&quot;&quot;&gt;28&lt;/b&gt;&lt;/font&gt;" style="text;html=1;align=center;verticalAlign=middle;whiteSpace=wrap;rounded=0;strokeWidth=4;" parent="1" vertex="1">
          <mxGeometry x="2380" y="435" width="30" height="20" as="geometry" />
        </mxCell>
        <mxCell id="WYwA7jNrKrz1sVTGzyhb-543" value="&lt;font color=&quot;#ff3333&quot;&gt;&lt;b&gt;29&lt;/b&gt;&lt;/font&gt;" style="text;html=1;align=center;verticalAlign=middle;whiteSpace=wrap;rounded=0;strokeWidth=4;" parent="1" vertex="1">
          <mxGeometry x="2480" y="436.5" width="30" height="20" as="geometry" />
        </mxCell>
        <mxCell id="WYwA7jNrKrz1sVTGzyhb-544" value="&lt;font style=&quot;color: rgb(255, 51, 51);&quot;&gt;&lt;b style=&quot;&quot;&gt;26&lt;/b&gt;&lt;/font&gt;" style="text;html=1;align=center;verticalAlign=middle;whiteSpace=wrap;rounded=0;strokeWidth=4;" parent="1" vertex="1">
          <mxGeometry x="2130" y="432.25" width="30" height="20" as="geometry" />
        </mxCell>
        <mxCell id="WYwA7jNrKrz1sVTGzyhb-545" value="&lt;font style=&quot;color: rgb(255, 51, 51);&quot;&gt;&lt;b style=&quot;&quot;&gt;28&lt;/b&gt;&lt;/font&gt;" style="text;html=1;align=center;verticalAlign=middle;whiteSpace=wrap;rounded=0;strokeWidth=4;" parent="1" vertex="1">
          <mxGeometry x="2230" y="433.75" width="30" height="20" as="geometry" />
        </mxCell>
        <mxCell id="WYwA7jNrKrz1sVTGzyhb-546" value="&lt;font style=&quot;color: rgb(255, 51, 51);&quot;&gt;&lt;b style=&quot;&quot;&gt;25&lt;/b&gt;&lt;/font&gt;" style="text;html=1;align=center;verticalAlign=middle;whiteSpace=wrap;rounded=0;strokeWidth=4;" parent="1" vertex="1">
          <mxGeometry x="1900" y="430.75" width="30" height="20" as="geometry" />
        </mxCell>
        <mxCell id="WYwA7jNrKrz1sVTGzyhb-547" value="&lt;font style=&quot;color: rgb(255, 51, 51);&quot;&gt;&lt;b style=&quot;&quot;&gt;26&lt;/b&gt;&lt;/font&gt;" style="text;html=1;align=center;verticalAlign=middle;whiteSpace=wrap;rounded=0;strokeWidth=4;" parent="1" vertex="1">
          <mxGeometry x="2000" y="432.25" width="30" height="20" as="geometry" />
        </mxCell>
        <mxCell id="WYwA7jNrKrz1sVTGzyhb-548" value="&lt;font style=&quot;color: rgb(255, 51, 51);&quot;&gt;&lt;b style=&quot;&quot;&gt;27&lt;/b&gt;&lt;/font&gt;" style="text;html=1;align=center;verticalAlign=middle;whiteSpace=wrap;rounded=0;strokeWidth=4;" parent="1" vertex="1">
          <mxGeometry x="2130" y="603.75" width="30" height="20" as="geometry" />
        </mxCell>
        <mxCell id="WYwA7jNrKrz1sVTGzyhb-549" value="&lt;font style=&quot;color: rgb(255, 51, 51);&quot;&gt;&lt;b style=&quot;&quot;&gt;28&lt;/b&gt;&lt;/font&gt;" style="text;html=1;align=center;verticalAlign=middle;whiteSpace=wrap;rounded=0;strokeWidth=4;" parent="1" vertex="1">
          <mxGeometry x="2230" y="605.25" width="30" height="20" as="geometry" />
        </mxCell>
        <mxCell id="WYwA7jNrKrz1sVTGzyhb-554" value="&lt;font style=&quot;color: rgb(255, 51, 51);&quot;&gt;&lt;b style=&quot;&quot;&gt;26&lt;/b&gt;&lt;/font&gt;" style="text;html=1;align=center;verticalAlign=middle;whiteSpace=wrap;rounded=0;strokeWidth=4;" parent="1" vertex="1">
          <mxGeometry x="1900" y="604.5" width="30" height="20" as="geometry" />
        </mxCell>
        <mxCell id="WYwA7jNrKrz1sVTGzyhb-555" value="&lt;font style=&quot;color: rgb(255, 51, 51);&quot;&gt;&lt;b style=&quot;&quot;&gt;27&lt;/b&gt;&lt;/font&gt;" style="text;html=1;align=center;verticalAlign=middle;whiteSpace=wrap;rounded=0;strokeWidth=4;" parent="1" vertex="1">
          <mxGeometry x="2000" y="606" width="30" height="20" as="geometry" />
        </mxCell>
        <mxCell id="WYwA7jNrKrz1sVTGzyhb-557" value="&lt;font style=&quot;color: rgb(255, 51, 51);&quot;&gt;&lt;b style=&quot;&quot;&gt;23&lt;/b&gt;&lt;/font&gt;" style="text;html=1;align=center;verticalAlign=middle;whiteSpace=wrap;rounded=0;strokeWidth=4;" parent="1" vertex="1">
          <mxGeometry x="1690" y="541.5" width="30" height="20" as="geometry" />
        </mxCell>
        <mxCell id="WYwA7jNrKrz1sVTGzyhb-558" value="&lt;font style=&quot;color: rgb(255, 51, 51);&quot;&gt;&lt;b style=&quot;&quot;&gt;25&lt;/b&gt;&lt;/font&gt;" style="text;html=1;align=center;verticalAlign=middle;whiteSpace=wrap;rounded=0;strokeWidth=4;" parent="1" vertex="1">
          <mxGeometry x="1790" y="543" width="30" height="20" as="geometry" />
        </mxCell>
        <mxCell id="WYwA7jNrKrz1sVTGzyhb-559" value="&lt;font style=&quot;color: rgb(255, 51, 51);&quot;&gt;&lt;b style=&quot;&quot;&gt;21&lt;/b&gt;&lt;/font&gt;" style="text;html=1;align=center;verticalAlign=middle;whiteSpace=wrap;rounded=0;strokeWidth=4;" parent="1" vertex="1">
          <mxGeometry x="1430" y="365" width="30" height="20" as="geometry" />
        </mxCell>
        <mxCell id="WYwA7jNrKrz1sVTGzyhb-560" value="&lt;font color=&quot;#ff3333&quot;&gt;&lt;b&gt;23&lt;/b&gt;&lt;/font&gt;" style="text;html=1;align=center;verticalAlign=middle;whiteSpace=wrap;rounded=0;strokeWidth=4;" parent="1" vertex="1">
          <mxGeometry x="1530" y="366.5" width="30" height="23.5" as="geometry" />
        </mxCell>
        <mxCell id="WYwA7jNrKrz1sVTGzyhb-561" value="&lt;font style=&quot;color: rgb(255, 51, 51);&quot;&gt;&lt;b style=&quot;&quot;&gt;21&lt;/b&gt;&lt;/font&gt;" style="text;html=1;align=center;verticalAlign=middle;whiteSpace=wrap;rounded=0;strokeWidth=4;" parent="1" vertex="1">
          <mxGeometry x="1430" y="539" width="30" height="20" as="geometry" />
        </mxCell>
        <mxCell id="WYwA7jNrKrz1sVTGzyhb-562" value="&lt;font style=&quot;color: rgb(255, 51, 51);&quot;&gt;&lt;b style=&quot;&quot;&gt;23&lt;/b&gt;&lt;/font&gt;" style="text;html=1;align=center;verticalAlign=middle;whiteSpace=wrap;rounded=0;strokeWidth=4;" parent="1" vertex="1">
          <mxGeometry x="1530" y="540.5" width="30" height="23.5" as="geometry" />
        </mxCell>
        <mxCell id="WYwA7jNrKrz1sVTGzyhb-563" value="&lt;font style=&quot;color: rgb(255, 51, 51);&quot;&gt;&lt;b style=&quot;&quot;&gt;18&lt;/b&gt;&lt;/font&gt;" style="text;html=1;align=center;verticalAlign=middle;whiteSpace=wrap;rounded=0;strokeWidth=4;" parent="1" vertex="1">
          <mxGeometry x="1160" y="539.75" width="30" height="20" as="geometry" />
        </mxCell>
        <mxCell id="WYwA7jNrKrz1sVTGzyhb-564" value="&lt;font style=&quot;color: rgb(255, 51, 51);&quot;&gt;&lt;b style=&quot;&quot;&gt;21&lt;/b&gt;&lt;/font&gt;" style="text;html=1;align=center;verticalAlign=middle;whiteSpace=wrap;rounded=0;strokeWidth=4;" parent="1" vertex="1">
          <mxGeometry x="1260" y="541.25" width="30" height="23.5" as="geometry" />
        </mxCell>
        <mxCell id="WYwA7jNrKrz1sVTGzyhb-565" value="&lt;font color=&quot;#ff3333&quot;&gt;&lt;b&gt;19&lt;/b&gt;&lt;/font&gt;" style="text;html=1;align=center;verticalAlign=middle;whiteSpace=wrap;rounded=0;strokeWidth=4;" parent="1" vertex="1">
          <mxGeometry x="1160" y="362.5" width="30" height="20" as="geometry" />
        </mxCell>
        <mxCell id="WYwA7jNrKrz1sVTGzyhb-566" value="&lt;font style=&quot;color: rgb(255, 51, 51);&quot;&gt;&lt;b style=&quot;&quot;&gt;21&lt;/b&gt;&lt;/font&gt;" style="text;html=1;align=center;verticalAlign=middle;whiteSpace=wrap;rounded=0;strokeWidth=4;" parent="1" vertex="1">
          <mxGeometry x="1260" y="364" width="30" height="23.5" as="geometry" />
        </mxCell>
        <mxCell id="WYwA7jNrKrz1sVTGzyhb-567" value="&lt;font style=&quot;color: rgb(255, 51, 51);&quot;&gt;&lt;b style=&quot;&quot;&gt;15&lt;/b&gt;&lt;/font&gt;" style="text;html=1;align=center;verticalAlign=middle;whiteSpace=wrap;rounded=0;strokeWidth=4;" parent="1" vertex="1">
          <mxGeometry x="900" y="539.75" width="30" height="20" as="geometry" />
        </mxCell>
        <mxCell id="WYwA7jNrKrz1sVTGzyhb-568" value="&lt;font style=&quot;color: rgb(255, 51, 51);&quot;&gt;&lt;b style=&quot;&quot;&gt;18&lt;/b&gt;&lt;/font&gt;" style="text;html=1;align=center;verticalAlign=middle;whiteSpace=wrap;rounded=0;strokeWidth=4;" parent="1" vertex="1">
          <mxGeometry x="1000" y="541.25" width="30" height="23.5" as="geometry" />
        </mxCell>
        <mxCell id="WYwA7jNrKrz1sVTGzyhb-570" value="&lt;font style=&quot;color: rgb(255, 51, 51);&quot;&gt;&lt;b style=&quot;&quot;&gt;17&lt;/b&gt;&lt;/font&gt;" style="text;html=1;align=center;verticalAlign=middle;whiteSpace=wrap;rounded=0;strokeWidth=4;" parent="1" vertex="1">
          <mxGeometry x="900" y="360" width="30" height="20" as="geometry" />
        </mxCell>
        <mxCell id="WYwA7jNrKrz1sVTGzyhb-571" value="&lt;font style=&quot;color: rgb(255, 51, 51);&quot;&gt;&lt;b style=&quot;&quot;&gt;19&lt;/b&gt;&lt;/font&gt;" style="text;html=1;align=center;verticalAlign=middle;whiteSpace=wrap;rounded=0;strokeWidth=4;" parent="1" vertex="1">
          <mxGeometry x="1000" y="361.5" width="30" height="23.5" as="geometry" />
        </mxCell>
        <mxCell id="WYwA7jNrKrz1sVTGzyhb-572" value="&lt;font style=&quot;color: rgb(255, 51, 51);&quot;&gt;&lt;b style=&quot;&quot;&gt;13&lt;/b&gt;&lt;/font&gt;" style="text;html=1;align=center;verticalAlign=middle;whiteSpace=wrap;rounded=0;strokeWidth=4;" parent="1" vertex="1">
          <mxGeometry x="650" y="541.5" width="30" height="20" as="geometry" />
        </mxCell>
        <mxCell id="WYwA7jNrKrz1sVTGzyhb-573" value="&lt;font style=&quot;color: rgb(255, 51, 51);&quot;&gt;&lt;b style=&quot;&quot;&gt;15&lt;/b&gt;&lt;/font&gt;" style="text;html=1;align=center;verticalAlign=middle;whiteSpace=wrap;rounded=0;strokeWidth=4;" parent="1" vertex="1">
          <mxGeometry x="750" y="543" width="30" height="23.5" as="geometry" />
        </mxCell>
        <mxCell id="WYwA7jNrKrz1sVTGzyhb-574" value="&lt;font style=&quot;color: rgb(255, 51, 51);&quot;&gt;&lt;b style=&quot;&quot;&gt;14&lt;/b&gt;&lt;/font&gt;" style="text;html=1;align=center;verticalAlign=middle;whiteSpace=wrap;rounded=0;strokeWidth=4;" parent="1" vertex="1">
          <mxGeometry x="650" y="360" width="30" height="20" as="geometry" />
        </mxCell>
        <mxCell id="WYwA7jNrKrz1sVTGzyhb-575" value="&lt;font style=&quot;color: rgb(255, 51, 51);&quot;&gt;&lt;b style=&quot;&quot;&gt;17&lt;/b&gt;&lt;/font&gt;" style="text;html=1;align=center;verticalAlign=middle;whiteSpace=wrap;rounded=0;strokeWidth=4;" parent="1" vertex="1">
          <mxGeometry x="750" y="361.5" width="30" height="23.5" as="geometry" />
        </mxCell>
        <mxCell id="WYwA7jNrKrz1sVTGzyhb-576" value="&lt;font style=&quot;color: rgb(255, 51, 51);&quot;&gt;&lt;b style=&quot;&quot;&gt;11&lt;/b&gt;&lt;/font&gt;" style="text;html=1;align=center;verticalAlign=middle;whiteSpace=wrap;rounded=0;strokeWidth=4;" parent="1" vertex="1">
          <mxGeometry x="420" y="539" width="30" height="20" as="geometry" />
        </mxCell>
        <mxCell id="WYwA7jNrKrz1sVTGzyhb-577" value="&lt;font style=&quot;color: rgb(255, 51, 51);&quot;&gt;&lt;b style=&quot;&quot;&gt;13&lt;/b&gt;&lt;/font&gt;" style="text;html=1;align=center;verticalAlign=middle;whiteSpace=wrap;rounded=0;strokeWidth=4;" parent="1" vertex="1">
          <mxGeometry x="520" y="540.5" width="30" height="23.5" as="geometry" />
        </mxCell>
        <mxCell id="WYwA7jNrKrz1sVTGzyhb-578" value="&lt;font style=&quot;color: rgb(255, 51, 51);&quot;&gt;&lt;b style=&quot;&quot;&gt;11&lt;/b&gt;&lt;/font&gt;" style="text;html=1;align=center;verticalAlign=middle;whiteSpace=wrap;rounded=0;strokeWidth=4;" parent="1" vertex="1">
          <mxGeometry x="420" y="363.25" width="30" height="20" as="geometry" />
        </mxCell>
        <mxCell id="WYwA7jNrKrz1sVTGzyhb-579" value="&lt;font style=&quot;color: rgb(255, 51, 51);&quot;&gt;&lt;b style=&quot;&quot;&gt;14&lt;/b&gt;&lt;/font&gt;" style="text;html=1;align=center;verticalAlign=middle;whiteSpace=wrap;rounded=0;strokeWidth=4;" parent="1" vertex="1">
          <mxGeometry x="520" y="364.75" width="30" height="23.5" as="geometry" />
        </mxCell>
        <mxCell id="WYwA7jNrKrz1sVTGzyhb-580" value="&lt;font style=&quot;color: rgb(255, 51, 51);&quot;&gt;&lt;b style=&quot;&quot;&gt;8&lt;/b&gt;&lt;/font&gt;" style="text;html=1;align=center;verticalAlign=middle;whiteSpace=wrap;rounded=0;strokeWidth=4;" parent="1" vertex="1">
          <mxGeometry x="200" y="460.75" width="30" height="20" as="geometry" />
        </mxCell>
        <mxCell id="WYwA7jNrKrz1sVTGzyhb-581" value="&lt;font style=&quot;color: rgb(255, 51, 51);&quot;&gt;&lt;b style=&quot;&quot;&gt;11&lt;/b&gt;&lt;/font&gt;" style="text;html=1;align=center;verticalAlign=middle;whiteSpace=wrap;rounded=0;strokeWidth=4;" parent="1" vertex="1">
          <mxGeometry x="300" y="462.25" width="30" height="23.5" as="geometry" />
        </mxCell>
        <mxCell id="WYwA7jNrKrz1sVTGzyhb-582" value="&lt;font style=&quot;color: rgb(255, 51, 51);&quot;&gt;&lt;b style=&quot;&quot;&gt;6&lt;/b&gt;&lt;/font&gt;" style="text;html=1;align=center;verticalAlign=middle;whiteSpace=wrap;rounded=0;strokeWidth=4;" parent="1" vertex="1">
          <mxGeometry x="-100" y="459" width="30" height="20" as="geometry" />
        </mxCell>
        <mxCell id="WYwA7jNrKrz1sVTGzyhb-583" value="&lt;font style=&quot;color: rgb(255, 51, 51);&quot;&gt;&lt;b style=&quot;&quot;&gt;8&lt;/b&gt;&lt;/font&gt;" style="text;html=1;align=center;verticalAlign=middle;whiteSpace=wrap;rounded=0;strokeWidth=4;" parent="1" vertex="1">
          <mxGeometry y="460.5" width="30" height="23.5" as="geometry" />
        </mxCell>
        <mxCell id="WYwA7jNrKrz1sVTGzyhb-584" value="&lt;font style=&quot;color: rgb(255, 51, 51);&quot;&gt;&lt;b style=&quot;&quot;&gt;4&lt;/b&gt;&lt;/font&gt;" style="text;html=1;align=center;verticalAlign=middle;whiteSpace=wrap;rounded=0;strokeWidth=4;" parent="1" vertex="1">
          <mxGeometry x="-380" y="457.25" width="30" height="20" as="geometry" />
        </mxCell>
        <mxCell id="WYwA7jNrKrz1sVTGzyhb-585" value="&lt;font style=&quot;color: rgb(255, 51, 51);&quot;&gt;&lt;b style=&quot;&quot;&gt;6&lt;/b&gt;&lt;/font&gt;" style="text;html=1;align=center;verticalAlign=middle;whiteSpace=wrap;rounded=0;strokeWidth=4;" parent="1" vertex="1">
          <mxGeometry x="-280" y="458.75" width="30" height="23.5" as="geometry" />
        </mxCell>
        <mxCell id="WYwA7jNrKrz1sVTGzyhb-586" value="&lt;font style=&quot;color: rgb(255, 51, 51);&quot;&gt;&lt;b style=&quot;&quot;&gt;2&lt;/b&gt;&lt;/font&gt;" style="text;html=1;align=center;verticalAlign=middle;whiteSpace=wrap;rounded=0;strokeWidth=4;" parent="1" vertex="1">
          <mxGeometry x="-670" y="459" width="30" height="20" as="geometry" />
        </mxCell>
        <mxCell id="WYwA7jNrKrz1sVTGzyhb-587" value="&lt;font style=&quot;color: rgb(255, 51, 51);&quot;&gt;&lt;b style=&quot;&quot;&gt;4&lt;/b&gt;&lt;/font&gt;" style="text;html=1;align=center;verticalAlign=middle;whiteSpace=wrap;rounded=0;strokeWidth=4;" parent="1" vertex="1">
          <mxGeometry x="-570" y="460.5" width="30" height="23.5" as="geometry" />
        </mxCell>
        <mxCell id="WYwA7jNrKrz1sVTGzyhb-588" value="&lt;font style=&quot;color: rgb(255, 51, 51);&quot;&gt;&lt;b style=&quot;&quot;&gt;Latest Start&lt;/b&gt;&lt;/font&gt;" style="text;html=1;align=center;verticalAlign=middle;whiteSpace=wrap;rounded=0;strokeWidth=4;" parent="1" vertex="1">
          <mxGeometry x="-670" y="771.5" width="30" height="20" as="geometry" />
        </mxCell>
        <mxCell id="WYwA7jNrKrz1sVTGzyhb-589" value="&lt;font style=&quot;color: rgb(255, 51, 51);&quot;&gt;&lt;b style=&quot;&quot;&gt;Latest Finish&lt;/b&gt;&lt;/font&gt;" style="text;html=1;align=center;verticalAlign=middle;whiteSpace=wrap;rounded=0;strokeWidth=4;" parent="1" vertex="1">
          <mxGeometry x="-570" y="771.5" width="30" height="23.5" as="geometry" />
        </mxCell>
        <mxCell id="WYwA7jNrKrz1sVTGzyhb-590" value="" style="endArrow=classic;html=1;rounded=0;entryX=0.333;entryY=0.45;entryDx=0;entryDy=0;entryPerimeter=0;" parent="1" target="WYwA7jNrKrz1sVTGzyhb-393" edge="1">
          <mxGeometry width="50" height="50" relative="1" as="geometry">
            <mxPoint x="-490" y="750" as="sourcePoint" />
            <mxPoint x="-530" y="750" as="targetPoint" />
          </mxGeometry>
        </mxCell>
        <mxCell id="WYwA7jNrKrz1sVTGzyhb-592" value="" style="endArrow=classic;html=1;rounded=0;" parent="1" edge="1">
          <mxGeometry width="50" height="50" relative="1" as="geometry">
            <mxPoint x="-720" y="752" as="sourcePoint" />
            <mxPoint x="-655" y="752" as="targetPoint" />
          </mxGeometry>
        </mxCell>
        <mxCell id="WYwA7jNrKrz1sVTGzyhb-593" value="" style="endArrow=classic;html=1;rounded=0;entryX=0.5;entryY=0.5;entryDx=0;entryDy=0;entryPerimeter=0;" parent="1" target="WYwA7jNrKrz1sVTGzyhb-389" edge="1">
          <mxGeometry width="50" height="50" relative="1" as="geometry">
            <mxPoint x="-605" y="830" as="sourcePoint" />
            <mxPoint x="-440" y="770" as="targetPoint" />
          </mxGeometry>
        </mxCell>
        <mxCell id="WYwA7jNrKrz1sVTGzyhb-594" value="&lt;font style=&quot;color: rgb(0, 0, 0);&quot;&gt;&lt;b style=&quot;&quot;&gt;Person&amp;nbsp;&lt;/b&gt;&lt;/font&gt;&lt;div&gt;&lt;font style=&quot;color: rgb(0, 0, 0);&quot;&gt;&lt;b style=&quot;&quot;&gt;Responsible&lt;/b&gt;&lt;/font&gt;&lt;/div&gt;" style="text;html=1;align=center;verticalAlign=middle;whiteSpace=wrap;rounded=0;strokeWidth=4;" parent="1" vertex="1">
          <mxGeometry x="-620" y="840" width="30" height="20" as="geometry" />
        </mxCell>
        <mxCell id="WYwA7jNrKrz1sVTGzyhb-595" value="&lt;b&gt;Activity Number&lt;/b&gt;" style="text;html=1;align=center;verticalAlign=middle;whiteSpace=wrap;rounded=0;strokeWidth=4;" parent="1" vertex="1">
          <mxGeometry x="-760" y="741.5" width="30" height="20" as="geometry" />
        </mxCell>
        <mxCell id="WYwA7jNrKrz1sVTGzyhb-596" value="&lt;b&gt;Estimated Duration&lt;/b&gt;" style="text;html=1;align=center;verticalAlign=middle;whiteSpace=wrap;rounded=0;strokeWidth=4;" parent="1" vertex="1">
          <mxGeometry x="-470" y="741.5" width="30" height="20" as="geometry" />
        </mxCell>
        <mxCell id="WYwA7jNrKrz1sVTGzyhb-597" value="&lt;b&gt;Activity Description&lt;/b&gt;" style="text;html=1;align=center;verticalAlign=middle;whiteSpace=wrap;rounded=0;strokeWidth=4;" parent="1" vertex="1">
          <mxGeometry x="-620" y="690" width="30" height="20" as="geometry" />
        </mxCell>
        <mxCell id="WYwA7jNrKrz1sVTGzyhb-598" value="&lt;font style=&quot;font-size: 35px;&quot;&gt;KEY:&lt;/font&gt;" style="text;html=1;align=center;verticalAlign=middle;whiteSpace=wrap;rounded=0;strokeWidth=4;" parent="1" vertex="1">
          <mxGeometry x="-770" y="576.5" width="30" height="20" as="geometry" />
        </mxCell>
        <mxCell id="V5Nfuo91CUuXhS1oJEBI-5" value="" style="rounded=0;whiteSpace=wrap;html=1;" parent="1" vertex="1">
          <mxGeometry x="7650" y="332.75" width="130" height="96.5" as="geometry" />
        </mxCell>
        <mxCell id="V5Nfuo91CUuXhS1oJEBI-6" value="Josh" style="rounded=0;whiteSpace=wrap;html=1;" parent="1" vertex="1">
          <mxGeometry x="7650" y="399.25" width="130" height="30" as="geometry" />
        </mxCell>
        <mxCell id="V5Nfuo91CUuXhS1oJEBI-7" value="" style="rounded=0;whiteSpace=wrap;html=1;" parent="1" vertex="1">
          <mxGeometry x="7650" y="399.25" width="30" height="30" as="geometry" />
        </mxCell>
        <mxCell id="V5Nfuo91CUuXhS1oJEBI-8" value="Archive Project Records" style="text;html=1;align=center;verticalAlign=middle;whiteSpace=wrap;rounded=0;" parent="1" vertex="1">
          <mxGeometry x="7660" y="339.25" width="110" height="50" as="geometry" />
        </mxCell>
        <mxCell id="V5Nfuo91CUuXhS1oJEBI-9" value="45" style="text;html=1;align=center;verticalAlign=middle;whiteSpace=wrap;rounded=0;" parent="1" vertex="1">
          <mxGeometry x="7650" y="404.25" width="30" height="20" as="geometry" />
        </mxCell>
        <mxCell id="V5Nfuo91CUuXhS1oJEBI-10" style="edgeStyle=orthogonalEdgeStyle;rounded=0;orthogonalLoop=1;jettySize=auto;html=1;exitX=1;exitY=0.5;exitDx=0;exitDy=0;entryX=0;entryY=0.5;entryDx=0;entryDy=0;strokeWidth=2;strokeColor=#3399FF;" parent="1" target="V5Nfuo91CUuXhS1oJEBI-5" edge="1">
          <mxGeometry relative="1" as="geometry">
            <mxPoint x="7520" y="381.25" as="sourcePoint" />
          </mxGeometry>
        </mxCell>
        <mxCell id="V5Nfuo91CUuXhS1oJEBI-11" value="" style="rounded=0;whiteSpace=wrap;html=1;" parent="1" vertex="1">
          <mxGeometry x="7750" y="399.25" width="30" height="30" as="geometry" />
        </mxCell>
        <mxCell id="V5Nfuo91CUuXhS1oJEBI-12" value="&lt;font color=&quot;#3399ff&quot;&gt;&lt;b&gt;1&lt;/b&gt;&lt;/font&gt;" style="text;html=1;align=center;verticalAlign=middle;whiteSpace=wrap;rounded=0;strokeWidth=4;" parent="1" vertex="1">
          <mxGeometry x="7750" y="404.25" width="30" height="20" as="geometry" />
        </mxCell>
        <mxCell id="V5Nfuo91CUuXhS1oJEBI-13" value="&lt;font color=&quot;#3399ff&quot;&gt;&lt;b&gt;50&lt;/b&gt;&lt;/font&gt;" style="text;html=1;align=center;verticalAlign=middle;whiteSpace=wrap;rounded=0;strokeWidth=4;" parent="1" vertex="1">
          <mxGeometry x="7650" y="311.25" width="30" height="20" as="geometry" />
        </mxCell>
        <mxCell id="V5Nfuo91CUuXhS1oJEBI-14" value="&lt;font color=&quot;#3399ff&quot;&gt;&lt;b&gt;51&lt;/b&gt;&lt;/font&gt;" style="text;html=1;align=center;verticalAlign=middle;whiteSpace=wrap;rounded=0;strokeWidth=4;" parent="1" vertex="1">
          <mxGeometry x="7750" y="312.75" width="30" height="20" as="geometry" />
        </mxCell>
        <mxCell id="V5Nfuo91CUuXhS1oJEBI-15" value="&lt;font style=&quot;color: rgb(255, 51, 51);&quot;&gt;&lt;b style=&quot;&quot;&gt;51&lt;/b&gt;&lt;/font&gt;" style="text;html=1;align=center;verticalAlign=middle;whiteSpace=wrap;rounded=0;strokeWidth=4;" parent="1" vertex="1">
          <mxGeometry x="7650" y="432.75" width="30" height="20" as="geometry" />
        </mxCell>
        <mxCell id="V5Nfuo91CUuXhS1oJEBI-16" value="&lt;font style=&quot;color: rgb(255, 51, 51);&quot;&gt;&lt;b style=&quot;&quot;&gt;52&lt;/b&gt;&lt;/font&gt;" style="text;html=1;align=center;verticalAlign=middle;whiteSpace=wrap;rounded=0;strokeWidth=4;" parent="1" vertex="1">
          <mxGeometry x="7750" y="434.25" width="30" height="20" as="geometry" />
        </mxCell>
      </root>
    </mxGraphModel>
  </diagram>
</mxfile>
